<ttFont>
        <CharString name=".notdef">
          -121 endchar
        </CharString>
        <CharString name="A">
          54 21 -21 199 43 462 -20 hstem
          8 420 vstem
          234 702 rmoveto
          1 -4 -8 1 -7 hhcurveto
          -9 -5 -2 -4 -1 hvcurveto
          -192 -698 rlineto
          -1 12 10 0 6 hhcurveto
          16 4 1 9 2 hvcurveto
          50 190 rlineto
          220 hlineto
          54 -199 rlineto
          -1 10 11 0 6 hhcurveto
          14 5 2 7 1 0 1 -1 2 hvcurveto
          -307 230 rmoveto
          52 200 22 83 20 83 4 31 rlinecurve
          3 -31 20 -84 22 -82 54 -200 rcurveline
          endchar
        </CharString>
        <CharString name="AE">
          271 0 42 157 43 120 42 254 42 hstem
          371 45 vstem
          416 42 rmoveto
          320 174 vlineto
          11 0 7 35 hvcurveto
          -185 254 197 hlineto
          9 0 5 37 hvcurveto
          -239 hlineto
          -9 hlineto
          -6 -6 -4 -5 -2 hvcurveto
          -342 -691 rlineto
          -1 12 11 0 5 hhcurveto
          14 5 2 8 3 hvcurveto
          95 190 rlineto
          208 -199 240 hlineto
          11 0 4 38 hvcurveto
          -251 200 rmoveto
          -187 hlineto
          98 197 29 62 37 85 23 57 rlinecurve
          endchar
        </CharString>
        <CharString name="Aacute">
          54 21 -21 199 43 462 -20 hstem
          8 419 vstem
          159 772 rmoveto
          61 40 74 60 6 7 rrcurveto
          9 -1 -9 28 -12 hhcurveto
          -3 -75 -59 -58 -59 hvcurveto
          0 11 -27 7 vhcurveto
          75 -70 rmoveto
          1 -4 -8 1 -7 hhcurveto
          -9 -5 -2 -4 -1 hvcurveto
          -192 -698 rlineto
          -1 12 10 0 6 hhcurveto
          16 4 1 9 2 hvcurveto
          50 190 rlineto
          220 hlineto
          54 -199 rlineto
          -1 10 11 0 6 hhcurveto
          17 3 4 9 -2 hvcurveto
          -307 230 rmoveto
          52 200 22 83 20 83 4 31 rlinecurve
          3 -31 20 -84 22 -82 54 -200 rcurveline
          endchar
        </CharString>
        <CharString name="Abreve">
          54 21 -21 199 43 462 -20 91 43 hstem
          8 419 vstem
          216 775 rmoveto
          74 33 62 47 15 hvcurveto
          -3 18 -24 14 -9 -18 rrcurveto
          -35 -14 -19 -45 -52 hhcurveto
          -54 -25 57 34 -12 hvcurveto
          -18 -4 -10 -6 -14 vvcurveto
          -27 44 -83 74 vhcurveto
          18 -73 rmoveto
          1 -4 -8 1 -7 hhcurveto
          -9 -5 -2 -4 -1 hvcurveto
          -192 -698 rlineto
          -1 12 10 0 6 hhcurveto
          16 4 1 9 2 hvcurveto
          50 190 rlineto
          220 hlineto
          54 -199 rlineto
          -1 10 11 0 6 hhcurveto
          17 3 4 9 -2 hvcurveto
          -307 230 rmoveto
          52 200 22 83 20 83 4 31 rlinecurve
          3 -31 20 -84 22 -82 54 -200 rcurveline
          endchar
        </CharString>
        <CharString name="Acircumflex">
          54 21 -21 199 43 462 -20 211 8 hstem
          8 419 vstem
          100 791 rmoveto
          -5 4 9 -12 19 hhcurveto
          10 79 88 0 hvcurveto
          5 -9 76 -80 0 vvcurveto
          18 17 13 6 6 -97 97 0 hvcurveto
          6 -5 -7 2 -6 hhcurveto
          -4 -4 -1 -1 -3 hvcurveto
          23 -199 rmoveto
          1 -4 -8 1 -7 hhcurveto
          -9 -5 -2 -4 -1 hvcurveto
          -192 -698 rlineto
          -1 12 10 0 6 hhcurveto
          16 4 1 9 2 hvcurveto
          50 190 rlineto
          220 hlineto
          54 -199 rlineto
          -1 10 11 0 6 hhcurveto
          17 3 4 9 -2 hvcurveto
          -307 230 rmoveto
          52 200 22 83 20 83 4 31 rlinecurve
          3 -31 20 -84 22 -82 54 -200 rcurveline
          endchar
        </CharString>
        <CharString name="Acy">
          54 21 -21 199 43 462 -20 hstem
          8 419 vstem
          234 702 rmoveto
          1 -4 -8 1 -7 hhcurveto
          -9 -5 -2 -4 -1 hvcurveto
          -192 -698 rlineto
          -1 12 10 0 6 hhcurveto
          16 4 1 9 2 hvcurveto
          50 190 rlineto
          220 hlineto
          54 -199 rlineto
          -1 10 11 0 6 hhcurveto
          17 3 4 9 -2 hvcurveto
          -307 230 rmoveto
          52 200 22 83 20 83 4 31 rlinecurve
          3 -31 20 -84 22 -82 54 -200 rcurveline
          endchar
        </CharString>
        <CharString name="Adieresis">
          54 21 -21 199 43 462 -20 115 78 hstem
          138 54 53 54 vstem
          234 702 rmoveto
          1 -4 -8 1 -7 hhcurveto
          -9 -5 -2 -4 -1 hvcurveto
          -192 -698 rlineto
          -1 12 10 0 6 hhcurveto
          16 4 1 9 2 hvcurveto
          50 190 rlineto
          220 hlineto
          54 -199 rlineto
          -1 10 11 0 6 hhcurveto
          17 3 4 9 -2 hvcurveto
          -307 230 rmoveto
          52 200 22 83 20 83 4 31 rlinecurve
          3 -31 20 -84 22 -82 54 -200 rcurveline
          -154 557 rmoveto
          20 8 14 25 1 hvcurveto
          26 1 -7 13 -20 hhcurveto
          -18 -9 -14 -25 -1 hvcurveto
          -27 -1 9 -12 17 hhcurveto
          107 hmoveto
          20 8 14 25 1 hvcurveto
          26 1 -7 13 -20 hhcurveto
          -18 -9 -14 -25 -1 hvcurveto
          -27 -1 9 -12 17 hhcurveto
          endchar
        </CharString>
        <CharString name="Agrave">
          54 21 -21 199 43 462 -20 hstem
          8 419 vstem
          282 770 rmoveto
          7 11 26 0 hvcurveto
          59 -58 -76 58 -3 hhcurveto
          -12 -9 -28 -9 -1 hvcurveto
          6 -6 75 -60 60 -40 rrcurveto
          -48 -68 rmoveto
          1 -4 -8 1 -7 hhcurveto
          -9 -5 -2 -4 -1 hvcurveto
          -192 -698 rlineto
          -1 12 10 0 6 hhcurveto
          16 4 1 9 2 hvcurveto
          50 190 rlineto
          220 hlineto
          54 -199 rlineto
          -1 10 11 0 6 hhcurveto
          17 3 4 9 -2 hvcurveto
          -307 230 rmoveto
          52 200 22 83 20 83 4 31 rlinecurve
          3 -31 20 -84 22 -82 54 -200 rcurveline
          endchar
        </CharString>
        <CharString name="Amacron">
          54 21 -21 199 43 462 -20 126 44 hstem
          8 419 vstem
          326 810 rmoveto
          11 6 9 14 1 hvcurveto
          6 -1 7 -2 8 vhcurveto
          -229 hlineto
          -12 -7 -9 -13 -7 0 -7 2 -8 hvcurveto
          139 -108 rmoveto
          1 -4 -8 1 -7 hhcurveto
          -9 -5 -2 -4 -1 hvcurveto
          -192 -698 rlineto
          -1 12 10 0 6 hhcurveto
          16 4 1 9 2 hvcurveto
          50 190 rlineto
          220 hlineto
          54 -199 rlineto
          -1 10 11 0 6 hhcurveto
          17 3 4 9 -2 hvcurveto
          -307 230 rmoveto
          52 200 22 83 20 83 4 31 rlinecurve
          3 -31 20 -84 22 -82 54 -200 rcurveline
          endchar
        </CharString>
        <CharString name="Aogonek">
          54 -195 36 180 -21 199 43 462 -20 hstem
          303 42 vstem
          8 hmoveto
          -1 12 10 0 6 hhcurveto
          16 4 1 9 2 hvcurveto
          51 190 rlineto
          219 hlineto
          51 -190 rlineto
          -36 -26 -40 -46 -52 vvcurveto
          -55 30 -25 45 25 23 6 17 7 -4 8 -4 7 vhcurveto
          -5 -7 -10 -4 -14 hhcurveto
          -31 -11 17 31 44 36 41 39 25 hvcurveto
          5 4 2 3 4 vvcurveto
          2 0 2 -1 2 vhcurveto
          -192 686 rlineto
          1 -4 -8 1 -7 hhcurveto
          -9 -5 -2 -4 -1 hvcurveto
          118 -456 rmoveto
          -200 hlineto
          54 200 22 83 20 83 4 31 rlinecurve
          3 -31 20 -84 22 -82 rrcurveto
          endchar
        </CharString>
        <CharString name="Aring">
          54 21 -21 199 43 462 -20 74 35 106 36 hstem
          131 36 103 36 vstem
          215 758 rmoveto
          57 34 30 58 67 -28 22 -56 -56 -35 -28 -61 -66 32 -22 52 hvcurveto
          8 141 rmoveto
          30 17 -13 -39 -37 -20 -17 -34 -32 -17 19 32 42 21 13 35 hvcurveto
          11 -197 rmoveto
          1 -4 -8 1 -7 hhcurveto
          -9 -5 -2 -4 -1 hvcurveto
          -192 -698 rlineto
          -1 12 10 0 6 hhcurveto
          16 4 1 9 2 hvcurveto
          50 190 rlineto
          220 hlineto
          54 -199 rlineto
          -1 10 11 0 6 hhcurveto
          17 3 4 9 -2 hvcurveto
          -307 230 rmoveto
          52 200 22 83 20 83 4 31 rlinecurve
          3 -31 20 -84 22 -82 54 -200 rcurveline
          endchar
        </CharString>
        <CharString name="Atilde">
          54 21 -21 199 43 462 -20 98 45 hstem
          8 419 vstem
          102 790 rmoveto
          10 15 47 39 35 4 -55 58 hhcurveto
          58 28 44 22 11 hvcurveto
          0 -9 26 -11 vhcurveto
          -12 -7 -47 -53 -44 -2 52 -47 hhcurveto
          -35 -31 -13 -53 -32 hvcurveto
          0 12 -23 13 vhcurveto
          132 -88 rmoveto
          1 -4 -8 1 -7 hhcurveto
          -9 -5 -2 -4 -1 hvcurveto
          -192 -698 rlineto
          -1 12 10 0 6 hhcurveto
          16 4 1 9 2 hvcurveto
          50 190 rlineto
          220 hlineto
          54 -199 rlineto
          -1 10 11 0 6 hhcurveto
          17 3 4 9 -2 hvcurveto
          -307 230 rmoveto
          52 200 22 83 20 83 4 31 rlinecurve
          3 -31 20 -84 22 -82 54 -200 rcurveline
          endchar
        </CharString>
        <CharString name="B">
          16 0 41 320 41 257 41 hstem
          59 45 218 50 vstem
          59 hmoveto
          120 hlineto
          67 126 28 211 124 -79 21 -42 2 hvcurveto
          41 6 59 36 120 vvcurveto
          128 -92 24 -75 vhcurveto
          -100 hlineto
          -20 -5 -7 -10 hvcurveto
          45 -281 rmoveto
          257 79 vlineto
          60 60 -22 -95 -107 -51 -33 -63 hvcurveto
          -85 -361 rmoveto
          320 75 vlineto
          81 62 -7 -119 -152 -70 -42 -73 hvcurveto
          endchar
        </CharString>
        <CharString name="Becy">
          26 0 41 319 44 253 43 hstem
          69 46 205 50 vstem
          82 700 rmoveto
          -12 -1 -12 0 hvcurveto
          -688 117 vlineto
          118 66 87 139 121 -49 57 -120 hvcurveto
          -86 253 216 hlineto
          8 0 4 39 hvcurveto
          -224 -658 rmoveto
          318 82 vlineto
          89 34 -40 -98 -114 -41 -67 -96 hvcurveto
          endchar
        </CharString>
        <CharString name="C">
          -23 -9 48 627 43 hstem
          41 47 vstem
          235 709 rmoveto
          -89 -105 -37 -357 -305 91 -19 75 71 54 40 28 11 -5 11 -4 8 hvcurveto
          -22 -17 -44 -28 -48 hhcurveto
          -62 -64 35 239 317 79 36 72 40 32 -27 -7 7 hvcurveto
          5 6 4 12 10 vvcurveto
          19 -30 30 -62 vhcurveto
          endchar
        </CharString>
        <CharString name="CR">
          -204 endchar
        </CharString>
        <CharString name="Cacute">
          -23 -9 48 627 43 hstem
          41 47 vstem
          150 772 rmoveto
          61 40 75 60 6 7 rrcurveto
          9 -2 -8 28 -12 hhcurveto
          -3 -76 -59 -58 -58 hvcurveto
          0 11 -27 6 vhcurveto
          85 -63 rmoveto
          -89 -105 -37 -357 -305 91 -19 75 71 54 40 28 11 -5 11 -4 8 hvcurveto
          -22 -17 -44 -28 -48 hhcurveto
          -62 -64 35 239 317 79 36 72 40 32 -27 -7 7 hvcurveto
          5 6 4 12 10 vvcurveto
          19 -30 30 -62 vhcurveto
          endchar
        </CharString>
        <CharString name="Ccaron">
          -23 -9 48 627 43 hstem
          41 47 vstem
          217 775 rmoveto
          13 96 109 13 8 -8 8 -12 7 hvcurveto
          0 -48 -50 -40 -51 vhcurveto
          0 -88 98 -11 -11 -11 -20 -8 -3 vhcurveto
          -7 5 103 -107 15 hhcurveto
          18 -66 rmoveto
          -89 -105 -37 -357 -305 91 -19 75 71 54 40 28 11 -5 11 -4 8 hvcurveto
          -22 -17 -44 -28 -48 hhcurveto
          -62 -64 35 239 317 79 36 72 40 32 -27 -7 7 hvcurveto
          5 6 4 12 10 vvcurveto
          19 -30 30 -62 vhcurveto
          endchar
        </CharString>
        <CharString name="Ccedilla">
          -23 -188 31 71 27 50 48 627 43 hstem
          41 47 162 32 vstem
          178 -91 rmoveto
          0 18 5 19 18 17 -5 -30 -27 -16 -9 -20 -20 -17 14 -7 -6 vhcurveto
          -6 -6 -3 -23 0 vvcurveto
          0 24 -9 27 34 35 19 55 40 -25 15 -23 -15 -3 -1 0 vhcurveto
          11 52 rlineto
          61 6 44 36 25 vvcurveto
          11 -5 11 -4 8 vhcurveto
          -22 -17 -44 -28 -48 hhcurveto
          -62 -64 35 239 317 79 36 72 40 32 -27 -7 7 hvcurveto
          5 6 4 12 10 vvcurveto
          19 -30 30 -62 -89 -105 -37 -357 -289 81 -32 72 -3 vhcurveto
          endchar
        </CharString>
        <CharString name="Checy">
          26 21 -21 283 42 375 -20 hstem
          36 45 213 45 vstem
          339 700 rmoveto
          -45 0 -1 -11 hvcurveto
          -341 vlineto
          -15 -38 -37 -7 -33 hhcurveto
          -66 -40 48 98 1 hvcurveto
          229 vlineto
          -44 -1 0 -12 hvcurveto
          -226 vlineto
          -121 1 52 -58 88 hhcurveto
          34 40 6 13 43 hvcurveto
          -302 vlineto
          44 1 0 12 hvcurveto
          endchar
        </CharString>
        <CharString name="D">
          37 0 43 615 42 hstem
          61 44 226 49 vstem
          86 700 rmoveto
          -21 -4 -7 -10 hvcurveto
          -683 119 vlineto
          109 91 64 323 227 -67 86 -128 hvcurveto
          -80 -657 rmoveto
          615 78 vlineto
          103 45 -75 -193 -304 -74 -43 -77 hvcurveto
          endchar
        </CharString>
        <CharString name="Dcaron">
          37 0 43 615 42 hstem
          61 44 226 49 vstem
          193 775 rmoveto
          13 96 109 13 8 -8 8 -12 7 hvcurveto
          0 -48 -50 -40 -51 vhcurveto
          0 -88 98 -12 -10 -11 -20 -8 -3 vhcurveto
          -7 5 103 -107 15 hhcurveto
          -107 -75 rmoveto
          -21 -4 -7 -10 hvcurveto
          -683 119 vlineto
          109 91 64 323 227 -67 86 -128 hvcurveto
          -80 -657 rmoveto
          615 78 vlineto
          103 45 -75 -193 -304 -74 -43 -77 hvcurveto
          endchar
        </CharString>
        <CharString name="Dcroat">
          37 0 43 615 42 110 44 hstem
          61 44 226 49 vstem
          293 810 rmoveto
          12 6 9 14 6 0 7 -3 8 hvcurveto
          -229 hlineto
          -12 -6 -9 -13 -1 hvcurveto
          -7 0 -7 3 -8 vhcurveto
          23 -110 rmoveto
          -21 -4 -7 -10 hvcurveto
          -683 119 vlineto
          109 91 64 323 227 -67 86 -128 hvcurveto
          -80 -657 rmoveto
          615 78 vlineto
          103 45 -75 -193 -304 -74 -43 -77 hvcurveto
          endchar
        </CharString>
        <CharString name="Decy">
          83 0 43 614 43 hstem
          17 43 281 45 vstem
          436 43 rmoveto
          -50 657 -202 hlineto
          -35 -1 0 -12 -1 hvcurveto
          -587 -29 -32 -58 -55 hhcurveto
          -14 -190 hlineto
          -11 11 -1 17 vhcurveto
          11 61 3 62 1 36 rrcurveto
          333 hlineto
          -36 4 -62 11 -61 vhcurveto
          17 11 1 11 hvcurveto
          -95 804 rmoveto
          -614 -240 vlineto
          41 47 21 143 27 424 rrcurveto
          endchar
        </CharString>
        <CharString name="Delta">
          62 0 43 660 -20 hstem
          30 395 vstem
          30 hmoveto
          395 hlineto
          -173 697 rlineto
          3 -4 -8 3 -10 hhcurveto
          -12 -16 -5 -26 -6 hvcurveto
          -113 -629 rmoveto
          142 588 rlineto
          3 hlineto
          145 -588 rlineto
          endchar
        </CharString>
        <CharString name="Djecy">
          136 -7 42 435 40 147 43 hstem
          158 45 208 46 vstem
          359 700 rmoveto
          -340 hlineto
          -9 -4 -4 -8 hvcurveto
          -31 152 -657 vlineto
          44 1 0 12 hvcurveto
          433 vlineto
          15 34 51 10 32 hhcurveto
          73 18 -34 -99 hvcurveto
          -76 vlineto
          -135 -26 -91 -78 -15 -16 3 6 -15 vhcurveto
          -2 -6 -1 -5 -5 vvcurveto
          -3 0 -2 1 -3 vhcurveto
          -17 3 26 -10 34 hhcurveto
          106 29 114 152 hvcurveto
          84 vlineto
          122 -2 -31 45 -97 hhcurveto
          -42 -42 -9 -13 -40 hvcurveto
          169 143 vlineto
          10 3 4 8 hvcurveto
          endchar
        </CharString>
        <CharString name="Dzecy">
          -8 -10 45 634 41 hstem
          39 47 208 47 vstem
          220 325 rmoveto
          56 -58 18 -41 -60 vvcurveto
          -77 -37 -54 -91 -61 -33 18 19 -21 vhcurveto
          -10 -8 -5 -13 -10 vvcurveto
          -19 39 -32 93 123 50 77 103 68 -17 46 -57 61 vhcurveto
          -123 123 rlineto
          -34 36 -24 32 43 vvcurveto
          54 47 36 72 56 39 -16 -13 16 vhcurveto
          8 8 5 11 9 vvcurveto
          19 -37 23 -88 -105 -60 -55 -77 -51 25 -41 45 -49 vhcurveto
          endchar
        </CharString>
        <CharString name="Dzhecy">
          71 0 43 657 -20 hstem
          69 45 96 43 86 45 vstem
          339 43 rmoveto
          -225 657 hlineto
          -44 -1 0 -12 hvcurveto
          -688 141 vlineto
          1 -36 3 -62 11 -61 rrcurveto
          17 11 1 11 hvcurveto
          147 104 vlineto
          25 2 0 12 hvcurveto
          688 vlineto
          -44 -1 0 -12 hvcurveto
          endchar
        </CharString>
        <CharString name="E">
          -38 0 42 320 42 254 42 hstem
          61 45 vstem
          106 42 rmoveto
          320 175 vlineto
          10 0 7 35 hvcurveto
          -185 254 198 hlineto
          9 0 5 37 hvcurveto
          -239 hlineto
          -12 -1 -12 0 hvcurveto
          -688 241 vlineto
          11 0 4 38 hvcurveto
          endchar
        </CharString>
        <CharString name="Eacute">
          -38 0 42 320 42 254 42 hstem
          61 45 vstem
          128 772 rmoveto
          60 40 75 60 6 7 rrcurveto
          9 -1 -9 28 -12 hhcurveto
          -3 -76 -59 -58 -58 hvcurveto
          0 11 -27 7 vhcurveto
          -22 -410 rmoveto
          175 hlineto
          10 0 7 35 hvcurveto
          -185 254 198 hlineto
          9 0 5 37 hvcurveto
          -239 hlineto
          -12 -1 -12 0 hvcurveto
          -688 241 vlineto
          11 0 4 38 hvcurveto
          -207 hlineto
          endchar
        </CharString>
        <CharString name="Ecaron">
          -38 0 42 320 42 254 42 hstem
          61 45 vstem
          194 775 rmoveto
          13 96 109 13 8 -8 8 -12 7 hvcurveto
          0 -48 -50 -40 -51 vhcurveto
          0 -88 98 -11 -11 -11 -20 -8 -3 vhcurveto
          -7 5 103 -107 15 hhcurveto
          -88 -413 rmoveto
          175 hlineto
          10 0 7 35 hvcurveto
          -185 254 198 hlineto
          9 0 5 37 hvcurveto
          -239 hlineto
          -12 -1 -12 0 hvcurveto
          -688 241 vlineto
          11 0 4 38 hvcurveto
          -207 hlineto
          endchar
        </CharString>
        <CharString name="Ecircumflex">
          -38 0 42 320 42 254 42 hstem
          61 45 vstem
          68 791 rmoveto
          -5 4 10 -12 19 hhcurveto
          10 79 88 0 hvcurveto
          5 -9 76 -80 0 vvcurveto
          18 17 13 6 6 -97 97 0 hvcurveto
          6 -6 -6 2 -6 hhcurveto
          -5 -4 -1 -1 -2 hvcurveto
          -74 -539 rmoveto
          175 hlineto
          10 0 7 35 hvcurveto
          -185 254 198 hlineto
          9 0 5 37 hvcurveto
          -239 hlineto
          -12 -1 -12 0 hvcurveto
          -688 241 vlineto
          11 0 4 38 hvcurveto
          -207 hlineto
          endchar
        </CharString>
        <CharString name="Ecy">
          -21 -10 49 297 43 287 44 hstem
          44 47 vstem
          267 336 rmoveto
          11 0 8 35 hvcurveto
          -187 hlineto
          266 6 75 21 57 hhcurveto
          51 30 -23 -10 10 hvcurveto
          4 6 5 11 11 vvcurveto
          17 -36 32 -73 -77 -99 -24 -329 -331 93 -36 83 62 54 38 26 10 -5 15 -4 10 vhcurveto
          -22 -20 -38 -28 -45 hhcurveto
          -70 -62 58 239 -1 hvcurveto
          endchar
        </CharString>
        <CharString name="Edieresis">
          -38 0 42 320 42 254 42 hstem
          61 45 vstem
          132 799 rmoveto
          20 8 14 25 1 hvcurveto
          26 1 -8 13 -19 hhcurveto
          -18 -9 -14 -25 -1 hvcurveto
          -27 -1 9 -12 17 hhcurveto
          107 hmoveto
          20 8 14 25 1 hvcurveto
          26 1 -8 13 -19 hhcurveto
          -18 -9 -14 -25 -1 hvcurveto
          -27 -1 9 -12 17 hhcurveto
          -133 -757 rmoveto
          320 175 vlineto
          10 0 7 35 hvcurveto
          -185 254 198 hlineto
          9 0 5 37 hvcurveto
          -239 hlineto
          -12 -1 -12 0 hvcurveto
          -688 241 vlineto
          11 0 4 38 hvcurveto
          endchar
        </CharString>
        <CharString name="Edotaccent">
          -38 0 42 320 42 254 42 hstem
          61 45 vstem
          185 798 rmoveto
          20 9 14 26 1 hvcurveto
          27 -7 13 -20 -19 -9 -14 -26 vhcurveto
          -28 -1 9 -12 17 hhcurveto
          -79 -756 rmoveto
          320 175 vlineto
          10 0 7 35 hvcurveto
          -185 254 198 hlineto
          9 0 5 37 hvcurveto
          -239 hlineto
          -12 -1 -12 0 hvcurveto
          -688 241 vlineto
          11 0 4 38 hvcurveto
          endchar
        </CharString>
        <CharString name="Efcy">
          172 11 -21 83 41 501 130 hstem
          44 46 165 45 164 46 vstem
          300 745 rmoveto
          -44 -1 0 -24 hvcurveto
          -66 vlineto
          -142 -6 -69 -91 -190 vvcurveto
          -201 67 -90 144 -4 vhcurveto
          -83 vlineto
          45 0 0 17 hvcurveto
          67 vlineto
          141 5 69 91 198 vvcurveto
          193 -68 89 -142 6 vhcurveto
          -41 vmoveto
          112 -3 52 -78 -166 vvcurveto
          -169 -54 -81 -110 -3 vhcurveto
          -45 -1 rmoveto
          -112 3 -53 79 169 vvcurveto
          166 54 80 111 3 vhcurveto
          endchar
        </CharString>
        <CharString name="Egrave">
          -38 0 42 320 42 254 42 hstem
          61 45 vstem
          251 770 rmoveto
          7 11 26 0 hvcurveto
          59 -58 -76 58 -3 hhcurveto
          -12 -9 -28 -9 -1 hvcurveto
          6 -6 75 -60 60 -40 rrcurveto
          -145 -408 rmoveto
          175 hlineto
          10 0 7 35 hvcurveto
          -185 254 198 hlineto
          9 0 5 37 hvcurveto
          -239 hlineto
          -12 -1 -12 0 hvcurveto
          -688 241 vlineto
          11 0 4 38 hvcurveto
          -207 hlineto
          endchar
        </CharString>
        <CharString name="Elcy">
          51 21 -21 657 43 hstem
          319 45 vstem
          364 700 rmoveto
          -189 hlineto
          -38 -3 -1 -14 -1 hvcurveto
          -27 -456 -16 -194 -89 -4 rrcurveto
          -1 -4 0 -4 -4 vvcurveto
          -19 12 -6 14 97 28 229 434 25 vhcurveto
          143 -657 hlineto
          43 2 0 12 hvcurveto
          endchar
        </CharString>
        <CharString name="Emacron">
          -38 0 42 320 42 254 42 110 44 hstem
          61 45 vstem
          294 810 rmoveto
          12 6 9 14 1 hvcurveto
          6 -1 7 -3 8 vhcurveto
          -229 hlineto
          -12 -6 -9 -13 -1 hvcurveto
          -7 1 -7 2 -8 vhcurveto
          42 -768 rmoveto
          320 175 vlineto
          10 0 7 35 hvcurveto
          -185 254 198 hlineto
          9 0 5 37 hvcurveto
          -239 hlineto
          -12 -1 -12 0 hvcurveto
          -688 241 vlineto
          11 0 4 38 hvcurveto
          endchar
        </CharString>
        <CharString name="Emcy">
          141 21 -21 700 -20 hstem
          69 45 295 45 vstem
          297 327 rmoveto
          -36 -119 rlineto
          0 -32 108 -5 15 vhcurveto
          -114 369 rlineto
          -28 hlineto
          -7 -6 -2 -10 hvcurveto
          -688 vlineto
          43 2 0 12 hvcurveto
          302 vlineto
          -1 33 -5 178 -1 56 79 -258 rcurveline
          58 -185 rlineto
          22 hlineto
          4 5 2 7 2 hvcurveto
          59 176 4 9 53 175 23 76 rlinecurve
          -7 -277 rlineto
          -306 vlineto
          45 0 0 12 hvcurveto
          688 -33 vlineto
          -9 -2 -9 -3 -2 hvcurveto
          endchar
        </CharString>
        <CharString name="Ency">
          79 21 -21 360 44 296 -20 hstem
          69 45 233 45 vstem
          347 404 rmoveto
          -233 296 hlineto
          -44 -1 0 -12 hvcurveto
          -688 vlineto
          45 0 0 12 hvcurveto
          348 233 -360 vlineto
          44 1 0 12 hvcurveto
          688 vlineto
          -45 0 -1 -11 hvcurveto
          endchar
        </CharString>
        <CharString name="Endescendercy">
          73 0 43 317 44 296 -20 hstem
          59 45 233 45 vstem
          432 43 rmoveto
          -50 657 hlineto
          -46 1 -1 -11 hvcurveto
          -284 -233 296 vlineto
          -44 -1 0 -12 hvcurveto
          -688 vlineto
          45 0 0 12 hvcurveto
          348 233 -360 52 vlineto
          1 -36 3 -62 11 -61 rrcurveto
          17 11 1 11 hvcurveto
          endchar
        </CharString>
        <CharString name="Eogonek">
          -38 -195 36 159 42 320 42 254 42 hstem
          61 45 81 42 vstem
          106 42 rmoveto
          320 175 vlineto
          10 0 7 35 hvcurveto
          -185 254 198 hlineto
          9 0 5 37 hvcurveto
          -239 hlineto
          -12 -1 -12 0 hvcurveto
          -688 191 vlineto
          -35 -27 -30 -43 -46 vvcurveto
          -55 30 -24 44 25 24 6 17 7 -4 8 -4 7 vhcurveto
          -6 -10 -9 -3 -13 hhcurveto
          -28 -13 16 31 44 35 41 37 24 hvcurveto
          11 8 1 2 35 vvcurveto
          endchar
        </CharString>
        <CharString name="Ercy">
          -9 21 -21 301 42 316 41 hstem
          59 45 196 48 vstem
          71 700 rmoveto
          -8 -4 -4 -8 hvcurveto
          -688 vlineto
          45 0 0 12 hvcurveto
          289 68 vlineto
          107 69 65 146 109 -45 79 -126 hvcurveto
          -73 -357 rmoveto
          316 75 vlineto
          94 27 -64 -79 -111 -40 -62 -86 hvcurveto
          endchar
        </CharString>
        <CharString name="Ereversedcy">
          -19 -10 49 297 43 287 44 hstem
          272 47 vstem
          85 379 rmoveto
          -35 0 -8 11 vhcurveto
          176 hlineto
          -239 -1 -62 -58 -71 hhcurveto
          -45 -38 29 21 -19 hvcurveto
          -5 -11 -5 -14 -11 vvcurveto
          -26 57 -37 60 82 94 36 331 329 -98 24 -77 -73 -36 -32 -17 -11 4 -11 5 -6 vhcurveto
          10 10 31 23 50 hhcurveto
          57 74 -20 -267 6 hvcurveto
          endchar
        </CharString>
        <CharString name="Escy">
          -23 -9 48 627 43 hstem
          41 47 vstem
          235 709 rmoveto
          -89 -105 -37 -357 -305 91 -19 75 71 54 40 28 11 -5 11 -4 8 hvcurveto
          -22 -17 -44 -28 -48 hhcurveto
          -62 -64 35 239 317 79 36 72 40 32 -27 -7 7 hvcurveto
          5 6 4 12 10 vvcurveto
          19 -30 30 -62 vhcurveto
          endchar
        </CharString>
        <CharString name="Eth">
          37 0 43 306 41 268 42 hstem
          61 44 226 49 vstem
          86 700 rmoveto
          -21 -4 -7 -10 hvcurveto
          -293 -34 vlineto
          -13 0 -9 -32 hvcurveto
          47 -349 119 hlineto
          109 91 64 326 224 -67 86 -128 hvcurveto
          -80 -657 rmoveto
          306 101 vlineto
          13 0 9 32 hvcurveto
          -114 268 78 hlineto
          103 45 -75 -193 -304 -74 -43 -77 hvcurveto
          endchar
        </CharString>
        <CharString name="F">
          -50 21 -21 362 43 254 41 hstem
          61 45 vstem
          74 700 rmoveto
          -12 -1 -12 0 hvcurveto
          -688 33 vlineto
          12 0 11 1 hvcurveto
          350 175 vlineto
          10 0 8 35 hvcurveto
          -185 254 198 hlineto
          9 0 4 37 hvcurveto
          endchar
        </CharString>
        <CharString name="G">
          22 -10 44 320 40 272 44 hstem
          41 47 232 43 vstem
          363 394 rmoveto
          -136 hlineto
          -9 -5 -4 -9 hvcurveto
          -27 107 -277 vlineto
          -14 -7 -31 -29 -52 hhcurveto
          -79 -63 33 277 260 66 62 104 40 28 -12 -17 21 hvcurveto
          5 10 2 10 10 vvcurveto
          22 -44 21 -60 -124 -85 -65 -303 -297 74 -55 113 84 38 44 17 13 vhcurveto
          endchar
        </CharString>
        <CharString name="Gamma">
          -60 21 -21 659 41 hstem
          69 45 vstem
          69 hmoveto
          33 hlineto
          12 0 12 0 hvcurveto
          647 182 vlineto
          9 0 4 37 hvcurveto
          -223 hlineto
          -12 -1 -12 0 hvcurveto
          endchar
        </CharString>
        <CharString name="Gbreve">
          22 -10 44 320 40 272 44 65 43 hstem
          41 47 232 43 vstem
          133 909 rmoveto
          -17 -4 -11 -6 -14 vvcurveto
          -27 44 -83 75 73 33 62 47 15 vhcurveto
          -3 18 -24 14 -9 -18 rrcurveto
          -35 -14 -18 -45 -52 hhcurveto
          -55 -25 57 34 -12 hvcurveto
          230 -515 rmoveto
          -136 hlineto
          -9 -5 -4 -9 hvcurveto
          -27 107 -277 vlineto
          -14 -7 -31 -29 -52 hhcurveto
          -79 -63 33 277 260 66 62 104 40 28 -12 -17 21 hvcurveto
          5 10 2 10 10 vvcurveto
          22 -44 21 -60 -124 -85 -65 -303 -297 74 -55 113 84 38 44 17 13 vhcurveto
          endchar
        </CharString>
        <CharString name="Gcommaaccent">
          22 -10 44 320 40 272 44 hstem
          41 47 232 43 vstem
          363 394 rmoveto
          -136 hlineto
          -9 -5 -4 -9 hvcurveto
          -27 107 -277 vlineto
          -14 -7 -31 -29 -52 hhcurveto
          -79 -63 33 277 260 66 62 104 40 28 -12 -17 21 hvcurveto
          5 10 2 10 10 vvcurveto
          22 -44 21 -60 -124 -85 -65 -303 -297 74 -55 113 84 38 44 17 13 vhcurveto
          -182 -144 rmoveto
          -16 7 -13 11 -7 vhcurveto
          -31 -8 -29 -22 -37 vhcurveto
          -10 2 9 -6 9 hhcurveto
          15 48 82 61 33 -14 10 -22 -21 -14 -15 -22 hvcurveto
          endchar
        </CharString>
        <CharString name="Gecy">
          -60 21 -21 659 41 hstem
          69 45 vstem
          69 hmoveto
          33 hlineto
          12 0 12 0 hvcurveto
          647 182 vlineto
          9 0 4 37 hvcurveto
          -223 hlineto
          -12 -1 -12 0 hvcurveto
          endchar
        </CharString>
        <CharString name="Gheupturncy">
          -75 21 -21 659 41 hstem
          69 45 164 27 vstem
          82 700 rmoveto
          -12 -1 -12 0 hvcurveto
          -688 33 vlineto
          12 0 12 0 hvcurveto
          647 182 vlineto
          9 0 4 37 hvcurveto
          97 vlineto
          11 -9 2 -18 vhcurveto
          -7 -36 -5 -43 -2 -31 rrcurveto
          endchar
        </CharString>
        <CharString name="Gjecy">
          -60 21 -21 659 41 hstem
          69 45 vstem
          161 772 rmoveto
          61 40 75 60 6 7 rrcurveto
          9 -2 -8 28 -12 hhcurveto
          -3 -76 -59 -58 -58 hvcurveto
          0 11 -27 6 vhcurveto
          -92 -772 rmoveto
          33 hlineto
          12 0 12 0 hvcurveto
          647 182 vlineto
          9 0 4 37 hvcurveto
          -223 hlineto
          -12 -1 -12 0 hvcurveto
          endchar
        </CharString>
        <CharString name="H">
          59 21 -21 360 44 296 -20 hstem
          59 45 233 45 vstem
          337 404 rmoveto
          -233 296 hlineto
          -44 -1 0 -12 hvcurveto
          -688 vlineto
          45 0 0 12 hvcurveto
          348 233 -360 vlineto
          44 1 0 12 hvcurveto
          688 vlineto
          -46 1 -1 -11 hvcurveto
          endchar
        </CharString>
        <CharString name="Hacy">
          45 21 -21 700 -20 hstem
          11 405 vstem
          246 363 rmoveto
          151 337 rlineto
          -51 3 0 -8 -4 hvcurveto
          -52 -115 -31 -70 -32 -77 -12 -29 rlinecurve
          -11 28 -31 76 -32 72 -55 123 rcurveline
          -55 0 0 -8 4 hvcurveto
          147 -327 -174 -365 rlineto
          40 hlineto
          6 3 1 5 3 hvcurveto
          73 151 33 69 31 71 13 29 rlinecurve
          12 -29 32 -71 32 -70 73 -156 rcurveline
          46 hlineto
          6 4 4 7 -4 hvcurveto
          endchar
        </CharString>
        <CharString name="Hardsigncy">
          90 0 41 319 44 253 43 hstem
          152 44 206 50 vstem
          196 404 rmoveto
          296 -161 vlineto
          -9 -5 -3 -13 hvcurveto
          -27 131 -657 116 vlineto
          118 66 87 139 121 -49 57 -120 hvcurveto
          -87 -44 rmoveto
          83 hlineto
          89 34 -40 -98 -114 -41 -67 -96 -24 -22 1 1 -23 hvcurveto
          endchar
        </CharString>
        <CharString name="I">
          -218 21 -21 700 -20 hstem
          59 46 vstem
          59 hmoveto
          44 2 0 12 hvcurveto
          688 vlineto
          -45 -1 0 -24 hvcurveto
          endchar
        </CharString>
        <CharString name="IJ">
          80 -10 42 668 -20 hstem
          59 46 253 45 vstem
          59 hmoveto
          44 2 0 12 hvcurveto
          688 vlineto
          -45 -1 0 -24 hvcurveto
          299 -492 rmoveto
          -81 -4 -71 -77 -37 -29 16 21 -19 vhcurveto
          -4 -6 -6 -10 -13 vvcurveto
          -23 35 -27 64 111 11 96 83 vhcurveto
          531 vlineto
          -45 0 0 -23 hvcurveto
          endchar
        </CharString>
        <CharString name="Iacute">
          -218 21 -21 700 -20 hstem
          59 46 vstem
          23 772 rmoveto
          61 40 74 60 6 7 rrcurveto
          9 -1 -9 28 -12 hhcurveto
          -2 -76 -59 -58 -59 hvcurveto
          0 11 -27 7 vhcurveto
          36 -772 rmoveto
          44 2 0 12 hvcurveto
          688 vlineto
          -45 -1 0 -24 hvcurveto
          endchar
        </CharString>
        <CharString name="Iacy">
          17 21 -21 304 43 312 41 hstem
          48 48 189 44 vstem
          211 700 rmoveto
          -111 -52 -74 -111 -106 57 -74 64 -19 hvcurveto
          -50 -21 -24 -29 -11 -43 -59 -223 rcurveline
          31 -1 rlineto
          18 1 4 11 3 hvcurveto
          52 204 rlineto
          53 13 47 33 56 hhcurveto
          39 -292 hlineto
          -12 -1 0 45 vhcurveto
          688 vlineto
          0 0 12 -12 vhcurveto
          -32 -42 rmoveto
          -310 vlineto
          -1 -23 -21 0 -22 hhcurveto
          -69 -54 68 104 80 34 60 79 hvcurveto
          endchar
        </CharString>
        <CharString name="Icircumflex">
          -218 21 -21 700 -20 215 8 hstem
          59 46 vstem
          -36 791 rmoveto
          -5 4 9 -12 19 hhcurveto
          10 80 88 0 hvcurveto
          4 -9 76 -80 0 vvcurveto
          18 17 13 6 6 -96 97 0 hvcurveto
          6 -6 -7 2 -5 hhcurveto
          -5 -4 -1 -1 -3 hvcurveto
          -16 -901 rmoveto
          44 2 0 12 hvcurveto
          688 vlineto
          -45 -1 0 -24 hvcurveto
          endchar
        </CharString>
        <CharString name="Icy">
          -218 21 -21 700 -20 hstem
          59 46 vstem
          59 hmoveto
          44 2 0 12 hvcurveto
          688 vlineto
          -45 -1 0 -24 hvcurveto
          endchar
        </CharString>
        <CharString name="Idieresis">
          -218 21 -21 700 -20 119 78 hstem
          59 46 vstem
          31 877 rmoveto
          -19 -9 -14 -25 -1 hvcurveto
          -27 8 -12 17 20 9 14 25 vhcurveto
          26 1 -7 13 -19 hhcurveto
          107 hmoveto
          -19 -9 -14 -25 -1 hvcurveto
          -27 -1 9 -12 17 hhcurveto
          20 8 14 25 1 hvcurveto
          26 1 -7 13 -19 hhcurveto
          -79 -877 rmoveto
          44 2 0 12 hvcurveto
          688 vlineto
          -45 -1 0 -24 hvcurveto
          endchar
        </CharString>
        <CharString name="Idotaccent">
          -218 21 -21 700 -20 118 80 hstem
          59 46 vstem
          55 838 rmoveto
          -28 -1 9 -12 18 hhcurveto
          19 9 14 26 1 hvcurveto
          27 1 -8 13 -19 hhcurveto
          -19 -9 -14 -26 -1 hvcurveto
          4 -838 rmoveto
          44 2 0 12 hvcurveto
          688 vlineto
          -45 -1 0 -24 hvcurveto
          endchar
        </CharString>
        <CharString name="Iecy">
          -38 0 42 320 42 254 42 hstem
          61 45 vstem
          106 42 rmoveto
          320 175 vlineto
          10 0 7 35 hvcurveto
          -185 254 198 hlineto
          9 0 5 37 hvcurveto
          -239 hlineto
          -12 -1 -12 0 hvcurveto
          -688 241 vlineto
          11 0 4 38 hvcurveto
          endchar
        </CharString>
        <CharString name="Iegravecy">
          -38 0 42 320 42 254 42 hstem
          61 45 vstem
          251 770 rmoveto
          7 11 26 0 hvcurveto
          59 -58 -76 58 -3 hhcurveto
          -12 -9 -28 -9 -1 hvcurveto
          6 -6 75 -60 60 -40 rrcurveto
          -145 -408 rmoveto
          175 hlineto
          10 0 7 35 hvcurveto
          -185 254 198 hlineto
          9 0 5 37 hvcurveto
          -239 hlineto
          -12 -1 -12 0 hvcurveto
          -688 241 vlineto
          11 0 4 38 hvcurveto
          -207 hlineto
          endchar
        </CharString>
        <CharString name="Igrave">
          -218 21 -21 700 -20 hstem
          59 46 vstem
          27 913 rmoveto
          -12 -8 -28 -9 -2 hvcurveto
          6 -6 75 -60 61 -40 rrcurveto
          6 11 26 0 hvcurveto
          59 -58 -76 58 -3 hhcurveto
          32 -913 rmoveto
          44 2 0 12 hvcurveto
          688 vlineto
          -45 -1 0 -24 hvcurveto
          endchar
        </CharString>
        <CharString name="Igravecy">
          91 21 -21 700 -20 hstem
          69 44 248 43 vstem
          183 913 rmoveto
          -12 -8 -28 -9 -2 hvcurveto
          6 -6 75 -60 60 -40 rrcurveto
          7 11 26 0 hvcurveto
          59 -58 -76 58 -3 hhcurveto
          48 -631 rmoveto
          63 148 47 112 30 86 rrcurveto
          -7 -106 -3 -98 -169 vvcurveto
          -255 vlineto
          41 2 0 12 hvcurveto
          688 vlineto
          -25 -11 2 -15 -8 hvcurveto
          -113 -270 -70 -164 -48 -105 -23 -73 rlinecurve
          5 77 2 52 83 vvcurveto
          413 vlineto
          -44 0 0 -12 hvcurveto
          -688 vlineto
          27 12 -2 15 7 hvcurveto
          endchar
        </CharString>
        <CharString name="Iicy">
          91 21 -21 700 -20 hstem
          69 44 248 43 vstem
          231 282 rmoveto
          63 148 47 112 30 86 rrcurveto
          -7 -106 -3 -98 -169 vvcurveto
          -255 vlineto
          41 2 0 12 hvcurveto
          688 vlineto
          -25 -11 2 -15 -8 hvcurveto
          -113 -270 -18 -42 -16 -38 -15 -34 rlinecurve
          -43 -101 -32 -73 -17 -54 rrcurveto
          5 77 2 52 83 vvcurveto
          413 vlineto
          -44 0 0 -12 hvcurveto
          -688 vlineto
          27 12 -2 15 7 hvcurveto
          endchar
        </CharString>
        <CharString name="Imacron">
          -218 21 -21 700 -20 130 44 hstem
          59 46 vstem
          190 810 rmoveto
          11 6 9 14 1 hvcurveto
          6 -1 7 -2 8 vhcurveto
          -229 hlineto
          -12 -7 -9 -13 -7 0 -7 2 -8 hvcurveto
          100 -810 rmoveto
          44 2 0 12 hvcurveto
          688 vlineto
          -45 -1 0 -24 hvcurveto
          endchar
        </CharString>
        <CharString name="Iocy">
          -38 0 42 320 42 254 42 hstem
          61 45 vstem
          132 799 rmoveto
          20 8 14 25 1 hvcurveto
          26 1 -8 13 -19 hhcurveto
          -18 -9 -14 -25 -1 hvcurveto
          -27 -1 9 -12 17 hhcurveto
          107 hmoveto
          20 8 14 25 1 hvcurveto
          26 1 -8 13 -19 hhcurveto
          -18 -9 -14 -25 -1 hvcurveto
          -27 -1 9 -12 17 hhcurveto
          -133 -757 rmoveto
          320 175 vlineto
          10 0 7 35 hvcurveto
          -185 254 198 hlineto
          9 0 5 37 hvcurveto
          -239 hlineto
          -12 -1 -12 0 hvcurveto
          -688 241 vlineto
          11 0 4 38 hvcurveto
          endchar
        </CharString>
        <CharString name="Iogonek">
          -219 -195 37 858 -20 hstem
          59 45 vstem
          104 700 rmoveto
          -44 -1 0 -24 hvcurveto
          -667 vlineto
          -35 -32 -32 -41 -54 vvcurveto
          -51 28 -26 48 27 20 8 15 -1 vhcurveto
          6 -3 10 -4 6 vhcurveto
          -5 -11 -8 -3 -13 hhcurveto
          -29 -13 16 27 45 32 42 27 23 hvcurveto
          7 6 5 3 8 vvcurveto
          endchar
        </CharString>
        <CharString name="Iucy">
          236 -10 46 295 43 291 45 hstem
          69 44 101 47 265 48 vstem
          113 374 rmoveto
          326 vlineto
          -42 -2 0 -12 hvcurveto
          -688 vlineto
          43 1 0 12 hvcurveto
          319 101 vlineto
          -262 3 51 -79 121 hhcurveto
          129 56 98 268 263 -49 91 -128 -121 -59 -93 -243 -3 hvcurveto
          47 -34 rmoveto
          239 44 86 92 91 38 -78 -230 -236 -40 -85 -98 -90 -37 82 222 vhcurveto
          endchar
        </CharString>
        <CharString name="J">
          -84 -10 42 668 -20 hstem
          194 45 vstem
          194 184 rmoveto
          -81 -4 -71 -77 -37 -29 16 21 -19 vhcurveto
          -4 -6 -6 -10 -13 vvcurveto
          -23 35 -27 64 111 11 96 83 vhcurveto
          531 vlineto
          -45 0 0 -23 hvcurveto
          endchar
        </CharString>
        <CharString name="Jecy">
          -84 -10 42 668 -20 hstem
          194 45 vstem
          194 184 rmoveto
          -81 -4 -71 -77 -37 -29 16 21 -19 vhcurveto
          -4 -6 -6 -10 -13 vvcurveto
          -23 35 -27 64 111 11 96 83 vhcurveto
          531 vlineto
          -45 0 0 -23 hvcurveto
          endchar
        </CharString>
        <CharString name="K">
          9 21 -21 700 -20 hstem
          59 45 vstem
          365 682 rmoveto
          2 4 1 3 2 vvcurveto
          6 -6 3 -13 -8 -10 0 -2 -10 vhcurveto
          -217 -301 rlineto
          303 vlineto
          -45 0 0 -12 hvcurveto
          -688 vlineto
          45 0 0 12 hvcurveto
          352 vlineto
          18 -7 18 -10 16 -16 55 -55 50 -80 63 -196 rrcurveto
          -1 9 10 0 9 hhcurveto
          12 6 3 7 hvcurveto
          2 -1 2 2 vvcurveto
          -57 207 -78 121 -85 51 rrcurveto
          endchar
        </CharString>
        <CharString name="Kacy">
          33 21 -21 343 44 313 -20 hstem
          69 46 vstem
          257 472 rmoveto
          -56 -17 -31 -29 -33 hhcurveto
          -61 313 hlineto
          -46 0 0 -12 hvcurveto
          -688 vlineto
          46 0 0 12 hvcurveto
          331 56 vlineto
          45 42 -44 -89 20 hvcurveto
          51 -210 rlineto
          -1 9 10 0 9 hhcurveto
          13 7 2 8 hvcurveto
          2 -1 2 2 vvcurveto
          -52 206 -16 71 -32 52 -44 24 rlinecurve
          27 15 26 33 15 47 69 219 rcurveline
          1 4 1 4 2 vvcurveto
          6 -4 2 -13 -9 -10 0 -2 -10 vhcurveto
          endchar
        </CharString>
        <CharString name="Kadescendercy">
          38 -1 44 306 44 307 -20 hstem
          69 46 261 43 vstem
          257 478 rmoveto
          -56 -18 -30 -29 -33 hhcurveto
          -61 307 hlineto
          -46 0 0 -12 hvcurveto
          -688 vlineto
          46 0 0 12 hvcurveto
          337 56 vlineto
          45 43 -44 -89 19 hvcurveto
          51 -216 47 -1 1 -36 3 -61 11 -61 rlinecurve
          17 11 1 11 hvcurveto
          190 -47 vlineto
          -48 185 -15 70 -33 52 -44 24 rlinecurve
          27 15 25 33 16 47 69 213 rcurveline
          1 4 1 4 2 vvcurveto
          6 -4 2 -13 -9 -10 0 -2 -10 vhcurveto
          endchar
        </CharString>
        <CharString name="Kcommaaccent">
          9 21 -21 700 -20 hstem
          59 45 vstem
          365 682 rmoveto
          12 8 -5 6 -19 hhcurveto
          -8 -10 0 -2 -10 hvcurveto
          -217 -301 rlineto
          303 vlineto
          -45 0 0 -12 hvcurveto
          -688 vlineto
          45 0 0 12 hvcurveto
          352 vlineto
          18 -7 18 -10 16 -16 55 -55 50 -80 63 -196 rrcurveto
          -1 9 10 0 9 hhcurveto
          15 5 4 12 -3 hvcurveto
          -57 207 -78 121 -85 51 rrcurveto
          47 -450 rmoveto
          -21 -14 -15 -22 -16 6 -13 12 -7 hvcurveto
          -1 -31 -7 -29 -22 -37 rrcurveto
          -10 2 9 -6 8 hhcurveto
          16 47 82 61 33 -13 10 -22 hvcurveto
          endchar
        </CharString>
        <CharString name="Kjecy">
          33 21 -21 343 44 313 -20 hstem
          69 46 vstem
          166 772 rmoveto
          60 40 75 60 6 7 rrcurveto
          9 -1 -9 28 -12 hhcurveto
          -3 -76 -59 -58 -58 hvcurveto
          0 11 -27 7 vhcurveto
          91 -300 rmoveto
          -56 -17 -31 -29 -33 hhcurveto
          -61 313 hlineto
          -46 0 0 -12 hvcurveto
          -688 vlineto
          46 0 0 12 hvcurveto
          331 56 vlineto
          45 42 -44 -89 20 hvcurveto
          51 -210 rlineto
          -1 9 10 0 9 hhcurveto
          16 6 2 14 -3 hvcurveto
          -52 206 -16 71 -32 52 -44 24 rlinecurve
          27 15 26 33 15 47 69 219 rcurveline
          14 4 -1 4 -18 hhcurveto
          -9 -10 0 -2 -10 hvcurveto
          endchar
        </CharString>
        <CharString name="L">
          -50 0 42 658 -20 hstem
          59 46 vstem
          105 42 rmoveto
          658 vlineto
          -45 -1 0 -18 hvcurveto
          -682 242 vlineto
          8 5 2 10 hvcurveto
          30 vlineto
          endchar
        </CharString>
        <CharString name="Lacute">
          -50 0 42 658 -20 hstem
          59 46 vstem
          93 772 rmoveto
          61 40 74 60 6 7 rrcurveto
          9 -1 -9 28 -12 hhcurveto
          -2 -76 -59 -58 -59 hvcurveto
          0 11 -27 7 vhcurveto
          12 -730 rmoveto
          658 vlineto
          -45 -1 0 -18 hvcurveto
          -682 242 vlineto
          8 5 2 10 hvcurveto
          30 vlineto
          endchar
        </CharString>
        <CharString name="Lcaron">
          -37 0 42 658 -20 hstem
          59 46 vstem
          105 42 rmoveto
          658 vlineto
          -45 -1 0 -18 hvcurveto
          -682 242 vlineto
          8 5 2 10 hvcurveto
          30 vlineto
          -84 588 rmoveto
          -16 7 -13 11 -7 vhcurveto
          -31 -5 -52 -17 -37 vhcurveto
          -10 2 9 -6 8 hhcurveto
          16 40 105 61 33 -14 10 -22 -21 -14 -15 -22 hvcurveto
          endchar
        </CharString>
        <CharString name="Lcommaaccent">
          -50 0 42 658 -20 hstem
          59 46 vstem
          105 42 rmoveto
          658 vlineto
          -45 -1 0 -18 hvcurveto
          -682 242 vlineto
          8 5 2 10 hvcurveto
          30 vlineto
          -182 -135 rmoveto
          -16 6 -13 12 -7 vhcurveto
          -31 -8 -29 -22 -37 vhcurveto
          -10 2 9 -6 8 hhcurveto
          16 47 82 61 33 -13 10 -22 -21 -14 -15 -22 hvcurveto
          endchar
        </CharString>
        <CharString name="Ldot">
          -36 0 42 241 81 336 -20 hstem
          59 46 vstem
          105 42 rmoveto
          658 vlineto
          -45 -1 0 -18 hvcurveto
          -682 242 vlineto
          8 5 2 10 hvcurveto
          30 vlineto
          -122 282 rmoveto
          -25 12 -16 26 23 16 18 23 22 -14 18 -25 -24 -14 -19 -21 vhcurveto
          endchar
        </CharString>
        <CharString name="Ljecy">
          265 0 41 319 44 253 43 hstem
          329 45 206 50 vstem
          374 404 rmoveto
          296 -200 vlineto
          -39 -3 -1 -14 hvcurveto
          -27 -456 -16 -192 -89 -4 rrcurveto
          -1 -5 0 -4 -3 vvcurveto
          -20 11 -5 15 97 28 227 434 25 vhcurveto
          154 -657 117 hlineto
          118 66 87 139 121 -50 57 -120 hvcurveto
          -86 -44 rmoveto
          83 hlineto
          88 35 -40 -98 -114 -42 -67 -96 -23 -21 0 1 -24 hvcurveto
          endchar
        </CharString>
        <CharString name="Lslash">
          -45 0 42 658 -20 hstem
          64 46 vstem
          110 42 rmoveto
          310 vlineto
          100 35 rlineto
          6 2 2 3 0 6 0 6 -3 10 -5 17 50 flex
          -100 -35 rlineto
          304 vlineto
          -46 0 0 -18 hvcurveto
          -302 vlineto
          -48 -17 rlineto
          -5 -2 -3 -3 0 -6 0 -7 3 -10 5 -16 50 flex
          48 17 rlineto
          -336 242 vlineto
          12 0 12 0 hvcurveto
          30 vlineto
          endchar
        </CharString>
        <CharString name="M">
          120 21 -21 700 -20 hstem
          59 45 295 44 vstem
          286 327 rmoveto
          -35 -119 rlineto
          0 -32 108 -5 15 vhcurveto
          -114 369 rlineto
          -29 hlineto
          -7 -5 -2 -10 hvcurveto
          -688 vlineto
          43 2 0 12 hvcurveto
          302 vlineto
          -2 33 -4 178 -2 56 80 -258 rcurveline
          57 -185 rlineto
          23 hlineto
          4 5 2 7 2 hvcurveto
          59 176 3 9 53 175 23 76 rlinecurve
          -6 -277 rlineto
          -306 vlineto
          44 0 0 12 hvcurveto
          688 -33 vlineto
          -9 -2 -9 -3 -1 hvcurveto
          endchar
        </CharString>
        <CharString name="N">
          79 21 -21 700 -20 hstem
          59 45 253 45 vstem
          357 449 rmoveto
          -15 1 -271 2 -70 vhcurveto
          -31 74 -97 234 -8 21 -122 278 rcurveline
          -31 hlineto
          -8 -4 -4 -8 hvcurveto
          -688 vlineto
          45 0 0 12 hvcurveto
          246 vlineto
          14 -1 257 -2 80 vhcurveto
          133 -326 125 -283 rlineto
          30 hlineto
          8 5 4 8 hvcurveto
          688 vlineto
          -45 0 0 -12 hvcurveto
          endchar
        </CharString>
        <CharString name="Nacute">
          79 21 -21 700 -20 hstem
          59 45 253 45 vstem
          171 772 rmoveto
          61 40 74 60 6 7 rrcurveto
          9 -1 -9 28 -12 hhcurveto
          -3 -75 -59 -58 -59 hvcurveto
          0 11 -27 7 vhcurveto
          186 -323 rmoveto
          -15 1 -271 2 -70 vhcurveto
          -31 74 -97 234 -8 21 -122 278 rcurveline
          -31 hlineto
          -8 -4 -4 -8 hvcurveto
          -688 vlineto
          45 0 0 12 hvcurveto
          246 vlineto
          14 -1 257 -2 80 vhcurveto
          133 -326 125 -283 rlineto
          30 hlineto
          8 5 4 8 hvcurveto
          688 vlineto
          -45 0 0 -12 hvcurveto
          endchar
        </CharString>
        <CharString name="Ncaron">
          79 21 -21 700 -20 hstem
          59 45 253 45 vstem
          238 775 rmoveto
          13 95 109 13 8 -8 8 -11 7 hvcurveto
          0 -49 -50 -40 -51 vhcurveto
          0 -87 98 -12 -11 -11 -20 -8 -3 vhcurveto
          -7 6 102 -107 16 hhcurveto
          119 -326 rmoveto
          -15 1 -271 2 -70 vhcurveto
          -31 74 -97 234 -8 21 -122 278 rcurveline
          -31 hlineto
          -8 -4 -4 -8 hvcurveto
          -688 vlineto
          45 0 0 12 hvcurveto
          246 vlineto
          14 -1 257 -2 80 vhcurveto
          133 -326 125 -283 rlineto
          30 hlineto
          8 5 4 8 hvcurveto
          688 vlineto
          -45 0 0 -12 hvcurveto
          endchar
        </CharString>
        <CharString name="Ncommaaccent">
          79 21 -21 700 -20 hstem
          59 45 253 45 vstem
          357 449 rmoveto
          -15 1 -271 2 -70 vhcurveto
          -31 74 -97 234 -8 21 -122 278 rcurveline
          -31 hlineto
          -8 -4 -4 -8 hvcurveto
          -688 vlineto
          45 0 0 12 hvcurveto
          246 vlineto
          14 -1 257 -2 80 vhcurveto
          133 -326 125 -283 rlineto
          30 hlineto
          8 5 4 8 hvcurveto
          688 vlineto
          -45 0 0 -12 hvcurveto
          -127 -744 rmoveto
          -21 -14 -15 -22 -16 7 -13 11 -7 hvcurveto
          -31 -7 -29 -23 -37 vhcurveto
          -10 3 9 -6 8 hhcurveto
          16 47 82 61 33 -13 10 -23 hvcurveto
          endchar
        </CharString>
        <CharString name="Njecy">
          283 0 41 319 44 296 -20 hstem
          69 45 233 45 206 49 vstem
          392 404 rmoveto
          296 vlineto
          -44 -1 0 -12 hvcurveto
          -284 -233 296 vlineto
          -44 -1 0 -12 hvcurveto
          -688 vlineto
          45 0 0 12 hvcurveto
          348 233 -360 116 vlineto
          119 65 87 139 121 -49 57 -120 hvcurveto
          -86 -44 rmoveto
          82 hlineto
          89 35 -40 -98 -114 -42 -67 -96 -24 -22 1 1 -22 hvcurveto
          endchar
        </CharString>
        <CharString name="Ntilde">
          79 21 -21 700 -20 102 45 hstem
          59 45 253 45 vstem
          114 790 rmoveto
          10 15 47 39 35 4 -55 58 hhcurveto
          58 28 44 22 11 hvcurveto
          0 -9 26 -11 vhcurveto
          -12 -7 -47 -53 -44 -2 52 -47 hhcurveto
          -35 -31 -13 -53 -32 hvcurveto
          0 12 -23 13 vhcurveto
          243 -341 rmoveto
          -15 1 -271 2 -70 vhcurveto
          -31 74 -97 234 -8 21 -122 278 rcurveline
          -31 hlineto
          -8 -4 -4 -8 hvcurveto
          -688 vlineto
          45 0 0 12 hvcurveto
          246 vlineto
          14 -1 257 -2 80 vhcurveto
          133 -326 125 -283 rlineto
          30 hlineto
          8 5 4 8 hvcurveto
          688 vlineto
          -45 0 0 -12 hvcurveto
          endchar
        </CharString>
        <CharString name="O">
          71 -10 46 628 46 hstem
          41 49 274 47 vstem
          41 355 rmoveto
          -280 54 -85 128 132 56 98 268 263 -48 91 -129 -130 -63 -97 -258 vhcurveto
          49 -15 rmoveto
          239 46 85 97 94 37 -77 -230 -236 -41 -85 -99 -96 -38 82 222 vhcurveto
          endchar
        </CharString>
        <CharString name="OE">
          259 0 42 320 42 254 42 hstem
          40 49 266 49 vstem
          404 42 rmoveto
          320 174 vlineto
          11 0 7 35 hvcurveto
          -185 254 197 hlineto
          10 0 5 37 hvcurveto
          -235 hlineto
          -12 0 -12 0 hvcurveto
          -55 vlineto
          54 -27 -43 23 -63 hhcurveto
          -130 -61 -99 -257 -278 54 -86 128 67 46 26 62 29 hvcurveto
          -78 236 vlineto
          10 0 4 38 hvcurveto
          -388 -7 rmoveto
          -95 -38 83 222 239 46 87 96 95 29 -79 -230 -236 -33 -86 -100 hvcurveto
          endchar
        </CharString>
        <CharString name="Oacute">
          71 -10 46 628 46 hstem
          41 49 274 47 vstem
          167 772 rmoveto
          61 40 74 60 6 7 rrcurveto
          9 -1 -9 28 -12 hhcurveto
          -3 -75 -59 -58 -59 hvcurveto
          0 11 -27 7 vhcurveto
          -126 -417 rmoveto
          -280 54 -85 128 132 56 98 268 263 -48 91 -129 -130 -63 -97 -258 vhcurveto
          49 -15 rmoveto
          239 46 85 97 94 37 -77 -230 -236 -41 -85 -99 -96 -38 82 222 vhcurveto
          endchar
        </CharString>
        <CharString name="Ocircumflex">
          71 -10 46 628 46 hstem
          41 49 274 47 vstem
          108 791 rmoveto
          -5 4 9 -12 19 hhcurveto
          10 80 88 0 hvcurveto
          4 -9 76 -80 0 vvcurveto
          18 17 13 6 6 -96 97 0 hvcurveto
          6 -6 -7 2 -5 hhcurveto
          -5 -4 -1 -1 -3 hvcurveto
          -178 -546 rmoveto
          -280 54 -85 128 132 56 98 268 263 -48 91 -129 -130 -63 -97 -258 vhcurveto
          49 -15 rmoveto
          239 46 85 97 94 37 -77 -230 -236 -41 -85 -99 -96 -38 82 222 vhcurveto
          endchar
        </CharString>
        <CharString name="Ocy">
          75 -10 46 628 46 hstem
          44 48 274 48 vstem
          44 355 rmoveto
          -280 53 -85 128 132 57 98 268 263 -48 91 -130 -129 -63 -97 -258 vhcurveto
          48 -15 rmoveto
          239 46 85 97 94 37 -77 -230 -236 -41 -85 -99 -95 -39 82 222 vhcurveto
          endchar
        </CharString>
        <CharString name="Odieresis">
          71 -10 46 628 46 hstem
          41 49 274 47 vstem
          41 355 rmoveto
          -280 54 -85 128 132 56 98 268 263 -48 91 -129 -130 -63 -97 -258 vhcurveto
          49 -15 rmoveto
          239 46 85 97 94 37 -77 -230 -236 -41 -85 -99 -96 -38 82 222 vhcurveto
          85 537 rmoveto
          -19 -9 -14 -25 -1 hvcurveto
          -27 8 -12 17 20 9 14 25 vhcurveto
          26 1 -7 13 -19 hhcurveto
          107 hmoveto
          -19 -9 -14 -25 -1 hvcurveto
          -27 -1 9 -12 17 hhcurveto
          20 8 14 25 1 hvcurveto
          26 1 -7 13 -19 hhcurveto
          endchar
        </CharString>
        <CharString name="Ograve">
          71 -10 46 628 46 hstem
          41 49 274 47 vstem
          171 913 rmoveto
          -12 -8 -28 -9 -2 hvcurveto
          6 -6 75 -60 61 -40 rrcurveto
          6 11 26 0 hvcurveto
          59 -58 -76 58 -3 hhcurveto
          -130 -558 rmoveto
          -280 54 -85 128 132 56 98 268 263 -48 91 -129 -130 -63 -97 -258 vhcurveto
          49 -15 rmoveto
          239 46 85 97 94 37 -77 -230 -236 -41 -85 -99 -96 -38 82 222 vhcurveto
          endchar
        </CharString>
        <CharString name="Ohm">
          88 0 43 621 46 hstem
          52 46 275 45 vstem
          402 hmoveto
          11 6 10 12 8 -2 8 -1 5 hvcurveto
          -87 hlineto
          35 44 54 113 179 vvcurveto
          238 -45 93 -128 -131 -62 -99 -237 -169 49 -111 36 -51 vhcurveto
          -70 hlineto
          -12 -5 -12 -11 -7 2 -7 1 -6 hvcurveto
          146 hlineto
          -50 59 -51 150 151 vvcurveto
          229 48 75 94 92 41 -77 -231 -154 -57 -139 -50 -63 vhcurveto
          endchar
        </CharString>
        <CharString name="Ohungarumlaut">
          71 -10 46 628 46 hstem
          41 49 274 47 vstem
          41 355 rmoveto
          -280 54 -85 128 132 56 98 268 263 -48 91 -129 -130 -63 -97 -258 vhcurveto
          49 -15 rmoveto
          239 46 85 97 94 37 -77 -230 -236 -41 -85 -99 -96 -38 82 222 vhcurveto
          137 580 rmoveto
          -3 -1 -55 -67 -38 -63 rrcurveto
          0 17 -23 7 2 vhcurveto
          45 48 53 67 4 7 -4 8 -14 25 -12 -3 rrcurveto
          109 hmoveto
          -3 -1 -54 -67 -39 -63 rrcurveto
          0 17 -23 7 2 vhcurveto
          46 48 52 67 4 7 -4 8 -14 25 -12 -3 rrcurveto
          endchar
        </CharString>
        <CharString name="Omacron">
          71 -10 46 628 46 100 44 hstem
          41 49 274 47 vstem
          334 810 rmoveto
          11 6 9 14 1 hvcurveto
          6 -1 7 -2 8 vhcurveto
          -229 hlineto
          -12 -7 -9 -13 -7 0 -7 2 -8 hvcurveto
          -62 -455 rmoveto
          -280 54 -85 128 132 56 98 268 263 -48 91 -129 -130 -63 -97 -258 vhcurveto
          49 -15 rmoveto
          239 46 85 97 94 37 -77 -230 -236 -41 -85 -99 -96 -38 82 222 vhcurveto
          endchar
        </CharString>
        <CharString name="Omega">
          88 0 43 621 46 hstem
          52 46 275 45 vstem
          402 hmoveto
          11 6 10 12 8 -2 8 -1 5 hvcurveto
          -87 hlineto
          35 44 54 113 179 vvcurveto
          238 -45 93 -128 -131 -62 -99 -237 -169 49 -111 36 -51 vhcurveto
          -70 hlineto
          -12 -5 -12 -11 -7 2 -7 1 -6 hvcurveto
          146 hlineto
          -50 59 -51 150 151 vvcurveto
          229 48 75 94 92 41 -77 -231 -154 -57 -139 -50 -63 vhcurveto
          endchar
        </CharString>
        <CharString name="Oslash">
          73 -10 46 629 45 hstem
          43 48 274 47 vstem
          373 628 rmoveto
          9 26 17 46 4 vvcurveto
          -3 13 -28 2 0 vvcurveto
          -2 -3 -10 -26 -9 -24 rrcurveto
          31 -28 -37 13 -49 hhcurveto
          -130 -60 -97 -258 -137 12 -91 29 -56 hvcurveto
          -10 -23 -20 -47 1 -2 rrcurveto
          -14 2 22 -2 6 hhcurveto
          22 53 rlineto
          -33 28 39 -13 50 hhcurveto
          132 56 98 268 129 -12 88 -27 55 hvcurveto
          -255 -517 rmoveto
          -19 49 -8 74 106 vvcurveto
          239 46 86 96 36 27 -11 -26 21 vhcurveto
          -95 -592 rmoveto
          -36 -27 11 27 -21 hvcurveto
          31 79 123 319 45 118 rrcurveto
          19 -48 9 -75 -110 vvcurveto
          -249 -46 -72 -97 vhcurveto
          endchar
        </CharString>
        <CharString name="Otilde">
          71 -10 46 628 46 72 45 hstem
          41 49 274 47 vstem
          85 813 rmoveto
          0 12 -23 13 vhcurveto
          10 15 47 40 34 4 -55 58 hhcurveto
          58 28 44 22 11 hvcurveto
          0 -8 26 -12 vhcurveto
          -12 -7 -47 -53 -44 -2 52 -46 hhcurveto
          -36 -31 -13 -53 -32 hvcurveto
          -44 -458 rmoveto
          -280 54 -85 128 132 56 98 268 263 -48 91 -129 -130 -63 -97 -258 vhcurveto
          49 -15 rmoveto
          239 46 85 97 94 37 -77 -230 -236 -41 -85 -99 -96 -38 82 222 vhcurveto
          endchar
        </CharString>
        <CharString name="P">
          -9 21 -21 301 42 316 41 hstem
          59 45 196 48 vstem
          71 700 rmoveto
          -8 -4 -4 -8 hvcurveto
          -688 vlineto
          45 0 0 12 hvcurveto
          289 68 vlineto
          107 69 65 146 109 -45 79 -126 hvcurveto
          -73 -357 rmoveto
          316 75 vlineto
          94 27 -64 -79 -111 -40 -62 -86 hvcurveto
          endchar
        </CharString>
        <CharString name="Pecy">
          68 21 -21 657 43 hstem
          69 45 222 44 vstem
          114 657 rmoveto
          222 -657 hlineto
          43 1 0 12 hvcurveto
          688 -266 vlineto
          -43 -2 0 -12 hvcurveto
          -688 vlineto
          44 1 0 12 hvcurveto
          endchar
        </CharString>
        <CharString name="Pi">
          68 21 -21 657 43 hstem
          69 45 222 44 vstem
          114 657 rmoveto
          222 -657 hlineto
          43 1 0 12 hvcurveto
          688 -266 vlineto
          -43 -2 0 -12 hvcurveto
          -688 vlineto
          44 1 0 12 hvcurveto
          endchar
        </CharString>
        <CharString name="Q">
          71 -132 38 88 42 628 46 hstem
          41 49 274 47 vstem
          327 -94 rmoveto
          -34 -17 20 68 -13 hvcurveto
          103 19 45 104 239 vvcurveto
          263 -48 91 -129 -130 -63 -97 -258 -273 51 -88 121 -4 vhcurveto
          -88 19 31 -34 56 hhcurveto
          38 43 11 19 7 -2 12 -6 6 hvcurveto
          -10 -16 -21 -7 -28 hhcurveto
          -237 434 rmoveto
          239 46 85 97 94 37 -77 -230 -236 -41 -85 -99 -96 -38 82 222 vhcurveto
          endchar
        </CharString>
        <CharString name="R">
          -2 21 -21 301 42 316 41 hstem
          59 45 196 48 vstem
          71 700 rmoveto
          -12 0 -12 0 hvcurveto
          -688 vlineto
          44 1 0 12 hvcurveto
          289 68 vlineto
          7 8 0 1 7 hvcurveto
          21 -26 61 -90 21 -186 25 -1 rcurveline
          18 1 4 2 9 vvcurveto
          3 vlineto
          -16 159 -61 100 -28 38 rrcurveto
          68 24 41 65 112 vvcurveto
          109 -45 79 -126 vhcurveto
          -73 -357 rmoveto
          316 75 vlineto
          94 27 -64 -81 -109 -40 -62 -86 hvcurveto
          endchar
        </CharString>
        <CharString name="Racute">
          -2 21 -21 301 42 316 41 hstem
          59 45 196 48 vstem
          111 772 rmoveto
          61 40 75 60 6 7 rrcurveto
          9 -2 -8 28 -12 hhcurveto
          -3 -76 -59 -58 -59 hvcurveto
          0 11 -27 7 vhcurveto
          -40 -72 rmoveto
          -12 0 -12 0 hvcurveto
          -688 vlineto
          44 1 0 12 hvcurveto
          289 68 vlineto
          7 8 0 1 7 hvcurveto
          21 -26 61 -90 21 -186 25 -1 rcurveline
          20 1 2 3 11 vvcurveto
          -16 159 -61 100 -28 38 rrcurveto
          68 24 41 65 112 vvcurveto
          109 -45 79 -126 vhcurveto
          -73 -357 rmoveto
          316 75 vlineto
          94 27 -64 -81 -109 -40 -62 -86 hvcurveto
          endchar
        </CharString>
        <CharString name="Rcaron">
          -2 21 -21 301 42 316 41 hstem
          59 45 196 48 vstem
          178 775 rmoveto
          13 95 109 13 8 -7 8 -12 7 hvcurveto
          0 -48 -50 -41 -51 vhcurveto
          0 -87 98 -12 -10 -12 -20 -8 -2 vhcurveto
          -7 5 103 -107 15 hhcurveto
          -107 -75 rmoveto
          -12 0 -12 0 hvcurveto
          -688 vlineto
          44 1 0 12 hvcurveto
          289 68 vlineto
          7 8 0 1 7 hvcurveto
          21 -26 61 -90 21 -186 25 -1 rcurveline
          20 1 2 3 11 vvcurveto
          -16 159 -61 100 -28 38 rrcurveto
          68 24 41 65 112 vvcurveto
          109 -45 79 -126 vhcurveto
          -73 -357 rmoveto
          316 75 vlineto
          94 27 -64 -81 -109 -40 -62 -86 hvcurveto
          endchar
        </CharString>
        <CharString name="Rcommaaccent">
          -2 21 -21 301 42 316 41 hstem
          59 45 196 48 vstem
          71 700 rmoveto
          -12 0 -12 0 hvcurveto
          -688 vlineto
          44 1 0 12 hvcurveto
          289 68 vlineto
          7 8 0 1 7 hvcurveto
          21 -26 61 -90 21 -186 25 -1 rcurveline
          20 1 2 3 11 vvcurveto
          -16 159 -61 100 -28 38 rrcurveto
          68 24 41 65 112 vvcurveto
          109 -45 79 -126 vhcurveto
          -73 -357 rmoveto
          316 75 vlineto
          94 27 -64 -81 -109 -40 -62 -86 hvcurveto
          17 -399 rmoveto
          -21 -14 -15 -22 -16 6 -13 12 -7 hvcurveto
          -31 -8 -29 -22 -37 vhcurveto
          -10 2 9 -6 9 hhcurveto
          15 48 82 61 33 -14 10 -22 hvcurveto
          endchar
        </CharString>
        <CharString name="S">
          -8 -10 45 634 41 hstem
          39 47 208 47 vstem
          220 325 rmoveto
          56 -58 18 -41 -60 vvcurveto
          -77 -37 -54 -91 -61 -33 18 19 -21 vhcurveto
          -10 -8 -5 -13 -10 vvcurveto
          -19 39 -32 93 123 50 77 103 68 -17 46 -57 61 vhcurveto
          -123 123 rlineto
          -34 36 -24 32 43 vvcurveto
          54 47 36 72 56 39 -16 -13 16 vhcurveto
          8 8 5 11 9 vvcurveto
          19 -37 23 -88 -105 -60 -55 -77 -51 25 -41 45 -49 vhcurveto
          endchar
        </CharString>
        <CharString name="Sacute">
          -8 -10 45 634 41 hstem
          39 47 208 47 vstem
          128 772 rmoveto
          61 40 74 60 6 7 rrcurveto
          9 -1 -9 28 -12 hhcurveto
          -3 -75 -59 -58 -59 hvcurveto
          0 11 -27 7 vhcurveto
          92 -447 rmoveto
          56 -58 18 -41 -60 vvcurveto
          -77 -37 -54 -91 -61 -33 18 19 -21 vhcurveto
          -10 -8 -5 -13 -10 vvcurveto
          -19 39 -32 93 123 50 77 103 68 -17 46 -57 61 vhcurveto
          -123 123 rlineto
          -34 36 -24 32 43 vvcurveto
          54 47 36 72 56 39 -16 -13 16 vhcurveto
          8 8 5 11 9 vvcurveto
          19 -37 23 -88 -105 -60 -55 -77 -51 25 -41 45 -49 vhcurveto
          endchar
        </CharString>
        <CharString name="Scaron">
          -8 -10 45 634 41 hstem
          39 47 208 47 vstem
          195 775 rmoveto
          13 95 109 13 8 -8 8 -11 7 hvcurveto
          0 -49 -50 -40 -51 vhcurveto
          0 -87 98 -12 -11 -11 -20 -8 -3 vhcurveto
          -7 6 102 -107 16 hhcurveto
          25 -450 rmoveto
          56 -58 18 -41 -60 vvcurveto
          -77 -37 -54 -91 -61 -33 18 19 -21 vhcurveto
          -10 -8 -5 -13 -10 vvcurveto
          -19 39 -32 93 123 50 77 103 68 -17 46 -57 61 vhcurveto
          -123 123 rlineto
          -34 36 -24 32 43 vvcurveto
          54 47 36 72 56 39 -16 -13 16 vhcurveto
          8 8 5 11 9 vvcurveto
          19 -37 23 -88 -105 -60 -55 -77 -51 25 -41 45 -49 vhcurveto
          endchar
        </CharString>
        <CharString name="Scedilla">
          -8 -188 31 71 27 49 45 634 41 hstem
          39 47 136 32 40 47 vstem
          144 468 rmoveto
          -34 36 -24 32 43 vvcurveto
          54 47 36 72 56 39 -16 -13 16 vhcurveto
          8 8 5 11 9 vvcurveto
          19 -37 23 -88 -105 -60 -55 -77 -51 25 -41 45 -49 vhcurveto
          111 -112 rlineto
          56 -58 18 -41 -60 vvcurveto
          -77 -37 -54 -91 -61 -33 18 19 -21 vhcurveto
          -10 -8 -5 -13 -10 vvcurveto
          -19 39 -32 91 vhcurveto
          -16 -81 rlineto
          0 18 5 19 19 16 -5 -30 -27 -16 -9 -20 -20 -17 14 -7 -6 vhcurveto
          -6 -6 -3 -23 0 vvcurveto
          0 24 -9 28 33 35 19 55 40 -25 15 -23 -15 -3 -1 0 vhcurveto
          11 52 rlineto
          101 12 41 72 94 vvcurveto
          68 -17 46 -57 61 vhcurveto
          endchar
        </CharString>
        <CharString name="Scommaaccent">
          -8 -10 45 634 41 hstem
          39 47 66 70 72 47 vstem
          220 325 rmoveto
          56 -58 18 -41 -60 vvcurveto
          -77 -37 -54 -91 -61 -33 18 19 -21 vhcurveto
          -10 -8 -5 -13 -10 vvcurveto
          -19 39 -32 93 123 50 77 103 68 -17 46 -57 61 vhcurveto
          -123 123 rlineto
          -34 36 -24 32 43 vvcurveto
          54 47 36 72 56 39 -16 -13 16 vhcurveto
          8 8 5 11 9 vvcurveto
          19 -37 23 -88 -105 -60 -55 -77 -51 25 -41 45 -49 vhcurveto
          43 -530 rmoveto
          -16 6 -13 12 -7 vhcurveto
          -1 -31 -7 -29 -22 -37 rrcurveto
          -10 2 9 -6 8 hhcurveto
          16 47 82 61 33 -13 10 -22 -21 -14 -15 -22 hvcurveto
          endchar
        </CharString>
        <CharString name="Shacy">
          232 0 43 657 -20 hstem
          69 45 170 45 171 44 vstem
          69 hmoveto
          413 hlineto
          51 11 0 25 hvcurveto
          675 vlineto
          -43 -1 0 -12 hvcurveto
          -645 -171 657 vlineto
          -44 -1 0 -12 hvcurveto
          -645 -170 657 vlineto
          -44 -1 0 -12 hvcurveto
          endchar
        </CharString>
        <CharString name="Shchacy">
          236 0 43 657 -20 hstem
          69 45 170 45 171 44 vstem
          596 43 rmoveto
          -52 657 hlineto
          -43 -1 0 -12 hvcurveto
          -645 -171 657 vlineto
          -44 -1 0 -12 hvcurveto
          -645 -170 657 vlineto
          -44 -1 0 -12 hvcurveto
          -688 484 vlineto
          1 -36 3 -62 11 -61 rrcurveto
          17 11 1 11 hvcurveto
          endchar
        </CharString>
        <CharString name="ShortIcy">
          91 21 -21 700 -20 100 33 hstem
          69 44 248 43 vstem
          143 909 rmoveto
          -19 -4 -16 -6 1 -14 rrcurveto
          -39 4 33 -66 89 hhcurveto
          78 30 42 63 22 hvcurveto
          -3 17 -33 14 -5 -17 rrcurveto
          -56 -16 -17 -30 -54 hhcurveto
          -63 -23 50 46 -8 hvcurveto
          88 -627 rmoveto
          63 148 47 112 30 86 rrcurveto
          -7 -106 -3 -98 -169 vvcurveto
          -255 vlineto
          41 2 0 12 hvcurveto
          688 vlineto
          -25 -11 2 -15 -8 hvcurveto
          -113 -270 -70 -164 -48 -105 -23 -73 rlinecurve
          5 77 2 52 83 vvcurveto
          413 vlineto
          -44 0 0 -12 hvcurveto
          -688 vlineto
          27 12 -2 15 7 hvcurveto
          endchar
        </CharString>
        <CharString name="Softsigncy">
          8 0 41 319 44 296 -20 hstem
          69 45 206 50 vstem
          114 404 rmoveto
          296 vlineto
          -40 -5 0 -16 hvcurveto
          -684 117 vlineto
          118 66 87 139 121 -49 57 -120 hvcurveto
          -87 -44 rmoveto
          83 hlineto
          89 34 -40 -98 -114 -42 -67 -95 hvcurveto
          -69 2 rlineto
          endchar
        </CharString>
        <CharString name="T">
          -17 21 -21 657 43 hstem
          158 45 vstem
          19 700 rmoveto
          -9 -4 -4 -8 hvcurveto
          -31 152 -657 vlineto
          44 1 0 12 hvcurveto
          645 143 vlineto
          10 3 4 8 hvcurveto
          31 vlineto
          endchar
        </CharString>
        <CharString name="Tcaron">
          -17 21 -21 657 43 hstem
          158 45 vstem
          190 775 rmoveto
          13 95 109 13 8 -8 8 -11 7 hvcurveto
          0 -49 -50 -40 -51 vhcurveto
          0 -87 98 -12 -11 -11 -20 -8 -2 vhcurveto
          -7 5 102 -107 16 hhcurveto
          -171 -75 rmoveto
          -9 -4 -4 -8 hvcurveto
          -31 152 -657 vlineto
          44 1 0 12 hvcurveto
          645 143 vlineto
          10 3 4 8 hvcurveto
          31 vlineto
          endchar
        </CharString>
        <CharString name="Tcedilla">
          -17 -188 31 71 27 80 -21 657 43 hstem
          158 45 vstem
          19 700 rmoveto
          -9 -4 -4 -8 hvcurveto
          -31 152 -657 4 vlineto
          -18 -91 rlineto
          0 17 5 20 18 16 -5 -30 -27 -15 -9 -20 -20 -17 14 -7 -6 vhcurveto
          -7 -6 -2 -23 0 vvcurveto
          0 23 -9 28 34 35 19 55 40 -25 15 -23 -15 -3 -1 0 vhcurveto
          12 61 rlineto
          9 1 0 3 7 vvcurveto
          645 143 vlineto
          10 3 4 8 hvcurveto
          31 vlineto
          endchar
        </CharString>
        <CharString name="Tcommaaccent">
          -17 21 -21 657 43 hstem
          158 45 vstem
          19 700 rmoveto
          -9 -4 -4 -8 hvcurveto
          -31 152 -657 vlineto
          44 1 0 12 hvcurveto
          645 143 vlineto
          10 3 4 8 hvcurveto
          31 vlineto
          -179 -756 rmoveto
          -21 -14 -15 -22 -16 7 -13 11 -7 hvcurveto
          -31 -8 -29 -22 -37 vhcurveto
          -10 2 9 -6 9 hhcurveto
          16 47 82 61 33 -14 10 -22 hvcurveto
          endchar
        </CharString>
        <CharString name="Tecy">
          -17 21 -21 657 43 hstem
          158 45 vstem
          19 700 rmoveto
          -9 -4 -4 -8 hvcurveto
          -31 152 -657 vlineto
          44 1 0 12 hvcurveto
          645 143 vlineto
          10 3 4 8 hvcurveto
          31 vlineto
          endchar
        </CharString>
        <CharString name="Thorn">
          -9 21 -21 162 43 315 42 138 -20 hstem
          59 45 196 48 vstem
          104 562 rmoveto
          138 -14 vlineto
          -23 -8 -1 -11 hvcurveto
          -688 vlineto
          43 2 0 12 hvcurveto
          150 68 vlineto
          107 69 66 146 109 -45 79 -126 hvcurveto
          -73 -42 rmoveto
          75 hlineto
          94 27 -63 -80 -110 -40 -62 -86 hvcurveto
          -70 1 rlineto
          endchar
        </CharString>
        <CharString name="Tsecy">
          76 0 43 657 -20 hstem
          69 45 225 45 vstem
          436 43 rmoveto
          -52 657 hlineto
          -44 -1 0 -12 hvcurveto
          -645 -225 657 vlineto
          -44 -1 0 -12 hvcurveto
          -688 324 vlineto
          -36 4 -62 10 -61 vhcurveto
          18 11 1 11 hvcurveto
          endchar
        </CharString>
        <CharString name="Tshecy">
          123 21 -21 469 41 147 43 hstem
          157 45 208 46 vstem
          202 657 rmoveto
          143 hlineto
          9 3 4 8 hvcurveto
          31 -338 vlineto
          -9 -4 -4 -8 hvcurveto
          -31 151 -657 vlineto
          44 1 0 12 hvcurveto
          432 vlineto
          17 33 52 8 32 hhcurveto
          75 16 -34 -75 hvcurveto
          -360 vlineto
          45 1 0 12 hvcurveto
          359 vlineto
          93 -27 46 -110 -41 -38 -8 -13 -38 vhcurveto
          endchar
        </CharString>
        <CharString name="U">
          85 -10 43 667 -20 hstem
          59 46 258 45 vstem
          105 700 rmoveto
          -46 0 0 -13 hvcurveto
          -468 vlineto
          -122 17 -107 164 72 69 17 17 27 vhcurveto
          676 vlineto
          -43 -2 0 -12 hvcurveto
          -632 vlineto
          -11 -22 -52 -12 -49 hhcurveto
          -122 -13 85 100 hvcurveto
          endchar
        </CharString>
        <CharString name="Uacute">
          85 -10 43 667 -20 hstem
          59 46 258 45 vstem
          174 772 rmoveto
          61 40 75 60 5 7 rrcurveto
          9 -1 -9 28 -12 hhcurveto
          -2 -76 -59 -58 -59 hvcurveto
          0 11 -27 7 vhcurveto
          -69 -72 rmoveto
          -46 0 0 -13 hvcurveto
          -468 vlineto
          -122 17 -107 164 72 69 17 17 27 vhcurveto
          676 vlineto
          -43 -2 0 -12 hvcurveto
          -632 vlineto
          -11 -22 -52 -12 -49 hhcurveto
          -122 -13 85 100 hvcurveto
          endchar
        </CharString>
        <CharString name="Ucircumflex">
          85 -10 43 667 -20 215 8 hstem
          59 46 258 45 vstem
          115 791 rmoveto
          -5 4 9 -12 19 hhcurveto
          10 80 88 0 hvcurveto
          4 -9 76 -80 0 vvcurveto
          18 17 13 6 6 -96 97 0 hvcurveto
          6 -6 -7 2 -5 hhcurveto
          -5 -4 -1 -1 -3 hvcurveto
          -121 -201 rmoveto
          -46 0 0 -13 hvcurveto
          -468 vlineto
          -122 17 -107 164 72 69 17 17 27 vhcurveto
          676 vlineto
          -43 -2 0 -12 hvcurveto
          -632 vlineto
          -11 -22 -52 -12 -49 hhcurveto
          -122 -13 85 100 hvcurveto
          endchar
        </CharString>
        <CharString name="Ucy">
          -5 -3 41 662 -20 hstem
          19 349 vstem
          368 700 rmoveto
          -31 hlineto
          -13 -2 -5 -12 -3 hvcurveto
          -77 -302 -20 -82 -14 -69 -9 -49 rlinecurve
          -10 49 -14 68 -24 92 -88 310 rcurveline
          -33 hlineto
          -7 -4 -1 -6 -3 2 -5 2 -8 hvcurveto
          12 -44 15 -53 15 -55 44 -159 49 -180 21 -63 rrcurveto
          -57 -14 -10 -28 -31 hhcurveto
          -18 -18 6 10 -14 hvcurveto
          -6 -10 -3 -9 -6 vvcurveto
          -2 0 -1 1 -1 vhcurveto
          -18 3 25 -10 29 hhcurveto
          66 14 51 72 19 hvcurveto
          endchar
        </CharString>
        <CharString name="Udieresis">
          85 -10 43 667 -20 119 78 hstem
          59 46 258 45 vstem
          182 877 rmoveto
          -19 -9 -14 -25 -1 hvcurveto
          -27 8 -12 17 20 9 14 25 vhcurveto
          26 1 -7 13 -19 hhcurveto
          107 hmoveto
          -19 -9 -14 -25 -1 hvcurveto
          -27 8 -12 18 19 9 14 25 vhcurveto
          26 1 -7 13 -19 hhcurveto
          -184 -177 rmoveto
          -46 0 0 -13 hvcurveto
          -468 vlineto
          -122 17 -107 164 72 69 17 17 27 vhcurveto
          676 vlineto
          -43 -2 0 -12 hvcurveto
          -632 vlineto
          -11 -22 -52 -12 -49 hhcurveto
          -122 -13 85 100 hvcurveto
          endchar
        </CharString>
        <CharString name="Ugrave">
          85 -10 43 667 -20 hstem
          59 46 258 45 vstem
          178 913 rmoveto
          -12 -8 -28 -9 -2 hvcurveto
          6 -6 75 -60 61 -40 rrcurveto
          6 11 26 0 hvcurveto
          59 -58 -76 58 -3 hhcurveto
          -73 -213 rmoveto
          -46 0 0 -13 hvcurveto
          -468 vlineto
          -122 17 -107 164 72 69 17 17 27 vhcurveto
          676 vlineto
          -43 -2 0 -12 hvcurveto
          -632 vlineto
          -11 -22 -52 -12 -49 hhcurveto
          -122 -13 85 100 hvcurveto
          endchar
        </CharString>
        <CharString name="Uhungarumlaut">
          85 -10 43 667 -20 hstem
          59 46 258 45 vstem
          234 920 rmoveto
          -3 -1 -55 -67 -38 -63 rrcurveto
          0 17 -23 7 2 vhcurveto
          45 48 53 67 4 7 -4 8 -14 25 -12 -3 rrcurveto
          109 hmoveto
          -3 -1 -54 -67 -39 -63 rrcurveto
          0 17 -23 7 2 vhcurveto
          46 48 53 67 3 7 -4 8 -14 25 -12 -3 rrcurveto
          -238 -220 rmoveto
          -46 0 0 -13 hvcurveto
          -468 vlineto
          -122 17 -107 164 72 69 17 17 27 vhcurveto
          676 vlineto
          -43 -2 0 -12 hvcurveto
          -632 vlineto
          -11 -22 -52 -12 -49 hhcurveto
          -122 -13 85 100 hvcurveto
          endchar
        </CharString>
        <CharString name="Umacron">
          85 -10 43 667 -20 130 44 hstem
          59 46 258 45 vstem
          341 810 rmoveto
          11 6 9 14 1 hvcurveto
          6 0 7 -3 8 vhcurveto
          -229 hlineto
          -12 -6 -9 -13 -1 hvcurveto
          -7 0 -7 2 -8 vhcurveto
          -5 -110 rmoveto
          -46 0 0 -13 hvcurveto
          -468 vlineto
          -122 17 -107 164 72 69 17 17 27 vhcurveto
          676 vlineto
          -43 -2 0 -12 hvcurveto
          -632 vlineto
          -11 -22 -52 -12 -49 hhcurveto
          -122 -13 85 100 hvcurveto
          endchar
        </CharString>
        <CharString name="Uogonek">
          85 -195 36 149 43 667 -20 hstem
          59 46 176 42 40 45 vstem
          408 700 rmoveto
          -43 -2 0 -12 hvcurveto
          -633 vlineto
          -10 -22 -52 -12 -49 hhcurveto
          -122 -13 85 100 hvcurveto
          482 vlineto
          -46 0 0 -13 hvcurveto
          -468 vlineto
          -122 17 -107 164 33 34 4 6 27 vhcurveto
          -27 -31 -26 -47 -37 vvcurveto
          -55 29 -25 45 27 22 7 16 7 -4 8 -4 7 vhcurveto
          -5 -9 -9 -4 -14 hhcurveto
          -29 -12 17 31 43 41 63 44 29 hvcurveto
          endchar
        </CharString>
        <CharString name="Uring">
          85 -10 43 667 -20 78 35 106 36 hstem
          59 46 41 37 102 36 42 45 vstem
          146 846 rmoveto
          -66 33 -22 52 57 33 30 58 67 -28 22 -56 -55 -36 -28 -61 vhcurveto
          37 -2 rmoveto
          42 20 13 35 30 17 -13 -39 -37 -20 -17 -34 -32 -16 19 32 vhcurveto
          -78 -144 rmoveto
          -46 0 0 -13 hvcurveto
          -468 vlineto
          -122 17 -107 164 72 69 17 17 27 vhcurveto
          676 vlineto
          -43 -2 0 -12 hvcurveto
          -632 vlineto
          -11 -22 -52 -12 -49 hhcurveto
          -122 -13 85 100 hvcurveto
          endchar
        </CharString>
        <CharString name="Ushortcy">
          -5 -3 41 662 -20 100 33 hstem
          19 349 vstem
          98 909 rmoveto
          -19 -4 -16 -6 1 -14 rrcurveto
          -39 4 34 -66 88 hhcurveto
          78 30 42 63 22 hvcurveto
          -3 17 -33 14 -5 -17 rrcurveto
          -56 -16 -16 -30 -55 hhcurveto
          -63 -23 50 46 -8 hvcurveto
          270 -209 rmoveto
          -31 hlineto
          -13 -2 -5 -12 -3 hvcurveto
          -77 -302 -20 -82 -14 -69 -9 -49 rlinecurve
          -10 49 -14 68 -24 92 -88 310 rcurveline
          -33 hlineto
          -7 -4 -1 -6 -3 2 -5 2 -8 hvcurveto
          48 -171 80 -298 28 -85 rrcurveto
          -57 -14 -10 -28 -31 hhcurveto
          -18 -18 6 10 -14 hvcurveto
          -7 -12 -3 -11 2 -6 3 -18 26 -11 29 1 rrcurveto
          65 14 51 72 19 hvcurveto
          endchar
        </CharString>
        <CharString name="Ustraitstrokecy">
          -22 21 -21 235 44 421 -20 hstem
          159 45 vstem
          204 279 rmoveto
          9 vlineto
          151 412 rlineto
          -46 -1 0 -9 -3 hvcurveto
          -48 -136 -29 -83 -44 -135 -1 -10 rlinecurve
          -1 10 -43 136 -31 82 -52 145 rcurveline
          -51 -2 0 -8 3 hvcurveto
          153 -405 rlineto
          -8 -82 vlineto
          -12 -6 -9 -13 -1 hvcurveto
          -7 0 -7 2 -8 vhcurveto
          99 -235 hlineto
          46 -1 0 12 hvcurveto
          223 87 vlineto
          11 6 9 14 1 hvcurveto
          6 -1 7 -2 8 vhcurveto
          endchar
        </CharString>
        <CharString name="V">
          39 12 -21 691 18 hstem
          5 412 vstem
          417 700 rmoveto
          -37 hlineto
          -10 -2 -7 -11 -2 hvcurveto
          -111 -440 -18 -77 -11 -62 -11 -61 rlinecurve
          -12 61 -11 61 -20 78 -122 458 rcurveline
          -34 hlineto
          -8 -3 -3 -4 -3 1 -3 1 -5 hvcurveto
          0 122 -465 45 -168 vhcurveto
          -35 9 9 -23 13 hhcurveto
          16 9 1 1 8 hvcurveto
          endchar
        </CharString>
        <CharString name="Vecy">
          31 0 41 320 41 257 41 hstem
          69 46 218 50 vstem
          69 hmoveto
          121 hlineto
          66 127 28 211 124 -80 21 -41 2 hvcurveto
          40 6 59 36 120 vvcurveto
          128 -91 24 -75 vhcurveto
          -101 hlineto
          -20 -5 -7 -10 hvcurveto
          46 -281 rmoveto
          257 78 vlineto
          60 61 -22 -95 -107 -52 -33 -63 hvcurveto
          -84 -361 rmoveto
          320 74 vlineto
          81 63 -7 -119 -152 -71 -42 -72 hvcurveto
          endchar
        </CharString>
        <CharString name="W">
          256 12 -21 709 -20 hstem
          5 630 vstem
          599 700 rmoveto
          -10 -2 -7 -11 -2 hvcurveto
          -90 -441 -10 -52 -6 -52 -6 -44 rlinecurve
          -2 -12 -1 -11 -2 -10 rrcurveto
          -3 hlineto
          -3 16 -2 16 -2 14 -6 40 -5 38 -13 57 -93 421 rcurveline
          -31 hlineto
          -2 hlineto
          -10 -1 -6 -11 -3 hvcurveto
          -82 -404 -13 -62 -9 -55 -6 -66 rlinecurve
          -3 hlineto
          -2 10 -1 9 -1 9 -8 47 -6 42 -13 66 -100 459 rcurveline
          -35 hlineto
          -8 -2 -4 -5 hvcurveto
          -3 1 -3 -3 vvcurveto
          137 -630 rlineto
          -38 7 8 -23 10 hhcurveto
          18 9 1 1 9 hvcurveto
          87 410 27 176 8 -49 17 -106 4 -23 rlinecurve
          85 -362 rlineto
          -29 6 8 -20 11 hhcurveto
          17 5 2 1 11 hvcurveto
          145 707 rlineto
          endchar
        </CharString>
        <CharString name="Wacute">
          256 12 -21 709 -20 hstem
          5 630 vstem
          260 772 rmoveto
          61 40 74 60 6 7 rrcurveto
          9 -1 -9 28 -12 hhcurveto
          -2 -76 -59 -58 -59 hvcurveto
          0 11 -27 7 vhcurveto
          339 -72 rmoveto
          -10 -2 -7 -11 -2 hvcurveto
          -90 -441 -12 -66 -8 -65 -7 -50 rlinecurve
          -3 hlineto
          -10 60 -4 42 -17 79 -93 421 rcurveline
          -31 hlineto
          -2 hlineto
          -10 -1 -6 -11 -3 hvcurveto
          -82 -404 -13 -62 -9 -55 -6 -66 rlinecurve
          -3 hlineto
          -10 61 -5 44 -16 78 -100 459 rcurveline
          -35 hlineto
          -11 1 -9 -9 1 hvcurveto
          137 -630 rlineto
          -38 7 8 -23 10 hhcurveto
          18 9 1 1 9 hvcurveto
          87 410 27 176 8 -49 17 -106 4 -23 rlinecurve
          85 -362 rlineto
          -29 6 8 -20 11 hhcurveto
          17 5 2 1 11 hvcurveto
          145 707 rlineto
          endchar
        </CharString>
        <CharString name="Wcircumflex">
          256 12 -21 709 -20 215 8 hstem
          5 630 vstem
          201 791 rmoveto
          -5 4 9 -12 19 hhcurveto
          10 80 88 0 hvcurveto
          4 -9 76 -80 0 vvcurveto
          18 17 13 6 6 -96 97 0 hvcurveto
          6 -6 -7 2 -5 hhcurveto
          -5 -4 -1 -1 -3 hvcurveto
          287 -201 rmoveto
          -10 -2 -7 -11 -2 hvcurveto
          -90 -441 -12 -66 -8 -65 -7 -50 rlinecurve
          -3 hlineto
          -10 60 -4 42 -17 79 -93 421 rcurveline
          -31 hlineto
          -2 hlineto
          -10 -1 -6 -11 -3 hvcurveto
          -82 -404 -13 -62 -9 -55 -6 -66 rlinecurve
          -3 hlineto
          -10 61 -5 44 -16 78 -100 459 rcurveline
          -35 hlineto
          -11 1 -9 -9 1 hvcurveto
          137 -630 rlineto
          -38 7 8 -23 10 hhcurveto
          18 9 1 1 9 hvcurveto
          87 410 27 176 8 -49 17 -106 4 -23 rlinecurve
          85 -362 rlineto
          -29 6 8 -20 11 hhcurveto
          17 5 2 1 11 hvcurveto
          145 707 rlineto
          endchar
        </CharString>
        <CharString name="Wdieresis">
          256 12 -21 709 -20 119 78 hstem
          239 54 53 54 vstem
          264 799 rmoveto
          20 9 14 25 hvcurveto
          26 1 -7 13 -19 hhcurveto
          -19 -9 -14 -25 -1 hvcurveto
          -27 8 -12 17 vhcurveto
          108 hmoveto
          19 9 14 25 hvcurveto
          26 1 -7 13 -19 hhcurveto
          -19 -9 -14 -25 -1 hvcurveto
          -27 8 -12 18 vhcurveto
          227 -99 rmoveto
          -10 -2 -7 -11 -2 hvcurveto
          -90 -441 -12 -66 -8 -65 -7 -50 rlinecurve
          -3 hlineto
          -10 60 -4 42 -17 79 -93 421 rcurveline
          -31 hlineto
          -2 hlineto
          -10 -1 -6 -11 -3 hvcurveto
          -82 -404 -13 -62 -9 -55 -6 -66 rlinecurve
          -3 hlineto
          -10 61 -5 44 -16 78 -100 459 rcurveline
          -35 hlineto
          -11 1 -9 -9 1 hvcurveto
          137 -630 rlineto
          -38 7 8 -23 10 hhcurveto
          18 9 1 1 9 hvcurveto
          87 410 27 176 8 -49 17 -106 4 -23 rlinecurve
          85 -362 rlineto
          -29 6 8 -20 11 hhcurveto
          17 5 2 1 11 hvcurveto
          145 707 rlineto
          endchar
        </CharString>
        <CharString name="Wgrave">
          256 12 -21 709 -20 hstem
          5 630 vstem
          384 770 rmoveto
          6 11 26 0 hvcurveto
          59 -58 -76 58 -3 hhcurveto
          -12 -8 -28 -9 -2 hvcurveto
          6 -6 75 -60 61 -40 rrcurveto
          215 -70 rmoveto
          -10 -2 -7 -11 -2 hvcurveto
          -90 -441 -12 -66 -8 -65 -7 -50 rlinecurve
          -3 hlineto
          -10 60 -4 42 -17 79 -93 421 rcurveline
          -31 hlineto
          -2 hlineto
          -10 -1 -6 -11 -3 hvcurveto
          -82 -404 -13 -62 -9 -55 -6 -66 rlinecurve
          -3 hlineto
          -10 61 -5 44 -16 78 -100 459 rcurveline
          -35 hlineto
          -11 1 -9 -9 1 hvcurveto
          137 -630 rlineto
          -38 7 8 -23 10 hhcurveto
          18 9 1 1 9 hvcurveto
          87 410 27 176 8 -49 17 -106 4 -23 rlinecurve
          85 -362 rlineto
          -29 6 8 -20 11 hhcurveto
          17 5 2 1 11 hvcurveto
          145 707 rlineto
          endchar
        </CharString>
        <CharString name="X">
          45 21 -21 700 -20 hstem
          11 405 vstem
          246 363 rmoveto
          151 337 rlineto
          -51 3 0 -8 -4 hvcurveto
          -52 -115 -31 -70 -32 -77 -12 -29 rlinecurve
          -11 28 -31 76 -32 72 -55 123 rcurveline
          -55 0 0 -8 4 hvcurveto
          147 -327 -174 -365 rlineto
          40 hlineto
          6 3 1 5 3 hvcurveto
          73 151 33 69 31 71 13 29 rlinecurve
          12 -29 32 -71 32 -70 73 -156 rcurveline
          46 hlineto
          5 3 2 4 1 -1 2 -1 2 hvcurveto
          endchar
        </CharString>
        <CharString name="Y">
          -22 21 -21 700 -20 hstem
          159 45 vstem
          204 286 rmoveto
          151 414 rlineto
          -46 -1 0 -9 -3 hvcurveto
          -48 -136 -29 -83 -44 -135 -1 -10 rlinecurve
          -1 10 -43 136 -31 82 -52 145 rcurveline
          -51 -2 0 -8 3 hvcurveto
          153 -407 rlineto
          -285 vlineto
          46 -1 0 12 hvcurveto
          endchar
        </CharString>
        <CharString name="Yacute">
          -22 21 -21 700 -20 hstem
          159 45 vstem
          121 772 rmoveto
          60 40 75 60 6 7 rrcurveto
          9 -1 -9 28 -12 hhcurveto
          -3 -76 -59 -58 -58 hvcurveto
          0 11 -27 7 vhcurveto
          83 -486 rmoveto
          151 414 rlineto
          -46 -1 0 -9 -3 hvcurveto
          -48 -136 -29 -83 -44 -135 -1 -10 rlinecurve
          -1 10 -43 136 -31 82 -52 145 rcurveline
          -51 -2 0 -8 3 hvcurveto
          153 -407 rlineto
          -285 vlineto
          46 -1 0 12 hvcurveto
          endchar
        </CharString>
        <CharString name="Ycircumflex">
          -22 21 -21 700 -20 215 8 hstem
          159 45 vstem
          61 791 rmoveto
          -5 4 10 -12 19 hhcurveto
          10 79 88 0 hvcurveto
          5 -9 76 -80 0 vvcurveto
          18 17 13 6 6 -97 97 0 hvcurveto
          6 -6 -6 2 -6 hhcurveto
          -5 -3 -1 -1 -3 hvcurveto
          31 -615 rmoveto
          151 414 rlineto
          -46 -1 0 -9 -3 hvcurveto
          -48 -136 -29 -83 -44 -135 -1 -10 rlinecurve
          -1 10 -43 136 -31 82 -52 145 rcurveline
          -51 -2 0 -8 3 hvcurveto
          153 -407 rlineto
          -285 vlineto
          46 -1 0 12 hvcurveto
          endchar
        </CharString>
        <CharString name="Ydieresis">
          -22 21 -21 700 -20 119 78 hstem
          159 45 vstem
          125 799 rmoveto
          20 8 14 25 1 hvcurveto
          26 1 -8 13 -19 hhcurveto
          -18 -9 -14 -25 -1 hvcurveto
          -27 -1 9 -12 17 hhcurveto
          107 hmoveto
          20 8 14 25 1 hvcurveto
          26 1 -7 13 -20 hhcurveto
          -18 -9 -14 -25 -1 hvcurveto
          -27 -1 9 -12 17 hhcurveto
          -28 -513 rmoveto
          151 414 rlineto
          -46 -1 0 -9 -3 hvcurveto
          -48 -136 -29 -83 -44 -135 -1 -10 rlinecurve
          -1 10 -43 136 -31 82 -52 145 rcurveline
          -51 -2 0 -8 3 hvcurveto
          153 -407 rlineto
          -285 vlineto
          46 -1 0 12 hvcurveto
          endchar
        </CharString>
        <CharString name="Yerucy">
          172 0 41 319 44 296 -20 hstem
          69 45 206 50 79 46 vstem
          449 hmoveto
          44 2 0 12 hvcurveto
          688 vlineto
          -45 -1 0 -24 hvcurveto
          -335 24 rmoveto
          -40 -5 0 -16 hvcurveto
          -684 117 vlineto
          118 66 87 139 121 -49 57 -120 hvcurveto
          -87 hlineto
          83 -44 rmoveto
          89 34 -40 -98 -114 -42 -67 -95 hvcurveto
          -69 2 rlineto
          317 vlineto
          endchar
        </CharString>
        <CharString name="Ygrave">
          -22 21 -21 700 -20 hstem
          159 45 vstem
          244 770 rmoveto
          7 11 26 0 hvcurveto
          59 -58 -76 58 -3 hhcurveto
          -12 -9 -28 -9 -1 hvcurveto
          6 -6 75 -60 60 -40 rrcurveto
          -40 -484 rmoveto
          151 414 rlineto
          -46 -1 0 -9 -3 hvcurveto
          -48 -136 -29 -83 -44 -135 -1 -10 rlinecurve
          -1 10 -43 136 -31 82 -52 145 rcurveline
          -51 -2 0 -8 3 hvcurveto
          153 -407 rlineto
          -285 vlineto
          46 -1 0 12 hvcurveto
          endchar
        </CharString>
        <CharString name="Yicy">
          -218 21 -21 700 -20 119 78 hstem
          59 46 vstem
          31 877 rmoveto
          -19 -9 -14 -25 -1 hvcurveto
          -27 8 -12 17 20 9 14 25 vhcurveto
          26 1 -7 13 -19 hhcurveto
          107 hmoveto
          -19 -9 -14 -25 -1 hvcurveto
          -27 -1 9 -12 17 hhcurveto
          20 8 14 25 1 hvcurveto
          26 1 -7 13 -19 hhcurveto
          -79 -877 rmoveto
          44 2 0 12 hvcurveto
          688 vlineto
          -45 -1 0 -24 hvcurveto
          endchar
        </CharString>
        <CharString name="Z">
          14 0 42 616 42 hstem
          27 338 vstem
          49 657 rmoveto
          1 4 15 0 22 hhcurveto
          221 hlineto
          -279 -616 rlineto
          -3 -8 -2 -7 -8 vvcurveto
          -10 4 -6 5 -3 vhcurveto
          317 hlineto
          10 2 6 6 hvcurveto
          34 vlineto
          -4 -12 -18 0 -20 hhcurveto
          -237 hlineto
          282 618 rlineto
          3 9 2 7 0 7 0 7 -2 5 -3 5 50 flex
          -298 hlineto
          -8 -5 -5 -8 hvcurveto
          endchar
        </CharString>
        <CharString name="Zacute">
          14 0 42 616 42 hstem
          27 338 vstem
          139 772 rmoveto
          60 40 75 60 6 7 rrcurveto
          9 -2 -8 28 -12 hhcurveto
          -3 -76 -59 -58 -58 hvcurveto
          0 11 -27 7 vhcurveto
          -90 -115 rmoveto
          1 4 15 0 22 hhcurveto
          221 hlineto
          -279 -616 rlineto
          -3 -8 -2 -7 -8 vvcurveto
          -10 4 -6 5 -3 vhcurveto
          317 hlineto
          10 2 6 6 hvcurveto
          34 vlineto
          -4 -12 -18 0 -20 hhcurveto
          -237 hlineto
          282 618 rlineto
          3 9 2 7 0 7 0 7 -2 5 -3 5 50 flex
          -298 hlineto
          -8 -5 -5 -8 hvcurveto
          endchar
        </CharString>
        <CharString name="Zcaron">
          14 0 42 616 42 hstem
          27 338 vstem
          205 775 rmoveto
          13 96 109 13 8 -8 8 -12 7 hvcurveto
          0 -48 -50 -40 -51 vhcurveto
          0 -88 98 -11 -11 -11 -20 -8 -3 vhcurveto
          -7 5 103 -107 15 hhcurveto
          -156 -118 rmoveto
          1 4 15 0 22 hhcurveto
          221 hlineto
          -279 -616 rlineto
          -3 -8 -2 -7 -8 vvcurveto
          -10 4 -6 5 -3 vhcurveto
          317 hlineto
          10 2 6 6 hvcurveto
          34 vlineto
          -4 -12 -18 0 -20 hhcurveto
          -237 hlineto
          282 618 rlineto
          3 9 2 7 0 7 0 7 -2 5 -3 5 50 flex
          -298 hlineto
          -8 -5 -5 -8 hvcurveto
          endchar
        </CharString>
        <CharString name="Zdotaccent">
          14 0 42 616 42 hstem
          170 56 vstem
          170 838 rmoveto
          -28 8 -12 18 20 9 14 26 1 vhcurveto
          27 -7 13 -20 -19 -9 -14 -26 -1 vhcurveto
          -121 -181 rmoveto
          1 4 15 0 22 hhcurveto
          221 hlineto
          -279 -616 rlineto
          -3 -8 -2 -7 -8 vvcurveto
          -10 4 -6 5 -3 vhcurveto
          317 hlineto
          10 2 6 6 hvcurveto
          34 vlineto
          -4 -12 -18 0 -20 hhcurveto
          -237 hlineto
          282 618 rlineto
          3 9 2 7 0 7 0 7 -2 5 -3 5 50 flex
          -298 hlineto
          -8 -5 -5 -8 hvcurveto
          endchar
        </CharString>
        <CharString name="Zecy">
          -16 -8 43 311 45 273 44 hstem
          291 49 vstem
          102 391 rmoveto
          -22 vlineto
          -15 5 -8 12 vhcurveto
          60 hlineto
          61 51 -44 -103 -134 -72 -30 -51 -55 -48 17 41 -32 hvcurveto
          -8 -11 -3 -11 -8 vvcurveto
          -30 1 64 -41 84 hhcurveto
          74 95 46 166 99 -40 52 -56 25 hvcurveto
          44 38 32 66 70 vvcurveto
          93 -51 61 -92 -79 -46 -39 -28 -7 4 -10 5 -11 vhcurveto
          21 23 36 30 52 hhcurveto
          61 37 -42 -80 -54 -15 -51 -52 -46 hvcurveto
          endchar
        </CharString>
        <CharString name="Zhecy">
          256 21 -21 347 42 311 -20 hstem
          297 45 vstem
          489 475 rmoveto
          -57 -16 -30 -29 -33 hhcurveto
          -68 311 hlineto
          -45 0 0 -12 hvcurveto
          -299 -68 vlineto
          -34 -30 29 57 -15 hvcurveto
          -61 223 rlineto
          2 -9 -10 0 -8 hhcurveto
          -12 -4 -2 -5 -3 1 -3 1 -5 hvcurveto
          60 -216 14 -47 25 -33 26 -15 rlinecurve
          -42 -24 -32 -52 -14 -70 -46 -210 rcurveline
          -12 -1 5 -4 15 hhcurveto
          8 10 0 1 9 hvcurveto
          46 214 rlineto
          87 17 41 46 43 hhcurveto
          65 -347 hlineto
          45 0 0 12 hvcurveto
          335 65 vlineto
          42 41 -46 -87 18 hvcurveto
          46 -214 rlineto
          -1 10 8 0 9 hhcurveto
          13 5 3 9 hvcurveto
          4 vlineto
          -46 210 -14 70 -31 52 -43 24 rlinecurve
          27 15 25 33 13 47 61 216 rcurveline
          1 5 1 3 3 vvcurveto
          5 -4 2 -12 -8 -10 0 -2 -10 vhcurveto
          endchar
        </CharString>
        <CharString name="a">
          -10 -10 40 234 36 166 44 hstem
          39 46 193 45 vstem
          323 389 rmoveto
          90 -41 31 -79 -71 -65 -13 -12 -21 vhcurveto
          -5 -3 -2 -7 -8 vvcurveto
          -8 1 -8 5 -10 vhcurveto
          12 26 55 13 67 hhcurveto
          50 35 -14 -72 hvcurveto
          -91 vlineto
          8 -22 -33 3 -29 hhcurveto
          -78 -77 -21 -141 -136 73 -14 71 2 hvcurveto
          72 42 24 13 20 hvcurveto
          4 78 2 108 114 vvcurveto
          -45 -73 rmoveto
          -69 -1 -85 -4 -45 vhcurveto
          -11 -12 -34 -14 -36 hhcurveto
          -56 -50 6 103 114 59 11 63 21 30 -3 -7 20 hvcurveto
          endchar
        </CharString>
        <CharString name="aacute">
          -10 -10 40 234 36 166 44 hstem
          39 46 193 45 vstem
          122 572 rmoveto
          60 40 75 60 6 7 rrcurveto
          9 -1 -9 28 -12 hhcurveto
          -3 -76 -59 -58 -58 hvcurveto
          0 11 -27 7 vhcurveto
          201 -183 rmoveto
          90 -41 31 -79 -71 -65 -13 -12 -21 vhcurveto
          -5 -3 -2 -7 -8 vvcurveto
          -8 1 -8 5 -10 vhcurveto
          12 26 55 13 67 hhcurveto
          50 35 -14 -72 hvcurveto
          -91 vlineto
          8 -22 -33 3 -29 hhcurveto
          -78 -77 -21 -141 -136 73 -14 71 2 hvcurveto
          72 42 24 13 20 hvcurveto
          4 78 2 108 114 vvcurveto
          -45 -73 rmoveto
          -69 -1 -85 -4 -45 vhcurveto
          -11 -12 -34 -14 -36 hhcurveto
          -56 -50 6 103 114 59 11 63 21 30 -3 -7 20 hvcurveto
          endchar
        </CharString>
        <CharString name="abreve">
          -10 -10 40 234 36 166 44 65 43 91 -20 hstem
          39 46 193 45 vstem
          89 709 rmoveto
          -18 -4 -10 -6 -14 vvcurveto
          -27 44 -83 74 74 33 62 47 15 vhcurveto
          -3 18 -24 14 -9 -18 rrcurveto
          -35 -14 -19 -45 -52 hhcurveto
          -54 -25 57 34 -12 hvcurveto
          234 -320 rmoveto
          90 -41 31 -79 -71 -65 -13 -12 -21 vhcurveto
          -5 -3 -2 -7 -8 vvcurveto
          -8 1 -8 5 -10 vhcurveto
          12 26 55 13 67 hhcurveto
          50 35 -14 -72 hvcurveto
          -91 vlineto
          8 -22 -33 3 -29 hhcurveto
          -78 -77 -21 -141 -136 73 -14 71 2 hvcurveto
          72 42 24 13 20 hvcurveto
          4 78 2 108 114 vvcurveto
          -45 -73 rmoveto
          -69 -1 -85 -4 -45 vhcurveto
          -11 -12 -34 -14 -36 hhcurveto
          -56 -50 6 103 114 59 11 63 21 30 -3 -7 20 hvcurveto
          endchar
        </CharString>
        <CharString name="acircumflex">
          -10 -10 40 234 36 166 44 185 8 hstem
          39 46 193 45 vstem
          63 591 rmoveto
          -5 4 9 -12 19 hhcurveto
          10 79 88 0 hvcurveto
          5 -9 76 -80 0 vvcurveto
          18 17 13 6 6 -97 97 0 hvcurveto
          6 -5 -7 2 -6 hhcurveto
          -4 -4 -1 -1 -3 hvcurveto
          149 -312 rmoveto
          90 -41 31 -79 -71 -65 -13 -12 -21 vhcurveto
          -5 -3 -2 -7 -8 vvcurveto
          -8 1 -8 5 -10 vhcurveto
          12 26 55 13 67 hhcurveto
          50 35 -14 -72 hvcurveto
          -91 vlineto
          8 -22 -33 3 -29 hhcurveto
          -78 -77 -21 -141 -136 73 -14 71 2 hvcurveto
          72 42 24 13 20 hvcurveto
          4 78 2 108 114 vvcurveto
          -45 -73 rmoveto
          -69 -1 -85 -4 -45 vhcurveto
          -11 -12 -34 -14 -36 hhcurveto
          -56 -50 6 103 114 59 11 63 21 30 -3 -7 20 hvcurveto
          endchar
        </CharString>
        <CharString name="acute">
          -125 572 144 hstem
          49 159 vstem
          67 572 rmoveto
          60 40 75 60 6 7 rrcurveto
          9 -1 -9 28 -12 hhcurveto
          -3 -76 -59 -58 -58 hvcurveto
          0 11 -27 7 vhcurveto
          endchar
        </CharString>
        <CharString name="acy">
          -10 -10 40 234 36 166 44 hstem
          39 46 193 45 vstem
          323 389 rmoveto
          90 -41 31 -79 -71 -65 -13 -12 -21 vhcurveto
          -5 -3 -2 -7 -8 vvcurveto
          -8 1 -8 5 -10 vhcurveto
          12 26 55 13 67 hhcurveto
          50 35 -14 -72 hvcurveto
          -91 vlineto
          8 -22 -33 3 -29 hhcurveto
          -78 -77 -21 -141 -136 73 -14 71 2 hvcurveto
          72 42 24 13 20 hvcurveto
          4 78 2 108 114 vvcurveto
          -45 -73 rmoveto
          -69 -1 -85 -4 -45 vhcurveto
          -11 -12 -34 -14 -36 hhcurveto
          -56 -50 6 103 114 59 11 63 21 30 -3 -7 20 hvcurveto
          endchar
        </CharString>
        <CharString name="adieresis">
          -10 -10 40 234 36 166 44 hstem
          39 46 193 45 vstem
          323 389 rmoveto
          90 -41 31 -79 -71 -65 -13 -12 -21 vhcurveto
          -5 -3 -2 -7 -8 vvcurveto
          -8 1 -8 5 -10 vhcurveto
          12 26 55 13 67 hhcurveto
          50 35 -14 -72 hvcurveto
          -91 vlineto
          8 -22 -33 3 -29 hhcurveto
          -78 -77 -21 -141 -136 73 -14 71 2 hvcurveto
          72 42 24 13 20 hvcurveto
          4 78 2 108 114 vvcurveto
          -45 -73 rmoveto
          -69 -1 -85 -4 -45 vhcurveto
          -11 -12 -34 -14 -36 hhcurveto
          -56 -50 6 103 114 59 11 63 21 30 -3 -7 20 hvcurveto
          -149 423 rmoveto
          -18 -9 -14 -25 -1 hvcurveto
          -27 -1 9 -12 17 hhcurveto
          20 8 14 25 1 hvcurveto
          26 1 -7 13 -20 hhcurveto
          107 hmoveto
          -18 -9 -14 -25 -1 hvcurveto
          -27 -1 9 -12 17 hhcurveto
          20 8 14 25 1 hvcurveto
          26 1 -7 13 -20 hhcurveto
          endchar
        </CharString>
        <CharString name="ae">
          253 -9 39 199 38 202 41 hstem
          39 46 193 49 215 44 vstem
          319 47 rmoveto
          -47 28 45 -8 55 hhcurveto
          72 62 25 12 11 -1 20 -4 10 hvcurveto
          -22 -32 -45 -12 -49 hhcurveto
          -72 -51 15 170 hvcurveto
          25 vlineto
          -6 29 62 -11 69 hhcurveto
          30 31 2 5 30 hvcurveto
          6 32 2 47 41 vvcurveto
          97 -37 57 -89 -53 -57 -10 -77 -34 vhcurveto
          64 -9 -38 23 -66 hhcurveto
          -81 -50 -14 -12 -20 hvcurveto
          -5 -3 -4 -8 -7 vvcurveto
          -6 1 -12 4 -9 vhcurveto
          17 30 50 12 59 hhcurveto
          54 37 -14 -72 hvcurveto
          -88 vlineto
          8 -22 -33 3 -30 hhcurveto
          -77 -77 -23 -142 -133 65 -16 68 78 47 18 13 22 hvcurveto
          139 447 rmoveto
          65 18 -42 -82 1 hvcurveto
          -22 -1 -26 -3 -25 vhcurveto
          -4 -17 -20 -1 -20 hhcurveto
          -58 -64 12 6 -30 hvcurveto
          167 13 64 17 52 hhcurveto
          -180 -416 rmoveto
          -13 -12 -40 -10 -36 hhcurveto
          -55 -50 7 101 117 59 14 63 21 29 -4 -6 21 hvcurveto
          endchar
        </CharString>
        <CharString name="agrave">
          -10 -10 40 234 36 166 44 hstem
          39 46 193 45 vstem
          126 713 rmoveto
          -12 -9 -28 -9 -1 hvcurveto
          6 -6 75 -60 60 -40 rrcurveto
          7 11 26 0 hvcurveto
          59 -58 -76 58 -3 hhcurveto
          197 -324 rmoveto
          90 -41 31 -79 -71 -65 -13 -12 -21 vhcurveto
          -5 -3 -2 -7 -8 vvcurveto
          -8 1 -8 5 -10 vhcurveto
          12 26 55 13 67 hhcurveto
          50 35 -14 -72 hvcurveto
          -91 vlineto
          8 -22 -33 3 -29 hhcurveto
          -78 -77 -21 -141 -136 73 -14 71 2 hvcurveto
          72 42 24 13 20 hvcurveto
          4 78 2 108 114 vvcurveto
          -45 -73 rmoveto
          -69 -1 -85 -4 -45 vhcurveto
          -11 -12 -34 -14 -36 hhcurveto
          -56 -50 6 103 114 59 11 63 21 30 -3 -7 20 hvcurveto
          endchar
        </CharString>
        <CharString name="amacron">
          -10 -10 40 234 36 166 44 100 44 hstem
          39 46 193 45 vstem
          289 610 rmoveto
          11 6 9 14 1 hvcurveto
          6 -1 7 -2 8 vhcurveto
          -229 hlineto
          -12 -7 -9 -13 -7 0 -7 2 -8 hvcurveto
          265 -221 rmoveto
          90 -41 31 -79 -71 -65 -13 -12 -21 vhcurveto
          -5 -3 -2 -7 -8 vvcurveto
          -8 1 -8 5 -10 vhcurveto
          12 26 55 13 67 hhcurveto
          50 35 -14 -72 hvcurveto
          -91 vlineto
          8 -22 -33 3 -29 hhcurveto
          -78 -77 -21 -141 -136 73 -14 71 2 hvcurveto
          72 42 24 13 20 hvcurveto
          4 78 2 108 114 vvcurveto
          -45 -73 rmoveto
          -69 -1 -85 -4 -45 vhcurveto
          -11 -12 -34 -14 -36 hhcurveto
          -56 -50 6 103 114 59 11 63 21 30 -3 -7 20 hvcurveto
          endchar
        </CharString>
        <CharString name="ampersand">
          135 -10 43 430 40 163 40 hstem
          73 46 275 43 vstem
          456 463 rmoveto
          34 6 6 12 9 0 7 -1 4 hvcurveto
          2 -27 -31 0 -34 hhcurveto
          -28 -34 -1 -5 -41 hvcurveto
          52 -35 42 -79 -107 vvcurveto
          -23 -1 -56 -20 -52 vhcurveto
          -112 129 -142 197 92 vvcurveto
          87 62 16 62 52 43 -12 -22 34 vhcurveto
          4 6 6 13 13 vvcurveto
          16 -57 26 -85 -91 -76 -35 -103 -55 35 -76 48 -80 vhcurveto
          -60 -33 -57 -68 -84 vvcurveto
          -87 33 -95 150 78 50 31 43 32 vhcurveto
          -45 41 31 -28 8 hhcurveto
          14 14 24 12 2 hvcurveto
          -18 11 -31 29 -36 40 rrcurveto
          27 61 3 69 33 vvcurveto
          117 -42 57 -21 20 vhcurveto
          -155 -431 rmoveto
          -109 -24 76 60 75 43 52 49 27 hvcurveto
          53 -81 64 -81 55 -62 rrcurveto
          -38 -26 -41 -28 -64 hhcurveto
          endchar
        </CharString>
        <CharString name="ampersand.ss03">
          75 55 45 253 40 210 45 hstem
          64 47 124 41 vstem
          290 398 rmoveto
          -4 -33 -5 -30 hhcurveto
          -64 1 -48 21 69 vvcurveto
          79 62 40 83 65 50 -25 -46 31 vhcurveto
          6 6 11 17 15 vvcurveto
          15 -46 54 -97 8 vhcurveto
          122 vlineto
          -29 -12 -3 -17 hvcurveto
          -101 vlineto
          -98 -6 -73 -59 -98 vvcurveto
          -83 57 -34 42 -2 vhcurveto
          -63 -18 -52 -50 -85 vvcurveto
          -91 51 -64 126 -3 vhcurveto
          -116 vlineto
          31 10 3 17 hvcurveto
          97 vlineto
          115 11 39 66 12 vvcurveto
          13 -14 16 -5 7 vhcurveto
          -36 -24 -47 -45 -94 hhcurveto
          -97 -43 54 61 72 55 62 132 4 hvcurveto
          endchar
        </CharString>
        <CharString name="ampersand.ss04">
          286 -8 40 127 41 193 36 222 38 hstem
          46 47 210 42 112 46 vstem
          457 152 rmoveto
          -139 25 -21 63 58 25 12 13 13 -3 13 0 vhcurveto
          0 -24 -11 -47 -41 -10 23 96 vhcurveto
          275 vlineto
          46 5 53 10 0 vvcurveto
          16 2 3 10 31 vvcurveto
          0 -51 -10 -67 -8 vhcurveto
          146 vlineto
          -36 -10 -5 -33 hvcurveto
          -113 vlineto
          0 -69 -11 -58 -5 vhcurveto
          9 3 6 78 13 vvcurveto
          124 -64 26 -50 -136 -49 -97 -195 -205 66 -33 98 99 42 67 18 19 -14 17 0 vhcurveto
          -29 -16 -31 -51 -74 hhcurveto
          -68 -55 6 187 hvcurveto
          139 225 29 0 hvcurveto
          -154 105 rmoveto
          -6 -3 -75 -13 -3 vhcurveto
          0 -109 -14 -84 vhcurveto
          196 7 77 26 48 hhcurveto
          46 31 -26 -98 hvcurveto
          endchar
        </CharString>
        <CharString name="aogonek">
          -10 -195 37 148 40 234 36 166 44 hstem
          39 46 111 42 40 45 vstem
          278 289 rmoveto
          8 -22 -33 3 -29 hhcurveto
          -78 -77 -21 -141 -130 66 -18 69 24 20 2 3 18 hvcurveto
          -22 -27 -18 -36 -40 vvcurveto
          -59 28 -28 46 25 20 5 14 2 vhcurveto
          1 3 0 3 -1 5 -1 4 -1 6 -4 5 rrcurveto
          -6 -11 -8 -2 -13 hhcurveto
          -30 -11 18 36 47 30 48 49 36 hvcurveto
          4 78 2 108 114 vvcurveto
          62 vlineto
          90 -41 31 -79 -71 -65 -13 -12 -21 vhcurveto
          -5 -3 -2 -7 -8 vvcurveto
          -8 1 -8 5 -10 vhcurveto
          12 26 55 13 67 hhcurveto
          50 35 -14 -72 hvcurveto
          -71 -116 rmoveto
          21 30 -3 -7 20 hvcurveto
          -69 -1 -85 -4 -45 vhcurveto
          -11 -12 -34 -14 -36 hhcurveto
          -56 -50 6 103 114 59 11 63 hvcurveto
          endchar
        </CharString>
        <CharString name="apple">
          444 -10 134 206 38 206 136 hstem
          53 213 41 54 122 88 38 164 vstem
          413 710 rmoveto
          -218 -142 -142 -218 -218 142 -142 218 218 142 142 218 218 -142 142 -218 hvcurveto
          -106 -294 rmoveto
          -12 3 0 2 vhcurveto
          5 4 1 5 hhcurveto
          10 7 -7 -10 -10 -6 -10 -15 hvcurveto
          -16 -4 5 -13 -16 -2 -21 hflex
          -14 -7 10 10 10 8 7 10 hvcurveto
          6 3 -1 5 hhcurveto
          1 4 0 12 hvcurveto
          112 vlineto
          12 -4 0 -1 vhcurveto
          -4 -5 -1 -5 hhcurveto
          -10 -8 9 8 10 7 8 16 hvcurveto
          12 8 -3 16 14 8 12 hflex
          15 6 -8 -10 -10 -9 -7 -8 hvcurveto
          -5 -3 1 -6 hhcurveto
          -2 -3 0 -12 hvcurveto
          115 51 rmoveto
          28 24 -17 -27 15 hvcurveto
          27 15 23 17 29 hhcurveto
          34 28 -23 -40 -44 -31 -25 -35 -30 hvcurveto
          -21 -17 -23 -19 -19 -25 -20 25 -22 19 -21 17 rrcurveto
          -35 29 -30 25 45 vvcurveto
          40 27 23 34 vhcurveto
          194 -285 rmoveto
          -7 0 -10 -2 hvcurveto
          -118 vlineto
          -22 -5 -22 -22 -15 -8 9 15 -8 vhcurveto
          -68 123 rlineto
          -97 vlineto
          -13 4 0 2 vhcurveto
          3 6 2 4 hhcurveto
          11 6 -7 -11 -8 -5 -9 -16 hvcurveto
          -10 -8 4 -15 -14 -13 -10 hflex
          -15 -5 9 9 10 7 7 10 hvcurveto
          4 6 -2 3 hhcurveto
          2 4 0 12 hvcurveto
          113 vlineto
          12 -4 1 -2 vhcurveto
          -3 -3 -1 -7 hhcurveto
          -7 0 -5 5 -3 4 -2 -4 -5 -5 -9 0 50 flex
          -6 0 1 -7 hhcurveto
          -1 -1 0 -3 -2 hvcurveto
          -58 -91 rlineto
          -36 vlineto
          -5 2 -3 4 vhcurveto
          3 4 3 8 hhcurveto
          11 5 -8 -10 -9 -5 -9 -17 hvcurveto
          -14 -9 4 -13 -13 -8 -14 hflex
          -15 -6 9 8 11 7 8 11 hvcurveto
          6 1 -3 6 hhcurveto
          2 4 3 5 hvcurveto
          34 vlineto
          -58 94 rlineto
          -1 1 -3 0 -1 -4 -2 -1 -4 hflex1
          -15 -6 8 10 12 8 7 12 hvcurveto
          12 11 -4 12 12 6 13 hflex
          15 5 -10 -9 -8 -4 -9 -18 hvcurveto
          -2 hlineto
          34 -55 3 6 5 8 4 8 rlinecurve
          7 13 7 12 4 8 rrcurveto
          -3 -1 -2 0 0 vvcurveto
          -15 0 -4 8 0 10 0 12 6 7 13 0 50 flex
          8 12 -3 12 11 15 10 hflex
          8 0 6 -5 3 -6 2 6 6 5 9 0 50 flex
          5 9 -2 12 11 7 8 hflex
          15 3 -7 -5 1 hvcurveto
          2 -6 70 -128 rlineto
          98 vlineto
          3 0 9 -11 vhcurveto
          -8 hlineto
          -11 -7 8 9 8 6 11 16 hvcurveto
          11 8 -3 13 11 10 11 hflex
          15 5 -10 -9 -9 -5 -8 -14 hvcurveto
          endchar
        </CharString>
        <CharString name="approxequal">
          18 160 43 135 43 hstem
          14 373 vstem
          15 318 rmoveto
          -13 2 8 -9 8 hhcurveto
          2 2 0 2 2 hvcurveto
          12 14 28 28 46 hhcurveto
          26 17 -11 -12 18 hvcurveto
          -13 21 22 -15 39 hhcurveto
          54 35 27 25 18 hvcurveto
          4 10 1 9 7 vvcurveto
          8 -4 -7 5 -7 hhcurveto
          -4 -4 -2 -4 -3 hvcurveto
          -25 -18 -28 -18 -35 hhcurveto
          -31 -19 13 13 -19 hvcurveto
          13 -20 -19 13 -33 hhcurveto
          -62 -38 -39 -24 -16 hvcurveto
          -1 -125 rmoveto
          -15 3 10 -12 10 hhcurveto
          3 4 2 2 3 hvcurveto
          15 12 28 26 41 hhcurveto
          25 16 -10 -12 17 hvcurveto
          -14 20 22 -15 40 hhcurveto
          66 35 38 27 18 hvcurveto
          13 -4 -7 9 -8 hhcurveto
          -3 -2 -1 -2 -3 hvcurveto
          -20 -19 -31 -21 -38 hhcurveto
          -31 -20 12 13 -19 hvcurveto
          12 -20 -20 13 -34 hhcurveto
          -60 -38 -37 -23 -16 hvcurveto
          endchar
        </CharString>
        <CharString name="aring">
          -10 -10 40 234 36 166 44 48 35 106 36 hstem
          39 46 193 45 vstem
          94 646 rmoveto
          -66 32 -22 52 57 34 30 58 67 -28 22 -56 -56 -35 -28 -61 vhcurveto
          36 -2 rmoveto
          42 21 13 35 30 17 -13 -39 -37 -20 -17 -34 -32 -17 19 32 vhcurveto
          193 -255 rmoveto
          90 -41 31 -79 -71 -65 -13 -12 -21 vhcurveto
          -5 -3 -2 -7 -8 vvcurveto
          -8 1 -8 5 -10 vhcurveto
          12 26 55 13 67 hhcurveto
          50 35 -14 -72 hvcurveto
          -91 vlineto
          8 -22 -33 3 -29 hhcurveto
          -78 -77 -21 -141 -136 73 -14 71 2 hvcurveto
          72 42 24 13 20 hvcurveto
          4 78 2 108 114 vvcurveto
          -45 -73 rmoveto
          -69 -1 -85 -4 -45 vhcurveto
          -11 -12 -34 -14 -36 hhcurveto
          -56 -50 6 103 114 59 11 63 21 30 -3 -7 20 hvcurveto
          endchar
        </CharString>
        <CharString name="asciicircum">
          48 214 168 hstem
          61 305 vstem
          214 324 rmoveto
          129 -110 rlineto
          13 1 10 10 11 vvcurveto
          6 -2 5 -6 5 vhcurveto
          -140 130 -157 -144 rlineto
          -12 1 7 -12 13 hhcurveto
          5 4 2 9 11 hvcurveto
          endchar
        </CharString>
        <CharString name="asciitilde">
          18 227 42 hstem
          13 375 vstem
          13 258 rmoveto
          3 -18 13 -10 11 6 rrcurveto
          12 15 28 31 43 hhcurveto
          25 17 -11 -12 18 hvcurveto
          -14 21 23 -15 40 hhcurveto
          66 34 38 27 18 hvcurveto
          15 -2 -10 10 -9 hhcurveto
          -4 -4 -1 -4 -4 hvcurveto
          -25 -18 -29 -18 -34 hhcurveto
          -32 -19 13 13 -19 hvcurveto
          13 -20 -20 13 -34 hhcurveto
          -61 -42 -39 -24 -14 hvcurveto
          endchar
        </CharString>
        <CharString name="asterisk">
          90 253 430 hstem
          217.5 36 vstem
          260 676 rmoveto
          5 -10 -11 2 -9 hhcurveto
          -11 -9 -4 -8 1 hvcurveto
          13 -173 rlineto
          -1 4 3 -1 3 hhcurveto
          9 3 5 7 1 hvcurveto
          -189 51 rmoveto
          -14 6 -23 -21 1 -26 164 -54 rcurveline
          10 -3 5 6 11 vvcurveto
          5 vlineto
          74 6 rmoveto
          -6 -3 -4 -4 -6 vvcurveto
          -4 3 -5 4 -6 vhcurveto
          169 51 rlineto
          7 2 2 6 7 vvcurveto
          12 -7 15 -10 6 vhcurveto
          -95 -307 rmoveto
          22 3 25 18 -11 14 -112 147 rcurveline
          -11 -4 -5 -4 -5 vvcurveto
          -2 1 -2 1 -2 vhcurveto
          -170 -125 rmoveto
          -13 6 15 -17 12 hhcurveto
          3 4 1 5 3 hvcurveto
          100 156 rlineto
          6 -4 -6 4 -5 hhcurveto
          -3 -3 -2 -3 -3 hvcurveto
          endchar
        </CharString>
        <CharString name="at">
          378 -189 43 147 36 239 34 143 40 152 40 hstem
          55 45 145 42 175 44.5 156.5 44 vstem
          510 374 rmoveto
          89 3 -41 30 -76 hhcurveto
          -63 -37 -11 -12 -22 hvcurveto
          -6 -5 -2 -4 -1 -7 rrcurveto
          -8 1 -10 4 -8 vhcurveto
          17 31 34 8 46 hhcurveto
          53 37 -16 -70 -3 hvcurveto
          -3 -64 rlineto
          6 -17 -23 1 -21 hhcurveto
          -88 -71 -33 -137 -117 54 -22 65 hvcurveto
          5 hlineto
          61 1 38 15 16 11 rrcurveto
          -14 14 22 -11 27 hhcurveto
          39 121 17 333 235 -95 97 -203 -208 -146 -112 -308 -421 154 -33 184 147 95 46 16 14 -8 16 -4 7 hvcurveto
          -26 -49 -67 -30 -118 hhcurveto
          -166 -123 43 362 289 121 97 186 184 72 -87 -211 -270 -90 -35 -30 -17 -15 6 11 -13 hvcurveto
          2 18 1 29 2 47 rrcurveto
          -44 -76 rmoveto
          -23 -1 -44 -17 -36 hhcurveto
          -50 -41 14 89 109 54 27 69 17 23 -2 -3 15 hvcurveto
          endchar
        </CharString>
        <CharString name="atilde">
          -10 -10 40 234 36 166 44 72 45 hstem
          39 46 193 45 vstem
          40 613 rmoveto
          0 12 -23 13 vhcurveto
          10 15 47 39 35 4 -55 58 hhcurveto
          58 28 44 22 11 hvcurveto
          0 -9 26 -11 vhcurveto
          -12 -7 -47 -53 -44 -2 52 -47 hhcurveto
          -35 -31 -13 -53 -32 hvcurveto
          283 -224 rmoveto
          90 -41 31 -79 -71 -65 -13 -12 -21 vhcurveto
          -5 -3 -2 -7 -8 vvcurveto
          -8 1 -8 5 -10 vhcurveto
          12 26 55 13 67 hhcurveto
          50 35 -14 -72 hvcurveto
          -91 vlineto
          8 -22 -33 3 -29 hhcurveto
          -78 -77 -21 -141 -136 73 -14 71 2 hvcurveto
          72 42 24 13 20 hvcurveto
          4 78 2 108 114 vvcurveto
          -45 -73 rmoveto
          -69 -1 -85 -4 -45 vhcurveto
          -11 -12 -34 -14 -36 hhcurveto
          -56 -50 6 103 114 59 11 63 21 30 -3 -7 20 hvcurveto
          endchar
        </CharString>
        <CharString name="b">
          27 -10 41 437 42 225 -20 hstem
          62 45 216 49 vstem
          62 20 rmoveto
          -20 25 38 -10 52 hhcurveto
          81 114 35 295 142 -53 47 -81 1 hvcurveto
          -59 -39 -16 -27 -33 hvcurveto
          268 vlineto
          -36 -9 0 -23 hvcurveto
          45 -288 rmoveto
          31 32 38 13 42 hhcurveto
          71 33 -38 -125 -244 -87 -30 -54 -40 -24 10 10 -11 hvcurveto
          endchar
        </CharString>
        <CharString name="backslash">
          -88 -30 795 hstem
          10 272 vstem
          54 765 rmoveto
          -41 -6 -1 -13 4 hvcurveto
          228 -781 rlineto
          39 8 0 13 -4 hvcurveto
          endchar
        </CharString>
        <CharString name="bar">
          -17 -179 -21 hstem
          160 45 vstem
          205 815 rmoveto
          -42 -3 0 -14 hvcurveto
          -1001 vlineto
          39 6 0 13 hvcurveto
          endchar
        </CharString>
        <CharString name="becy">
          18 -10 40 440 40 227 -20 hstem
          42 47 228 47 vstem
          321 678 rmoveto
          26 9 9 5 1 8 2 6 -3 12 -7 19 -181 -65 rcurveline
          -95 -34 -31 -73 -179 vvcurveto
          -113 vlineto
          -217 38 -66 117 106 61 80 188 178 -47 74 -101 -78 -33 -42 -70 -26 vhcurveto
          148 26 59 85 29 vhcurveto
          18 -164 rmoveto
          75 34 -66 -161 -145 -47 -68 -71 -78 -32 58 172 138 42 72 77 hvcurveto
          endchar
        </CharString>
        <CharString name="braceleft">
          -93 699 45 hstem
          121 44 vstem
          262 744 rmoveto
          -90 -65 -28 -88 -32 4 -32 3 -32 hvcurveto
          4 -35 3 -37 -39 vvcurveto
          -69 -21 -11 -30 -17 vhcurveto
          -9 -6 -5 -9 -12 vvcurveto
          -5 1 -9 3 -7 vhcurveto
          36 -7 25 -18 -56 vvcurveto
          -42 -3 -36 -4 -35 vhcurveto
          -3 -33 -4 -32 -34 vvcurveto
          -99 44 -35 99 12 5 10 14 5 -1 5 -1 8 vhcurveto
          -72 6 -40 5 96 vvcurveto
          28 2 28 3 30 vhcurveto
          4 37 3 40 47 vvcurveto
          58 -23 23 -38 12 vhcurveto
          35 15 26 26 70 vvcurveto
          46 -4 41 -3 36 vhcurveto
          -3 28 -2 25 22 vvcurveto
          70 42 17 63 2 vhcurveto
          7 1 6 7 10 vvcurveto
          9 -3 10 -6 8 vhcurveto
          endchar
        </CharString>
        <CharString name="braceright">
          -93 -151 45 850 -20 hstem
          124 44 vstem
          27 -151 rmoveto
          90 65 29 87 32 -4 32 -3 32 hvcurveto
          -4 35 -3 37 40 vvcurveto
          68 21 11 30 18 vhcurveto
          9 5 5 9 13 vvcurveto
          5 -1 8 -3 7 vhcurveto
          -36 7 -25 18 56 vvcurveto
          42 3 37 4 35 vhcurveto
          3 33 4 31 34 vvcurveto
          99 -44 35 -99 -11 -6 -10 -14 -5 1 -5 1 -7 vhcurveto
          72 -7 40 -5 -96 vvcurveto
          -27 -2 -29 -3 -30 vhcurveto
          -4 -37 -3 -39 -47 vvcurveto
          -59 24 -23 37 -12 vhcurveto
          -35 -14 -26 -27 -70 vvcurveto
          -46 4 -41 3 -35 vhcurveto
          3 -29 2 -25 -22 vvcurveto
          -69 -42 -17 -63 -3 vhcurveto
          -7 -1 -5 -6 -10 vvcurveto
          -10 2 -10 6 -8 vhcurveto
          endchar
        </CharString>
        <CharString name="bracketleft">
          44 -198 43 936 40 hstem
          160 45 vstem
          196 821 rmoveto
          -32 -4 -3 -14 hvcurveto
          -1002 233 vlineto
          15 7 1 42 hvcurveto
          -210 936 190 hlineto
          20 1 5 35 hvcurveto
          endchar
        </CharString>
        <CharString name="bracketright">
          44 -200 40 940 42 hstem
          222 44 vstem
          230 -200 rmoveto
          32 4 3 14 hvcurveto
          1005 -232 vlineto
          -16 -6 0 -42 hvcurveto
          210 -940 -190 hlineto
          -21 -1 -5 -35 hvcurveto
          endchar
        </CharString>
        <CharString name="breve">
          -125 575 43 91 -20 hstem
          9 240 vstem
          37 709 rmoveto
          -18 -4 -10 -6 -14 vvcurveto
          -27 44 -83 74 73 34 62 47 15 vhcurveto
          12 -2 -12 11 -10 hhcurveto
          -5 -5 -3 -6 -2 hvcurveto
          -35 -14 -19 -45 -52 hhcurveto
          -54 -25 57 34 -12 hvcurveto
          endchar
        </CharString>
        <CharString name="breve.cyr">
          -120 580 33 96 -20 hstem
          2 256 vstem
          36 709 rmoveto
          -19 -4 -16 -6 1 -14 rrcurveto
          -39 4 34 -66 88 hhcurveto
          78 30 42 63 22 hvcurveto
          12 -2 -16 10 -11 hhcurveto
          -6 -4 -3 -5 -2 hvcurveto
          -56 -16 -16 -30 -55 hhcurveto
          -63 -22 50 46 -9 hvcurveto
          endchar
        </CharString>
        <CharString name="brokenbar">
          -157 -173 -21 936 -20 hstem
          90 45 vstem
          135 739 rmoveto
          3 -8 -8 0 -6 hhcurveto
          -18 -5 -5 -13 hvcurveto
          -390 vlineto
          -3 8 10 0 4 hhcurveto
          18 5 3 12 hvcurveto
          -127 vmoveto
          3 -8 -8 0 -6 hhcurveto
          -18 -5 -5 -13 hvcurveto
          -398 vlineto
          -3 8 10 0 4 hhcurveto
          18 5 3 12 hvcurveto
          endchar
        </CharString>
        <CharString name="bullet">
          -172 221 120 hstem
          55 113 vstem
          55 281 rmoveto
          -36 18 -24 37 35 23 26 34 34 -20 26 -38 -34 -21 -27 -33 vhcurveto
          endchar
        </CharString>
        <CharString name="bulletoperator">
          -172 221 120 hstem
          55 113 vstem
          55 281 rmoveto
          -36 18 -24 37 35 23 26 34 34 -20 26 -38 -34 -21 -27 -33 vhcurveto
          endchar
        </CharString>
        <CharString name="c">
          -44 -10 41 438 41 hstem
          43 46 vstem
          308 472 rmoveto
          20 -40 18 -44 -81 -100 -31 -240 -216 63 -33 87 68 47 27 20 9 -2 9 -4 10 vhcurveto
          -17 -18 -35 -17 -44 hhcurveto
          -70 -46 33 172 209 74 24 58 36 28 -13 -12 16 hvcurveto
          5 10 2 11 7 vvcurveto
          endchar
        </CharString>
        <CharString name="cacute">
          -44 -10 41 438 41 hstem
          43 46 vstem
          130 572 rmoveto
          61 40 75 60 5 7 rrcurveto
          9 -1 -9 28 -12 hhcurveto
          -2 -76 -59 -58 -59 hvcurveto
          0 11 -27 7 vhcurveto
          178 -100 rmoveto
          20 -40 18 -44 -81 -100 -31 -240 -216 63 -33 87 68 47 27 20 9 -2 9 -4 10 vhcurveto
          -17 -18 -35 -17 -44 hhcurveto
          -70 -46 33 172 209 74 24 58 36 28 -13 -12 16 hvcurveto
          5 10 2 11 7 vvcurveto
          endchar
        </CharString>
        <CharString name="caron">
          -125 575 145 hstem
          13 231 vstem
          136 575 rmoveto
          13 95 109 13 8 -7 8 -12 7 hvcurveto
          0 -48 -50 -41 -51 vhcurveto
          0 -87 98 -12 -10 -12 -20 -8 -2 vhcurveto
          -7 5 103 -107 15 hhcurveto
          endchar
        </CharString>
        <CharString name="ccaron">
          -44 -10 41 438 41 hstem
          43 46 vstem
          197 575 rmoveto
          13 95 109 13 8 -7 8 -12 7 hvcurveto
          0 -49 -50 -40 -51 vhcurveto
          0 -87 98 -12 -10 -12 -20 -8 -2 vhcurveto
          -7 5 103 -107 15 hhcurveto
          111 -103 rmoveto
          20 -40 18 -44 -81 -100 -31 -240 -216 63 -33 87 68 47 27 20 9 -2 9 -4 10 vhcurveto
          -17 -18 -35 -17 -44 hhcurveto
          -70 -46 33 172 209 74 24 58 36 28 -13 -12 16 hvcurveto
          5 10 2 11 7 vvcurveto
          endchar
        </CharString>
        <CharString name="ccedilla">
          -44 -188 31 71 27 49 41 438 41 hstem
          43 46 141 33 vstem
          158 -91 rmoveto
          0 18 5 20 18 16 -5 -30 -27 -16 -9 -19 -20 -17 14 -7 -6 vhcurveto
          -7 -6 -3 -23 0 vvcurveto
          0 24 -9 28 33 36 19 55 40 -25 15 -23 -16 -3 -1 0 vhcurveto
          11 50 rlineto
          60 4 41 25 18 vvcurveto
          9 -2 9 -4 10 vhcurveto
          -17 -18 -35 -17 -44 hhcurveto
          -70 -46 33 172 209 74 24 58 36 28 -13 -12 16 hvcurveto
          5 10 2 11 7 vvcurveto
          20 -40 18 -44 -81 -100 -31 -240 -201 55 -42 77 -5 vhcurveto
          endchar
        </CharString>
        <CharString name="cedilla">
          -125 -188 31 71 27 hstem
          164 33 vstem
          144 3 rmoveto
          -33 hlineto
          -19 -94 rlineto
          0 18 5 20 18 16 -5 -30 -27 -16 -9 -19 -20 -17 14 -7 -6 vhcurveto
          -7 -6 -3 -23 0 vvcurveto
          0 24 -9 28 33 36 19 55 40 -25 15 -23 -16 -3 -1 0 vhcurveto
          endchar
        </CharString>
        <CharString name="cent">
          56 -10 42 435 42 hstem
          94 46 81 40 vstem
          281 642 rmoveto
          -28 -13 -3 -19 hvcurveto
          -113 vlineto
          -72 -11 -74 -56 -216 vvcurveto
          -194 51 -33 76 -6 vhcurveto
          -134 vlineto
          30 10 4 18 hvcurveto
          111 vlineto
          53 1 46 30 15 vvcurveto
          8 -3 13 -4 9 vhcurveto
          -17 -22 -32 -17 -36 hhcurveto
          -77 -46 13 177 218 74 27 65 36 18 -11 -13 19 hvcurveto
          5 10 2 19 6 vvcurveto
          11 -38 18 -40 2 vhcurveto
          endchar
        </CharString>
        <CharString name="checy">
          -14 21 -21 192 40 268 -20 hstem
          35 45 182 44 vstem
          306 500 rmoveto
          -44 0 0 -12 hvcurveto
          -238 vlineto
          -11 -28 -34 -7 -28 hhcurveto
          -65 -27 28 75 hvcurveto
          165 vlineto
          -45 0 0 -12 hvcurveto
          -161 vlineto
          -98 44 -37 86 31 35 6 10 31 vhcurveto
          -208 vlineto
          45 -1 0 12 hvcurveto
          endchar
        </CharString>
        <CharString name="circumflex">
          -125 695 8 hstem
          10 237 vstem
          10 591 rmoveto
          -5 4 9 -12 19 hhcurveto
          11 79 88 0 hvcurveto
          4 -9 76 -80 0 vvcurveto
          18 17 13 6 6 -96 97 0 hvcurveto
          6 -6 -7 2 -5 hhcurveto
          -5 -4 -1 -1 -3 hvcurveto
          endchar
        </CharString>
        <CharString name="colon">
          -204 -5 81 270 81 hstem
          53 76 vstem
          53 387 rmoveto
          -25 11 -16 26 24 15 18 23 22 -13 18 -26 -23 -14 -19 -21 vhcurveto
          -351 vmoveto
          -25 11 -16 26 24 15 18 23 22 -13 18 -26 -23 -14 -19 -21 vhcurveto
          endchar
        </CharString>
        <CharString name="comma">
          -204 -111 187 hstem
          60 70 vstem
          60 39 rmoveto
          -16 6 -13 12 -7 vhcurveto
          -1 -32 -7 -28 -22 -38 rrcurveto
          -9 2 9 -7 8 hhcurveto
          16 47 83 60 34 -13 10 -22 -21 -14 -16 -21 hvcurveto
          endchar
        </CharString>
        <CharString name="commaaccent">
          -382 -242 186 hstem
          94 71 vstem
          94 -93 rmoveto
          -16 7 -13 11 -7 vhcurveto
          -31 -8 -29 -22 -37 vhcurveto
          -10 2 9 -6 9 hhcurveto
          16 47 82 61 33 -14 10 -22 -21 -14 -15 -22 hvcurveto
          endchar
        </CharString>
        <CharString name="copyright">
          80 321 36 50 30 209 30 49 36 hstem
          40 37 73 33 203 37 vstem
          40 540 rmoveto
          -179 71 -40 120 121 71 76 143 168 -64 53 -122 -122 -75 -67 -154 vhcurveto
          37 -4 rmoveto
          139 64 50 97 93 55 -45 -137 -126 -65 -60 -95 -95 -54 41 138 vhcurveto
          213 124 rmoveto
          5 -25 11 -21 -42 -52 -15 -134 -110 32 -10 53 28 27 15 7 3 -4 14 -3 4 vhcurveto
          -6 -11 -17 -7 -16 hhcurveto
          -35 -21 8 82 106 35 13 31 16 8 -6 -5 10 hvcurveto
          2 4 5 17 4 vvcurveto
          endchar
        </CharString>
        <CharString name="currency">
          157 69 40 360 39 hstem
          75 43 304 42 vstem
          432 152 rmoveto
          21 35 11 47 57 vvcurveto
          53 -9 44 -18 34 vhcurveto
          76 76 rlineto
          3 3 1 2 3 vvcurveto
          6 -8 9 -16 16 vhcurveto
          -81 -80 rlineto
          34 -31 -46 17 -59 hhcurveto
          -64 -49 -18 -35 -34 hvcurveto
          -74 73 rlineto
          2 -2 -2 2 -3 hhcurveto
          -6 -8 -8 -17 -17 hvcurveto
          87 -87 rlineto
          -19 -34 -10 -45 -54 vvcurveto
          -56 11 -45 20 -35 vhcurveto
          -80 -80 rlineto
          -2 -3 -2 -2 -3 vvcurveto
          -7 9 -8 16 -16 vhcurveto
          85 85 rlineto
          -32 32 46 -16 58 hhcurveto
          60 46 16 33 33 hvcurveto
          76 -77 rlineto
          -2 3 2 -2 3 hhcurveto
          6 8 8 17 17 hvcurveto
          -254 47 rmoveto
          -96 -54 61 110 122 58 67 102 92 52 -62 -113 -120 -56 -65 -98 hvcurveto
          endchar
        </CharString>
        <CharString name="d">
          25 -10 42 437 41 225 -20 hstem
          43 48 210 45 vstem
          301 487 rmoveto
          17 -23 -27 6 -36 hhcurveto
          -94 -78 -83 -189 -223 74 -25 89 58 50 13 17 32 hvcurveto
          715 vlineto
          -35 -10 0 -23 hvcurveto
          -659 vmoveto
          -15 -24 -32 -6 -34 hhcurveto
          -71 -49 22 187 163 62 65 73 36 18 -6 -17 21 hvcurveto
          endchar
        </CharString>
        <CharString name="dagger">
          50 16 -21 469.5 44.5 198 -20 hstem
          196.5 39 vstem
          203 510 rmoveto
          -4 4 5 -1 5 hhcurveto
          7 5 3 7 1 hvcurveto
          12 181 rlineto
          7 -6 -9 4 -9 hhcurveto
          -15 -14 -8 -14 2 hvcurveto
          56 -187 rmoveto
          -3 -5 -1 -5 -4 vvcurveto
          -7 3 -6 7 -1 vhcurveto
          128 -11 rlineto
          8 6 3 9 10 vvcurveto
          15 -8 14 -13 -4 vhcurveto
          -186 -39 rmoveto
          4 5 2 5 5 vvcurveto
          6 -4 6 -8 1 vhcurveto
          -128 12 rlineto
          -8 -7 -3 -10 -9 vvcurveto
          -13 9 -13 12 2 vhcurveto
          169 -5 rmoveto
          4 -4 -6 2 -5 hhcurveto
          -6 -6 -4 -8 -1 hvcurveto
          -11 -443 rlineto
          -8 6 10 -3 9 hhcurveto
          13 13 8 13 -1 hvcurveto
          endchar
        </CharString>
        <CharString name="daggerdbl">
          50 19 -21 198.5 39 229 44.5 198 -20 hstem
          200 32 vstem
          203 510 rmoveto
          -4 4 5 -1 5 hhcurveto
          7 5 3 7 1 hvcurveto
          12 181 rlineto
          7 -6 -9 4 -9 hhcurveto
          -15 -14 -8 -14 2 hvcurveto
          56 -187 rmoveto
          -3 -5 -1 -5 -4 vvcurveto
          -7 3 -6 7 -1 vhcurveto
          128 -11 rlineto
          8 6 3 9 10 vvcurveto
          15 -8 14 -13 -4 vhcurveto
          -186 -39 rmoveto
          4 5 2 5 5 vvcurveto
          6 -4 6 -8 1 vhcurveto
          -128 12 rlineto
          -8 -7 -3 -10 -9 vvcurveto
          -13 9 -13 12 2 vhcurveto
          139 -217 rmoveto
          -2 6 5 -1 5 hhcurveto
          10 6 5 10 hvcurveto
          201 vlineto
          2 -6 -5 2 -5 hhcurveto
          -10 -6 -6 -10 hvcurveto
          -15 -241 rmoveto
          3 4 1 6 4 vvcurveto
          7 -3 6 -7 1 vhcurveto
          -128 11 rlineto
          -8 -6 -3 -9 -10 vvcurveto
          -15 8 -14 13 3 vhcurveto
          185 39 rmoveto
          -3 -4 -2 -5 -5 vvcurveto
          -6 4 -6 7 -2 vhcurveto
          129 -11 rlineto
          8 7 3 9 9 vvcurveto
          13 -9 14 -13 -2 vhcurveto
          -141 -50 rmoveto
          4 -4 -5 1 -5 hhcurveto
          -7 -5 -3 -8 -2 hvcurveto
          -11 -176 rlineto
          -8 6 9 -3 9 hhcurveto
          15 14 7 14 -3 hvcurveto
          endchar
        </CharString>
        <CharString name="dcaron">
          79 -10 42 437 41 191 -20 54 -20 hstem
          43 48 210 45 vstem
          301 487 rmoveto
          17 -23 -27 6 -36 hhcurveto
          -94 -78 -83 -189 -223 74 -25 89 58 50 13 17 32 hvcurveto
          715 vlineto
          -35 -10 0 -23 hvcurveto
          96 -48 rmoveto
          -16 7 -14 11 -6 vhcurveto
          -32 -5 -51 -18 -38 vhcurveto
          -9 3 9 -7 8 hhcurveto
          16 40 106 60 34 -14 10 -22 -21 -14 -16 -21 hvcurveto
          -96 -611 rmoveto
          -15 -24 -32 -6 -34 hhcurveto
          -71 -49 22 187 163 62 65 73 36 18 -6 -17 21 hvcurveto
          endchar
        </CharString>
        <CharString name="dcroat">
          37 -10 42 437 41 90 44 hstem
          43 48 210 45 vstem
          346 644 rmoveto
          91 vlineto
          -35 -10 0 -23 hvcurveto
          -68 -104 vlineto
          -12 -6 -9 -13 -1 hvcurveto
          -7 0 -7 3 -8 vhcurveto
          120 -113 hlineto
          17 -23 -27 6 -36 hhcurveto
          -94 -78 -83 -189 -223 74 -25 89 58 50 13 17 32 hvcurveto
          580 65 vlineto
          12 6 9 14 6 0 7 -3 8 hvcurveto
          -125 -591 rmoveto
          -15 -24 -32 -6 -34 hhcurveto
          -71 -49 22 187 163 62 65 73 36 18 -6 -17 21 hvcurveto
          endchar
        </CharString>
        <CharString name="decy">
          43 0 43 417 40 hstem
          30 43 66 41 131 45 vstem
          407 43 rmoveto
          -51 457 -185 hlineto
          -29 -2 -1 -13 -1 hvcurveto
          -23 -372 -34 -60 -33 -11 rrcurveto
          -19 -190 hlineto
          -11 11 -1 17 vhcurveto
          11 61 3 62 1 36 rrcurveto
          291 hlineto
          1 -36 3 -62 11 -61 rrcurveto
          17 11 1 11 hvcurveto
          -96 607 rmoveto
          -417 -201 vlineto
          32 42 22 99 16 276 rrcurveto
          endchar
        </CharString>
        <CharString name="degree">
          -6 565 35 108 34 hstem
          102 35 105 35 vstem
          102 653 rmoveto
          -72 33 -16 52 57 33 31 58 66 -28 22 -56 -55 -36 -28 -61 vhcurveto
          35 -2 rmoveto
          43 21 14 36 31 17 -13 -41 -38 -20 -16 -35 -32 -18 14 37 vhcurveto
          endchar
        </CharString>
        <CharString name="dieresis">
          -125 599 78 hstem
          48 55 52 54 vstem
          77 677 rmoveto
          -20 -9 -15 -27 -25 9 -11 17 20 9 15 27 25 -8 11 -18 hvcurveto
          107 hmoveto
          -20 -9 -15 -27 -25 9 -11 17 20 8 15 28 24 -7 11 -18 hvcurveto
          endchar
        </CharString>
        <CharString name="divide">
          56 261 41 hstem
          181 72 vstem
          181 414 rmoveto
          -23 11 -15 24 22 15 17 21 22 -13 16 -24 -22 -13 -17 -21 vhcurveto
          202 -153 rmoveto
          12 0 9 32 hvcurveto
          -338 hlineto
          -12 0 -9 -32 hvcurveto
          136 -117 rmoveto
          -23 11 -15 24 22 15 16 22 21 -13 17 -24 -22 -13 -18 -20 vhcurveto
          endchar
        </CharString>
        <CharString name="divisionslash">
          -186 12 -21 719 -20 hstem
          -116 466 vstem
          350 691 rmoveto
          13 -8 -11 6 -10 hhcurveto
          -8 -5 -5 -5 -2 hvcurveto
          -422 -690 rlineto
          -12 6 13 -7 10 hhcurveto
          7 5 3 4 1 hvcurveto
          endchar
        </CharString>
        <CharString name="djecy">
          41 -174 43 152 -21 467 43 82 40 hstem
          62 45 209 45 vstem
          107 592 rmoveto
          144 hlineto
          11 6 8 13 1 hvcurveto
          6 -1 6 -2 7 vhcurveto
          -159 103 hlineto
          -36 -9 0 -23 hvcurveto
          -80 -55 vlineto
          -12 -7 -8 -13 -6 1 -6 2 -7 hvcurveto
          71 -592 hlineto
          44 1 0 12 hvcurveto
          410 vlineto
          35 36 50 10 34 hhcurveto
          70 19 -36 -102 hvcurveto
          -136 vlineto
          -237 -24 -87 -90 -21 -25 4 6 -26 vhcurveto
          -2 -6 -2 -9 -9 vvcurveto
          -15 47 -14 36 118 34 111 259 vhcurveto
          141 vlineto
          126 -1 -24 47 -99 hhcurveto
          -41 -48 -13 -31 -41 hvcurveto
          endchar
        </CharString>
        <CharString name="dollar">
          56 -7 44 539 40 120 -20 hstem
          74 47 87 41 73 47 vstem
          176 408 rmoveto
          -32 31 -23 30 30 vvcurveto
          54 46 23 70 54 38 -14 -11 16 vhcurveto
          8 8 5 18 8 vvcurveto
          5 -32 24 -77 3 vhcurveto
          119 vlineto
          -28 -13 -3 -18 hvcurveto
          -99 vlineto
          -85 -7 -49 -44 -65 vvcurveto
          -42 24 -35 41 -39 vhcurveto
          112 -102 rlineto
          53 -50 18 -33 -45 vvcurveto
          -69 -34 -48 -88 -62 -31 15 16 -19 vhcurveto
          -10 -7 -7 -21 -6 vvcurveto
          -10 37 -30 86 -1 vhcurveto
          -114 vlineto
          30 10 3 18 hvcurveto
          95 vlineto
          100 12 35 64 82 vvcurveto
          55 -17 40 -52 48 vhcurveto
          endchar
        </CharString>
        <CharString name="dotaccent">
          -125 598 80 hstem
          101 56 vstem
          101 635 rmoveto
          -26 9 -11 17 21 9 16 28 24 -8 12 -19 -20 -9 -16 -27 vhcurveto
          endchar
        </CharString>
        <CharString name="dotlessi">
          -213 21 -21 500 -20 hstem
          62 45 vstem
          107 500 rmoveto
          -36 -9 0 -23 hvcurveto
          -477 vlineto
          45 0 0 12 hvcurveto
          endchar
        </CharString>
        <CharString name="dotlessj">
          -201 -195 43 652 -20 hstem
          69 44 vstem
          113 500 rmoveto
          -36 -8 0 -23 hvcurveto
          -503 vlineto
          -83 -9 -43 -69 -47 -30 13 15 -23 vhcurveto
          -6 -9 -2 -8 -10 vvcurveto
          -21 39 -23 71 100 20 67 91 vhcurveto
          endchar
        </CharString>
        <CharString name="dzecy">
          -5 -10 42 437 41 hstem
          46 49 189 49 vstem
          223 220 rmoveto
          42 -31 19 -31 -42 vvcurveto
          -58 -46 -26 -71 -51 -33 8 19 -30 vhcurveto
          -8 -9 -2 -10 -9 vvcurveto
          -22 48 -19 79 102 61 46 87 51 -23 36 -48 38 vhcurveto
          -114 76 rlineto
          -44 29 -9 20 26 vvcurveto
          45 50 25 66 46 32 -11 -22 35 vhcurveto
          7 9 5 9 8 vvcurveto
          15 -37 33 -92 -97 -64 -42 -70 -37 10 -30 58 -38 vhcurveto
          endchar
        </CharString>
        <CharString name="dzhecy">
          29 0 43 457 -20 hstem
          62 45 77 30 90 45 vstem
          349 500 rmoveto
          -45 0 0 -12 hvcurveto
          -445 -197 457 vlineto
          -45 0 0 -12 hvcurveto
          -488 113 vlineto
          9 -156 rlineto
          -2 5 -2 6 8 11 3 10 vhcurveto
          4 147 rlineto
          103 hlineto
          28 0 1 13 hvcurveto
          endchar
        </CharString>
        <CharString name="e">
          -3 -10 44 185 53 197 41 hstem
          41 45 215 44 vstem
          212 34 rmoveto
          -74 -51 22 163 -1 hvcurveto
          42 -1 119 1 90 17 rrcurveto
          6 32 2 43 41 vvcurveto
          97 -37 61 -88 -81 -98 -28 -260 -202 70 -30 95 72 63 26 21 8 -2 13 -4 11 vhcurveto
          -22 -31 -46 -13 -46 hhcurveto
          5 435 rmoveto
          65 18 -45 -83 1 hvcurveto
          -22 -1 -22 -3 -25 vhcurveto
          -63 -15 -107 0 -40 1 rrcurveto
          192 8 68 19 54 hhcurveto
          endchar
        </CharString>
        <CharString name="eacute">
          -3 -10 44 185 53 197 41 hstem
          41 45 215 44 vstem
          130 572 rmoveto
          61 40 75 60 5 7 rrcurveto
          9 -1 -8 28 -12 hhcurveto
          -3 -76 -59 -58 -59 hvcurveto
          0 11 -27 7 vhcurveto
          82 -538 rmoveto
          -74 -51 22 163 -1 hvcurveto
          42 -1 119 1 90 17 rrcurveto
          6 32 2 43 41 vvcurveto
          97 -37 61 -88 -81 -98 -28 -260 -202 70 -30 95 72 63 26 21 8 -2 13 -4 11 vhcurveto
          -22 -31 -46 -13 -46 hhcurveto
          5 435 rmoveto
          65 18 -45 -83 1 hvcurveto
          -22 -1 -22 -3 -25 vhcurveto
          -63 -15 -107 0 -40 1 rrcurveto
          192 8 68 19 54 hhcurveto
          endchar
        </CharString>
        <CharString name="ecaron">
          -3 -10 44 185 53 197 41 hstem
          41 45 215 44 vstem
          197 575 rmoveto
          13 95 109 13 8 -7 8 -12 7 hvcurveto
          0 -48 -50 -41 -51 vhcurveto
          0 -87 98 -12 -10 -12 -20 -8 -2 vhcurveto
          -7 5 103 -107 15 hhcurveto
          15 -541 rmoveto
          -74 -51 22 163 -1 hvcurveto
          42 -1 119 1 90 17 rrcurveto
          6 32 2 43 41 vvcurveto
          97 -37 61 -88 -81 -98 -28 -260 -202 70 -30 95 72 63 26 21 8 -2 13 -4 11 vhcurveto
          -22 -31 -46 -13 -46 hhcurveto
          5 435 rmoveto
          65 18 -45 -83 1 hvcurveto
          -22 -1 -22 -3 -25 vhcurveto
          -63 -15 -107 0 -40 1 rrcurveto
          192 8 68 19 54 hhcurveto
          endchar
        </CharString>
        <CharString name="ecircumflex">
          -3 -10 44 185 53 197 41 185 8 hstem
          41 45 215 44 vstem
          71 591 rmoveto
          -5 4 9 -12 19 hhcurveto
          11 79 88 0 hvcurveto
          5 -9 75 -80 0 vvcurveto
          18 17 13 6 6 -96 97 0 hvcurveto
          6 -6 -7 2 -5 hhcurveto
          -5 -4 -1 -1 -2 hvcurveto
          29 -667 rmoveto
          -74 -51 22 163 -1 hvcurveto
          42 -1 119 1 90 17 rrcurveto
          6 32 2 43 41 vvcurveto
          97 -37 61 -88 -81 -98 -28 -260 -202 70 -30 95 72 63 26 21 8 -2 13 -4 11 vhcurveto
          -22 -31 -46 -13 -46 hhcurveto
          5 435 rmoveto
          65 18 -45 -83 1 hvcurveto
          -22 -1 -22 -3 -25 vhcurveto
          -63 -15 -107 0 -40 1 rrcurveto
          192 8 68 19 54 hhcurveto
          endchar
        </CharString>
        <CharString name="ecy">
          -58 -11 42 199 39 200 41 hstem
          35 46 vstem
          248 230 rmoveto
          37 -3 2 -13 vhcurveto
          -151 hlineto
          180 2 64 20 51 hhcurveto
          41 32 -16 -14 16 hvcurveto
          5 9 4 10 8 vvcurveto
          18 -41 26 -64 -62 -94 -19 -227 -230 73 -45 85 54 47 29 19 7 -3 11 -4 10 vhcurveto
          -15 -18 -34 -19 -37 hhcurveto
          -66 -46 40 159 -4 hvcurveto
          endchar
        </CharString>
        <CharString name="edieresis">
          -3 -10 44 185 53 197 41 hstem
          41 45 215 44 vstem
          212 34 rmoveto
          -74 -51 22 163 -1 hvcurveto
          42 -1 119 1 90 17 rrcurveto
          6 32 2 43 41 vvcurveto
          97 -37 61 -88 -81 -98 -28 -260 -202 70 -30 95 72 63 26 21 8 -2 13 -4 11 vhcurveto
          -22 -31 -46 -13 -46 hhcurveto
          5 435 rmoveto
          65 18 -45 -83 1 hvcurveto
          -22 -1 -22 -3 -25 vhcurveto
          -63 -15 -107 0 -40 1 rrcurveto
          192 8 68 19 54 hhcurveto
          -82 130 rmoveto
          19 9 14 25 1 hvcurveto
          26 -7 13 -19 -19 -9 -14 -25 vhcurveto
          -27 -1 8 -12 18 hhcurveto
          107 hmoveto
          19 9 14 25 hvcurveto
          26 1 -7 13 -19 hhcurveto
          -19 -9 -14 -25 -1 hvcurveto
          -27 8 -12 18 vhcurveto
          endchar
        </CharString>
        <CharString name="edotaccent">
          -3 -10 44 185 53 197 41 hstem
          41 45 215 44 vstem
          188 598 rmoveto
          20 8 14 26 1 hvcurveto
          27 1 -7 13 -20 hhcurveto
          -19 -9 -14 -26 -1 hvcurveto
          -28 -1 9 -12 18 hhcurveto
          24 -564 rmoveto
          -74 -51 22 163 -1 hvcurveto
          42 -1 119 1 90 17 rrcurveto
          6 32 2 43 41 vvcurveto
          97 -37 61 -88 -81 -98 -28 -260 -202 70 -30 95 72 63 26 21 8 -2 13 -4 11 vhcurveto
          -22 -31 -46 -13 -46 hhcurveto
          5 435 rmoveto
          65 18 -45 -83 1 hvcurveto
          -22 -1 -22 -3 -25 vhcurveto
          -63 -15 -107 0 -40 1 rrcurveto
          192 8 68 19 54 hhcurveto
          endchar
        </CharString>
        <CharString name="efcy">
          128 -176 -21 209 -21 479 40 225 -20 hstem
          38 45 152 41 153 45 vstem
          276 735 rmoveto
          -32 -9 -4 -21 hvcurveto
          -201 vlineto
          -144 -9 -53 -75 -176 vvcurveto
          -191 55 -66 142 -2 vhcurveto
          -187 vlineto
          -1 7 5 0 6 hhcurveto
          19 4 5 13 hvcurveto
          171 vlineto
          143 8 55 72 179 vvcurveto
          184 -54 72 -144 4 vhcurveto
          -40 vmoveto
          117 -4 36 -61 -153 vvcurveto
          -151 -38 -62 -115 -9 vhcurveto
          -41 hmoveto
          -116 5 -36 59 149 vvcurveto
          154 37 63 115 9 vhcurveto
          endchar
        </CharString>
        <CharString name="egrave">
          -3 -10 44 185 53 197 41 hstem
          41 45 215 44 vstem
          254 570 rmoveto
          7 10 26 0 hvcurveto
          59 -58 -76 58 -3 hhcurveto
          -12 -8 -28 -9 -2 hvcurveto
          6 -6 75 -60 61 -40 rrcurveto
          -42 -536 rmoveto
          -74 -51 22 163 -1 hvcurveto
          42 -1 119 1 90 17 rrcurveto
          6 32 2 43 41 vvcurveto
          97 -37 61 -88 -81 -98 -28 -260 -202 70 -30 95 72 63 26 21 8 -2 13 -4 11 vhcurveto
          -22 -31 -46 -13 -46 hhcurveto
          5 435 rmoveto
          65 18 -45 -83 1 hvcurveto
          -22 -1 -22 -3 -25 vhcurveto
          -63 -15 -107 0 -40 1 rrcurveto
          192 8 68 19 54 hhcurveto
          endchar
        </CharString>
        <CharString name="eight">
          56 -9 43 629 43 hstem
          43 43 267 42 vstem
          335 328 rmoveto
          -19 17 -23 15 -23 13 rrcurveto
          59 33 66 51 88 vvcurveto
          137 -98 24 -75 -90 -82 -52 -116 -45 19 -46 41 -29 vhcurveto
          18 -15 23 -12 24 -13 rrcurveto
          -71 -33 -61 -73 -91 vvcurveto
          -111 58 -79 128 116 58 75 115 70 -28 42 -40 35 vhcurveto
          -241 213 rmoveto
          86 63 36 69 54 73 -18 -102 -67 -61 -50 -65 -30 vhcurveto
          -30 15 -27 13 -15 12 rrcurveto
          -44 30 -17 34 41 vvcurveto
          133 -507 rmoveto
          -94 -47 63 85 81 62 66 74 26 hvcurveto
          28 -15 26 -15 20 -18 rrcurveto
          34 -28 30 -35 -63 vvcurveto
          -88 -47 -59 -86 vhcurveto
          endchar
        </CharString>
        <CharString name="elcy">
          12 21 -21 460 40 hstem
          286 46 vstem
          332 500 rmoveto
          -176 hlineto
          -38 -2 -1 -13 hvcurveto
          -24 -321 -13 -130 -78 -2 rrcurveto
          -1 -5 0 -4 -3 vvcurveto
          -18 11 -6 14 86 25 154 309 22 vhcurveto
          128 -460 hlineto
          46 0 0 11 hvcurveto
          endchar
        </CharString>
        <CharString name="ellipsis">
          93 -5 81 hstem
          47 76 76 76 76 76 vstem
          47 36 rmoveto
          -25 11 -16 26 24 15 18 23 22 -13 18 -26 -24 -13 -19 -21 vhcurveto
          152 hmoveto
          -25 11 -16 26 24 15 18 23 22 -13 18 -26 -23 -14 -19 -21 vhcurveto
          152 hmoveto
          -25 11 -16 26 24 15 18 23 22 -13 18 -26 -23 -14 -19 -21 vhcurveto
          endchar
        </CharString>
        <CharString name="emacron">
          -3 -10 44 185 53 197 41 100 44 hstem
          41 45 215 44 vstem
          297 610 rmoveto
          11 7 9 14 6 0 7 -3 8 hvcurveto
          -229 hlineto
          -12 -6 -9 -13 -1 hvcurveto
          -7 0 -7 3 -8 vhcurveto
          145 -576 rmoveto
          -74 -51 22 163 -1 hvcurveto
          42 -1 119 1 90 17 rrcurveto
          6 32 2 43 41 vvcurveto
          97 -37 61 -88 -81 -98 -28 -260 -202 70 -30 95 72 63 26 21 8 -2 13 -4 11 vhcurveto
          -22 -31 -46 -13 -46 hhcurveto
          5 435 rmoveto
          65 18 -45 -83 1 hvcurveto
          -22 -1 -22 -3 -25 vhcurveto
          -63 -15 -107 0 -40 1 rrcurveto
          192 8 68 19 54 hhcurveto
          endchar
        </CharString>
        <CharString name="emcy">
          104 21 -21 492 9 hstem
          62 42 278 42 vstem
          62 hmoveto
          42 0 0 9 hvcurveto
          184 vlineto
          33 vlineto
          39 -1 65 -1 89 vhcurveto
          25 -55 48 -127 2 -6 50 -128 rcurveline
          22 hlineto
          5 4 2 5 2 hvcurveto
          51 121 75 196 rlineto
          -3 -140 -1 -72 -28 vvcurveto
          -187 vlineto
          44 -2 0 9 hvcurveto
          492 -37 vlineto
          -11 -1 -6 -3 -1 hvcurveto
          -86 -220 -11 -27 -19 -53 -14 -40 rlinecurve
          0 -25 74 -5 10 vhcurveto
          -104 265 rlineto
          -36 hlineto
          -12 0 -9 0 hvcurveto
          endchar
        </CharString>
        <CharString name="emdash">
          318 261 41 hstem
          6 688 vstem
          682 261 rmoveto
          12 0 9 32 hvcurveto
          -676 hlineto
          -12 0 -9 -32 hvcurveto
          endchar
        </CharString>
        <CharString name="ency">
          32 21 -21 229 41 230 -20 hstem
          62 45 200 45 vstem
          352 500 rmoveto
          -44 -1 0 -12 hvcurveto
          -218 -200 230 vlineto
          -46 1 0 -12 hvcurveto
          -488 vlineto
          46 -1 0 12 hvcurveto
          217 200 -229 vlineto
          46 -1 0 12 hvcurveto
          endchar
        </CharString>
        <CharString name="endash">
          59 261 41 hstem
          45 350 vstem
          383 261 rmoveto
          12 0 9 32 hvcurveto
          -337 hlineto
          -13 0 -9 -32 hvcurveto
          endchar
        </CharString>
        <CharString name="endescendercy">
          39 0 43 186 41 230 -20 hstem
          62 45 200 45 vstem
          403 43 rmoveto
          -51 457 hlineto
          -44 -1 0 -12 hvcurveto
          -218 -200 230 vlineto
          -46 1 0 -12 hvcurveto
          -488 vlineto
          46 -1 0 12 hvcurveto
          217 200 -229 53 vlineto
          1 -36 3 -62 11 -61 rrcurveto
          17 11 1 11 hvcurveto
          endchar
        </CharString>
        <CharString name="eogonek">
          -3 -195 37 148 44 185 39 211 41 hstem
          41 46 132 41 41 44 vstem
          220 510 rmoveto
          -81 -98 -28 -260 -201 69 -31 95 20 19 3 4 16 hvcurveto
          -22 -29 -19 -41 -42 vvcurveto
          -55 28 -25 46 25 20 5 14 2 vhcurveto
          1 3 0 3 -1 5 -1 4 -1 6 -4 5 rrcurveto
          -6 -11 -8 -2 -13 hhcurveto
          -30 -12 16 31 49 32 54 33 25 hvcurveto
          6 5 10 8 7 vvcurveto
          8 -2 13 -4 11 vhcurveto
          -22 -31 -46 -13 -46 hhcurveto
          -71 -54 17 168 hvcurveto
          33 123 -1 18 94 hvcurveto
          6 32 2 43 41 vvcurveto
          97 -37 61 -88 vhcurveto
          -3 -41 rmoveto
          65 18 -45 -83 1 hvcurveto
          -22 -1 -22 -3 -25 vhcurveto
          -15 -68 -113 1 -29 hhcurveto
          194 7 69 17 54 hhcurveto
          endchar
        </CharString>
        <CharString name="equal">
          56 176 42 127 42 hstem
          45 350 vstem
          383 345 rmoveto
          12 0 10 32 hvcurveto
          -338 hlineto
          -12 0 -9 -33 hvcurveto
          338 -169 rmoveto
          12 0 9 33 hvcurveto
          -338 hlineto
          -12 0 -10 -32 hvcurveto
          endchar
        </CharString>
        <CharString name="ercy">
          24 -172 -21 183 42 437 41 hstem
          61 45 216 48 vstem
          61 -179 rmoveto
          -13 7 -5 14 8 8 1 3 8 vhcurveto
          222 vlineto
          -18 14 35 -21 45 hhcurveto
          63 107 36 271 164 -62 49 -103 -55 -46 -13 -28 -43 hvcurveto
          45 -27 rmoveto
          17 27 32 10 38 hhcurveto
          77 42 -37 -147 -229 -88 -24 -44 -31 -33 16 35 -20 hvcurveto
          endchar
        </CharString>
        <CharString name="ereversedcy">
          -48 -11 42 199 39 201 41 hstem
          253 45 vstem
          91 269 rmoveto
          -11 -1 -4 -35 hvcurveto
          173 hlineto
          -159 -4 -42 -40 -72 hhcurveto
          -36 -37 17 17 -22 hvcurveto
          -4 -9 -2 -12 -8 vvcurveto
          -19 47 -28 61 97 60 48 223 229 -90 22 -67 -62 -47 -22 -19 -8 2 -12 5 -9 vhcurveto
          13 18 34 16 45 hhcurveto
          48 67 -20 -181 2 hvcurveto
          endchar
        </CharString>
        <CharString name="escy">
          -44 -10 41 438 41 hstem
          43 46 vstem
          308 472 rmoveto
          20 -40 18 -44 -81 -100 -31 -240 -216 63 -33 87 68 47 27 20 9 -2 9 -4 10 vhcurveto
          -17 -18 -35 -17 -44 hhcurveto
          -70 -46 33 172 209 74 24 58 36 28 -13 -12 16 hvcurveto
          5 10 2 11 7 vvcurveto
          endchar
        </CharString>
        <CharString name="estimated">
          427 18 18 276 16 275 18 hstem
          70 122 426 122 vstem
          740 312 rmoveto
          7 vlineto
          167 -150 135 -185 -185 -150 -135 -167 -166 150 -135 185 107 98 47 70 60 vhcurveto
          -49 hlineto
          -60 -51 -78 -39 -86 hhcurveto
          -81 -74 34 55 -51 hvcurveto
          -4 5 -4 6 8 vvcurveto
          164 vlineto
          3 2 1 3 vhcurveto
          421 21 rmoveto
          -3 -2 -2 -3 vhcurveto
          -416 hlineto
          -3 -2 2 3 hvcurveto
          162 vlineto
          8 4 7 5 5 vhcurveto
          54 52 72 34 81 hhcurveto
          79 72 -33 -52 52 hvcurveto
          5 -5 4 -7 -8 vvcurveto
          endchar
        </CharString>
        <CharString name="eth">
          53 -10 40 437 41 235 -20 hstem
          41 45 266 45 vstem
          345 671 rmoveto
          5 2 2 2 5 vvcurveto
          6 -4 10 -7 18 vhcurveto
          -79 -31 -18 18 -20 18 -23 17 rlinecurve
          4 -5 -8 3 -6 hhcurveto
          -12 -13 -8 -14 -6 hvcurveto
          25 -18 23 -18 19 -20 -69 -27 rcurveline
          -5 -3 -2 -2 -5 vvcurveto
          -7 4 -10 7 -17 vhcurveto
          96 38 42 -50 27 -57 16 -66 rlinecurve
          34 -28 -41 15 -49 hhcurveto
          -111 -64 -86 -166 -189 62 -77 119 149 26 142 157 155 -33 116 -72 89 hvcurveto
          -71 -619 rmoveto
          -84 -51 65 157 138 50 77 88 51 41 -25 -52 31 hvcurveto
          3 -30 2 -32 -33 vvcurveto
          -134 -13 -131 -118 vhcurveto
          endchar
        </CharString>
        <CharString name="euro">
          56 -10 44 181 38 105 38 167 42 hstem
          114 48 vstem
          282 215 rmoveto
          18 2 10 28 hvcurveto
          -140 14 hlineto
          34 1 30 2 27 vhcurveto
          156 hlineto
          17 3 10 28 hvcurveto
          -171 hlineto
          150 23 66 17 55 hhcurveto
          36 32 -21 -5 8 hvcurveto
          5 5 4 13 13 vvcurveto
          8 -31 29 -63 -72 -85 -26 -183 -26 vhcurveto
          -78 hlineto
          -18 -2 -10 -28 hvcurveto
          94 hlineto
          -3 -27 -1 -30 -32 vvcurveto
          -16 -70 vlineto
          -18 -2 -10 -28 hvcurveto
          92 hlineto
          -201 11 77 -24 82 hhcurveto
          63 53 36 16 12 -4 13 -4 7 hvcurveto
          -20 -19 -41 -20 -41 hhcurveto
          -59 -60 16 165 -11 hvcurveto
          endchar
        </CharString>
        <CharString name="exclam">
          -195 -5 81 631 -20 hstem
          67 53 vstem
          67 182 rmoveto
          36 13 3 18 1 hvcurveto
          6 504 rlineto
          -42 -14 -1 -12 hvcurveto
          -12 -659 rmoveto
          -24 12 -16 26 23 16 18 22 23 -14 18 -25 -24 -14 -19 -22 vhcurveto
          endchar
        </CharString>
        <CharString name="exclamdown">
          -195 -177 -21 626 81 hstem
          72 49 vstem
          133 468 rmoveto
          24 -11 17 -26 -24 -15 -18 -23 -23 13 -17 26 23 14 19 21 vhcurveto
          -12 -142 rmoveto
          -35 -14 -3 -18 hvcurveto
          -6 -503 rlineto
          41 15 1 12 -1 hvcurveto
          endchar
        </CharString>
        <CharString name="f">
          -136 21 -21 460 40 198 42 hstem
          94 45 vstem
          94 460 rmoveto
          -460 33 vlineto
          10 2 7 5 hvcurveto
          448 98 vlineto
          12 0 3 37 hvcurveto
          -110 64 hlineto
          123 65 11 55 28 23 -4 -8 24 vhcurveto
          3 8 2 9 9 vvcurveto
          14 -24 14 -60 -70 -91 -21 -154 vhcurveto
          -65 -65 vlineto
          -14 0 -3 -37 hvcurveto
          endchar
        </CharString>
        <CharString name="f.ss02">
          -137 21 -21 460 40 198 40 hstem
          93 45 vstem
          93 460 rmoveto
          -460 33 vlineto
          12 0 12 0 hvcurveto
          448 98 vlineto
          12 0 3 37 hvcurveto
          -110 117 hlineto
          72 32 9 34 16 25 -4 -6 13 vhcurveto
          3 8 2 9 7 vvcurveto
          15 -20 11 -44 -48 -58 -15 -99 vhcurveto
          -124 -65 vlineto
          -14 0 -3 -37 hvcurveto
          endchar
        </CharString>
        <CharString name="f_f">
          80 21 -21 460 40 194 41 hstem
          94 45 173 45 vstem
          94 500 rmoveto
          -65 hlineto
          -14 0 -3 -37 hvcurveto
          79 -460 33 hlineto
          12 0 12 0 hvcurveto
          448 173 -460 32 vlineto
          13 0 12 0 hvcurveto
          448 97 vlineto
          12 1 3 37 hvcurveto
          -110 64 hlineto
          123 64 11 55 29 22 -4 -8 24 vhcurveto
          3 8 3 8 7 vvcurveto
          18 -27 13 -57 -35 -48 -4 -34 -34 vhcurveto
          18 -27 -38 15 -41 hhcurveto
          -50 -106 -8 -152 hvcurveto
          218 -75 rmoveto
          -50 hlineto
          -123 76 hlineto
          113 71 5 35 38 26 -7 -19 23 vhcurveto
          -12 -25 -8 -33 -45 vvcurveto
          endchar
        </CharString>
        <CharString name="f_f_i">
          237 21 -21 460 40 194 41 hstem
          95 45 172 45 154 46 vstem
          95 500 rmoveto
          -65 hlineto
          -14 0 -3 -37 hvcurveto
          79 -460 32 hlineto
          13 0 12 0 hvcurveto
          448 172 -460 33 vlineto
          12 0 12 0 hvcurveto
          448 78 vlineto
          12 0 3 37 hvcurveto
          -90 63 hlineto
          125 64 10 56 34 32 -7 -10 25 vhcurveto
          3 8 3 11 8 vvcurveto
          19 -37 13 -59 -42 -48 -4 -33 -33 vhcurveto
          18 -27 -37 14 -40 hhcurveto
          -51 -105 -8 -152 hvcurveto
          217 -75 rmoveto
          -172 76 hlineto
          113 71 5 35 37 25 -7 -18 24 vhcurveto
          -12 -25 -8 -34 -45 vvcurveto
          245 -65 rmoveto
          -36 -10 0 -23 hvcurveto
          -477 vlineto
          46 0 0 12 hvcurveto
          endchar
        </CharString>
        <CharString name="f_f_l">
          247 21 -21 460 40 194 41 hstem
          95 45 172 45 165 45 vstem
          567 714 rmoveto
          11 -20 -37 14 -52 hhcurveto
          -34 -41 -4 -31 -30 hvcurveto
          18 -27 -36 13 -39 hhcurveto
          -51 -105 -8 -152 hvcurveto
          -75 -65 vlineto
          -14 0 -3 -37 hvcurveto
          79 -460 32 hlineto
          13 0 12 0 hvcurveto
          448 172 -460 33 vlineto
          12 0 12 0 hvcurveto
          448 77 vlineto
          13 0 3 37 hvcurveto
          -90 71 hlineto
          122 55 4 49 29 20 -6 -4 12 vhcurveto
          -687 vlineto
          46 -1 0 12 hvcurveto
          -255 488 rmoveto
          -172 76 hlineto
          113 71 5 35 37 24 -7 -17 23 vhcurveto
          -11 -25 -7 -34 -46 vvcurveto
          endchar
        </CharString>
        <CharString name="fi">
          12 21 -21 460 40 198 42 hstem
          90 45 154 45 vstem
          90 460 rmoveto
          -460 32 vlineto
          13 0 12 0 hvcurveto
          448 77 vlineto
          12 1 3 37 hvcurveto
          -90 63 hlineto
          125 64 10 56 34 31 -7 -10 26 vhcurveto
          3 8 2 11 8 vvcurveto
          19 -36 13 -60 -73 -92 -13 -162 vhcurveto
          -65 -65 vlineto
          -14 0 -3 -37 hvcurveto
          323 40 rmoveto
          -35 -10 0 -23 hvcurveto
          -477 vlineto
          46 -1 0 12 hvcurveto
          endchar
        </CharString>
        <CharString name="firsttonechinese">
          -125 610 44 hstem
          3 251 vstem
          236 610 rmoveto
          11 6 9 14 1 hvcurveto
          6 0 7 -3 8 vhcurveto
          -229 hlineto
          -12 -6 -9 -13 -1 hvcurveto
          -7 0 -7 2 -8 vhcurveto
          endchar
        </CharString>
        <CharString name="five">
          56 -100 43 403 40 172 42 hstem
          343 46 vstem
          78 600 rmoveto
          -27 -270 rlineto
          1 6 45 15 56 hhcurveto
          75 110 -21 -135 -139 -45 -108 -139 -52 -35 12 22 -25 hvcurveto
          -5 -12 -1 -10 -15 vvcurveto
          -14 39 -26 79 172 58 117 177 164 -124 28 -82 -57 -26 -7 -1 -2 vhcurveto
          19 182 240 -2 rlineto
          24 3 5 37 hvcurveto
          endchar
        </CharString>
        <CharString name="five.001">
          56 -100 43 403 40 172 42 hstem
          343 46 vstem
          78 600 rmoveto
          -27 -270 rlineto
          1 6 45 15 56 hhcurveto
          75 110 -21 -135 -139 -45 -108 -139 -52 -35 12 22 -25 hvcurveto
          -5 -12 -1 -10 -15 vvcurveto
          -14 39 -26 79 172 58 117 177 164 -124 28 -82 -57 -26 -7 -1 -2 vhcurveto
          19 182 240 -2 rlineto
          24 3 5 37 hvcurveto
          endchar
        </CharString>
        <CharString name="fl">
          22 21 -21 460 40 198 40 hstem
          89 45 164 45 vstem
          343 713 rmoveto
          16 -29 -36 9 -43 hhcurveto
          -54 -92 -11 -162 hvcurveto
          -65 -65 vlineto
          -14 0 -3 -37 hvcurveto
          79 -460 33 hlineto
          12 0 12 0 hvcurveto
          448 94 vlineto
          12 1 3 37 hvcurveto
          -107 67 hlineto
          129 64 2 39 20 22 -3 -7 19 vhcurveto
          -688 33 vlineto
          12 0 12 0 hvcurveto
          endchar
        </CharString>
        <CharString name="florin">
          98 -195 41 612 42 195 42 hstem
          218 45 vstem
          218 500 rmoveto
          -128 hlineto
          -13 0 -9 -33 hvcurveto
          141 -485 hlineto
          -123 -64 -4 -56 -28 -22 4 8 -25 vhcurveto
          -3 -8 -2 -11 -8 vvcurveto
          -13 32 -13 52 70 91 5 163 vhcurveto
          485 152 vlineto
          12 0 10 32 hvcurveto
          -164 69 hlineto
          122 64 4 55 29 22 -3 -8 24 vhcurveto
          3 8 3 11 8 vvcurveto
          13 -32 13 -52 -70 -91 -5 -163 vhcurveto
          endchar
        </CharString>
        <CharString name="four">
          56 21 -21 163 43 hstem
          267 45 vstem
          312 597 rmoveto
          2 -9 5 -12 -6 -9 -2 -6 -7 vhcurveto
          -110 -99 -117 -238 -65 vvcurveto
          -12 4 -12 7 -7 vhcurveto
          214 -163 hlineto
          47 -2 0 18 hvcurveto
          145 77 vlineto
          12 3 15 13 12 -2 4 0 hvcurveto
          0 -44 -1 -46 vhcurveto
          -45 hmoveto
          -184 hlineto
          30 126 96 140 66 70 rrcurveto
          endchar
        </CharString>
        <CharString name="four.dnom">
          18 18 -21 79 41 hstem
          248 42 vstem
          290 119 rmoveto
          299 vlineto
          2 -4 -8 1 -6 hhcurveto
          -12 -12 -2 -12 -11 hvcurveto
          -68 -64 -86 -133 -27 -84 rrcurveto
          -5 -14 -3 -11 -6 vvcurveto
          -7 3 -6 4 -6 vhcurveto
          192 -79 hlineto
          -1 7 6 -1 5 hhcurveto
          16 9 6 11 hvcurveto
          64 66 vlineto
          8 4 10 11 9 -1 8 -2 5 hvcurveto
          -117 -2 rmoveto
          -153 hlineto
          27 90 79 109 47 45 rrcurveto
          endchar
        </CharString>
        <CharString name="four.numr">
          18 365 41 304 -20 hstem
          248 42 vstem
          290 408 rmoveto
          299 vlineto
          2 -4 -8 1 -6 hhcurveto
          -12 -12 -2 -12 -11 hvcurveto
          -68 -64 -86 -133 -27 -84 rrcurveto
          -5 -14 -3 -11 -6 vvcurveto
          -7 3 -6 4 -6 vhcurveto
          192 -79 hlineto
          -1 7 6 -1 5 hhcurveto
          16 9 6 11 hvcurveto
          64 66 vlineto
          8 4 10 11 9 -1 8 -2 5 hvcurveto
          -117 -2 rmoveto
          -153 hlineto
          27 90 79 109 47 45 rrcurveto
          endchar
        </CharString>
        <CharString name="foursuperior">
          33 365 41 304 -20 hstem
          256 42 vstem
          298 408 rmoveto
          299 vlineto
          2 -4 -8 1 -7 hhcurveto
          -12 -11 -2 -12 -11 hvcurveto
          -69 -64 -85 -133 -27 -84 rrcurveto
          -5 -14 -3 -11 -6 vvcurveto
          -7 2 -6 4 -6 vhcurveto
          193 -79 hlineto
          -1 6 6 -1 6 hhcurveto
          16 9 6 11 hvcurveto
          64 65 vlineto
          9 4 10 11 9 -2 8 -2 5 hvcurveto
          -116 -2 rmoveto
          -153 hlineto
          27 90 78 109 48 45 rrcurveto
          endchar
        </CharString>
        <CharString name="fraction">
          -186 12 -21 719 -20 hstem
          -116 466 vstem
          350 691 rmoveto
          13 -8 -11 6 -10 hhcurveto
          -8 -5 -5 -5 -2 hvcurveto
          -422 -690 rlineto
          -12 6 13 -7 10 hhcurveto
          7 5 3 4 1 hvcurveto
          endchar
        </CharString>
        <CharString name="g">
          24 -198 43 309 38 273 39 hstem
          37 45 244 45 vstem
          263 504 rmoveto
          4 -17 -19 2 -10 hhcurveto
          -91 -73 -58 -122 -64 14 -60 50 -30 hvcurveto
          -33 -26 -31 -36 -26 vvcurveto
          -23 27 -17 42 -11 vhcurveto
          -43 -30 -42 -50 -49 vvcurveto
          -53 26 -53 132 132 62 73 73 79 -62 19 -72 10 vhcurveto
          -88 10 -67 13 20 vvcurveto
          18 24 27 24 18 vhcurveto
          -5 17 20 -3 24 hhcurveto
          116 46 86 102 65 -24 43 -39 20 hvcurveto
          -3 21 24 -2 17 hhcurveto
          14 7 6 13 11 -3 6 -2 3 hvcurveto
          -171 -31 rmoveto
          69 42 -39 -85 -83 -35 -74 -79 -98 -15 65 73 99 54 44 62 hvcurveto
          -17 -628 rmoveto
          -97 -19 31 39 40 40 47 39 26 hvcurveto
          21 -4 24 -3 25 -3 rrcurveto
          66 -6 47 -11 -58 vvcurveto
          -48 -49 -50 -97 vhcurveto
          endchar
        </CharString>
        <CharString name="g.ss01">
          34 -200 42 149 42 437 40 hstem
          48 47 216 44 vstem
          355 471 rmoveto
          23 -22 -41 16 -42 hhcurveto
          -97 -105 -54 -222 -198 63 -45 80 54 45 26 24 21 hvcurveto
          -83 vlineto
          -96 -70 -20 -49 -64 -28 15 16 -28 vhcurveto
          -7 -9 -3 -10 -9 vvcurveto
          -21 48 -24 80 93 72 44 108 vhcurveto
          -44 149 rmoveto
          -47 -23 -42 -21 -45 hhcurveto
          -54 -52 37 162 200 82 38 61 38 26 -14 -12 9 hvcurveto
          endchar
        </CharString>
        <CharString name="gbreve">
          24 -198 43 309 38 273 39 71 43 91 -20 hstem
          37 45 244 45 vstem
          263 504 rmoveto
          4 -17 -19 2 -10 hhcurveto
          -91 -73 -58 -122 -64 14 -60 50 -30 hvcurveto
          -33 -26 -31 -35 -27 vvcurveto
          -23 27 -17 42 -11 vhcurveto
          -43 -30 -42 -50 -49 vvcurveto
          -53 26 -53 132 132 62 73 73 79 -62 19 -72 10 vhcurveto
          -88 10 -67 13 20 vvcurveto
          18 24 27 24 18 vhcurveto
          -5 17 20 -3 24 hhcurveto
          116 46 86 102 65 -24 43 -39 20 hvcurveto
          -3 21 24 -2 17 hhcurveto
          14 7 6 13 11 -3 6 -2 3 hvcurveto
          -171 -31 rmoveto
          69 42 -39 -85 -83 -35 -74 -79 -98 -15 65 73 99 54 44 62 hvcurveto
          -17 -628 rmoveto
          -97 -19 31 39 40 40 47 39 26 hvcurveto
          21 -4 24 -3 25 -3 rrcurveto
          66 -6 47 -11 -58 vvcurveto
          -48 -49 -50 -97 vhcurveto
          11 730 rmoveto
          73 34 62 47 15 hvcurveto
          -3 18 -25 14 -8 -18 rrcurveto
          -35 -14 -19 -45 -52 hhcurveto
          -54 -25 57 34 -12 hvcurveto
          -18 -4 -10 -6 -14 vvcurveto
          -27 44 -83 74 vhcurveto
          endchar
        </CharString>
        <CharString name="gcommaaccent">
          24 -198 43 309 38 273 39 234 -20 hstem
          37 45 92 70 82 45 vstem
          263 504 rmoveto
          4 -17 -19 2 -10 hhcurveto
          -91 -73 -58 -122 -64 14 -60 50 -30 hvcurveto
          -33 -26 -31 -36 -26 vvcurveto
          -23 27 -17 42 -11 vhcurveto
          -43 -30 -42 -50 -49 vvcurveto
          -53 26 -53 132 132 62 73 73 79 -62 19 -72 10 vhcurveto
          -88 10 -67 13 20 vvcurveto
          18 24 27 24 18 vhcurveto
          -5 17 20 -3 24 hhcurveto
          116 46 86 102 65 -24 43 -39 20 hvcurveto
          -3 21 24 -2 17 hhcurveto
          14 7 6 13 11 -3 6 -2 3 hvcurveto
          -171 -31 rmoveto
          69 42 -39 -85 -83 -35 -74 -79 -98 -15 65 73 99 54 44 62 hvcurveto
          -17 -628 rmoveto
          -97 -19 31 39 40 40 47 39 26 hvcurveto
          21 -4 24 -3 25 -3 rrcurveto
          66 -6 47 -11 -58 vvcurveto
          -48 -49 -50 -97 vhcurveto
          11 709 rmoveto
          21 14 15 21 16 -7 13 -11 7 hvcurveto
          31 8 28 22 37 vhcurveto
          9 -2 -9 7 -9 hhcurveto
          -15 -47 -82 -60 -33 13 -9 22 hvcurveto
          endchar
        </CharString>
        <CharString name="gecy">
          -100 21 -21 460 40 hstem
          62 45 vstem
          62 hmoveto
          45 0 0 13 hvcurveto
          447 153 vlineto
          12 0 5 35 hvcurveto
          -184 hlineto
          -20 -6 -1 -17 hvcurveto
          endchar
        </CharString>
        <CharString name="germandbls">
          91 -9 41 630 42 hstem
          60 46 118 48 137 48 vstem
          60 46 rmoveto
          1 -29 -7 -17 0 vvcurveto
          0 8 -8 18 22 4 9 20 vhcurveto
          501 vlineto
          102 -1 36 38 79 hhcurveto
          100 41 -56 -44 -34 -30 -19 -32 -21 hvcurveto
          -36 -24 -39 -25 -48 vvcurveto
          -46 41 -32 44 -35 vhcurveto
          48 -38 52 -41 -66 vvcurveto
          -70 -49 -31 -61 -48 -29 14 19 -20 vhcurveto
          -4 -4 -10 -12 -16 vvcurveto
          -14 43 -28 74 92 60 50 94 88 -64 48 -52 39 vhcurveto
          -37 28 -32 24 31 vvcurveto
          33 29 19 32 20 vhcurveto
          36 23 39 25 50 vvcurveto
          58 -49 83 -143 -94 -62 -41 -114 vhcurveto
          endchar
        </CharString>
        <CharString name="germandbls.ss05">
          103 -135 43 105 -21 468 40 195 41 hstem
          64 45 305 47 vstem
          441 460 rmoveto
          6 12 2 9 7 vvcurveto
          8 -3 4 0 vhcurveto
          -337 61 hlineto
          102 36 32 80 50 34 -16 -16 21 vhcurveto
          0 12 21 12 11 -47 29 -65 -105 -61 -35 -113 hvcurveto
          -534 vlineto
          -34 -7 -19 0 vhcurveto
          0 8 -9 18 20 6 7 24 vhcurveto
          437 280 vlineto
          -165 -239 37 -1 36 -3 30 -10 rlinecurve
          51 -16 36 -35 -72 vvcurveto
          -106 -55 -70 -94 -51 -20 12 18 -26 vhcurveto
          -4 -6 -7 -14 -12 vvcurveto
          -15 24 -26 87 125 68 94 130 110 -88 45 -78 7 vhcurveto
          endchar
        </CharString>
        <CharString name="gheupturncy">
          -107 21 -21 460 40 hstem
          62 45 138 27 vstem
          88 500 rmoveto
          -20 -6 -1 -17 hvcurveto
          -482 vlineto
          45 0 0 13 hvcurveto
          447 153 vlineto
          12 0 5 35 hvcurveto
          104 vlineto
          13 -7 4 -20 vhcurveto
          -6 -26 -7 -69 -2 -26 rrcurveto
          endchar
        </CharString>
        <CharString name="gjecy">
          -100 21 -21 460 40 hstem
          62 45 vstem
          126 572 rmoveto
          60 40 75 60 6 7 rrcurveto
          9 -2 -8 28 -12 hhcurveto
          -3 -76 -59 -58 -58 hvcurveto
          0 11 -27 7 vhcurveto
          -64 -572 rmoveto
          45 0 0 13 hvcurveto
          447 153 vlineto
          12 0 5 35 hvcurveto
          -184 hlineto
          -20 -6 -1 -17 hvcurveto
          endchar
        </CharString>
        <CharString name="grave">
          -125 570 143 hstem
          49 159 vstem
          71 713 rmoveto
          -12 -9 -28 -9 -1 hvcurveto
          6 -6 75 -60 60 -40 rrcurveto
          7 11 26 0 hvcurveto
          59 -58 -76 58 -3 hhcurveto
          endchar
        </CharString>
        <CharString name="greater">
          18 110 304 hstem
          49 306 vstem
          295 271 rmoveto
          -233 -115 rlineto
          -6 -3 -3 -5 -7 vvcurveto
          -8 5 -11 10 -12 vhcurveto
          271 134 rlineto
          11 6 5 9 10 vvcurveto
          9 -3 10 -5 8 vhcurveto
          -254 111 rlineto
          5 -11 -7 2 -5 hhcurveto
          -8 -12 -14 -23 -1 hvcurveto
          endchar
        </CharString>
        <CharString name="greaterequal">
          31 0 42 hstem
          54 305 vstem
          300 290 rmoveto
          -234 -115 rlineto
          -6 -3 -2 -5 -7 vvcurveto
          -8 4 -11 11 -11 vhcurveto
          270 133 rlineto
          11 6 5 9 11 vvcurveto
          9 -2 9 -6 8 vhcurveto
          -253 111 rlineto
          5 -11 -7 2 -5 hhcurveto
          -8 -12 -14 -22 -1 hvcurveto
          290 -397 rmoveto
          12 0 9 33 hvcurveto
          -282 hlineto
          -12 0 -10 -32 hvcurveto
          endchar
        </CharString>
        <CharString name="guillemotleft">
          36 21 -21 500 -20 hstem
          32 339 vstem
          32 255 rmoveto
          -24 156 -231 0 15 10 29 0 18 -137 208 0 0 133 200 22 0 -10 23 -17 0 -150 -222 -23 vhcurveto
          159 -5 rmoveto
          -24 155 -204 0 15 10 27 0 18 -136 183 0 0 132 185 22 0 -10 22 -17 0 -149 -207 -22 vhcurveto
          endchar
        </CharString>
        <CharString name="guillemotright">
          33 21 -21 hstem
          47 336 vstem
          383 255 rmoveto
          23 -150 222 0 0 -28 -7 -16 -22 134 -200 0 0 -138 -209 -18 -21 27 -7 0 0 155 231 24 vhcurveto
          -156 -5 rmoveto
          23 -150 207 0 0 -26 -7 -16 -16 72 -104 37 -54 vhcurveto
          -20 14 10 -13 -1 hhcurveto
          0 -136 -183 -18 -22 25 -6 0 0 155 204 25 hvcurveto
          endchar
        </CharString>
        <CharString name="guilsinglleft">
          -122 21 -21 500 -20 hstem
          32 181 vstem
          32 250 rmoveto
          -25 156 -225 0 15 10 29 0 18 -137 203 0 0 133 205 22 0 -10 23 -17 0 -150 -227 -23 vhcurveto
          endchar
        </CharString>
        <CharString name="guilsinglright">
          -122 21 -21 hstem
          47 181 vstem
          228 250 rmoveto
          23 -149 227 0 0 -28 -7 -16 -22 134 -205 0 0 -138 -204 -18 -21 26 -7 0 0 155 225 25 vhcurveto
          endchar
        </CharString>
        <CharString name="h">
          20 21 -21 467 43 225 -20 hstem
          58 45 205 46 vstem
          58 hmoveto
          44 1 0 12 hvcurveto
          410 vlineto
          34 35 49 11 34 hhcurveto
          72 15 -41 -59 hvcurveto
          -367 vlineto
          45 1 0 12 hvcurveto
          363 vlineto
          83 -21 52 -98 -43 -48 -13 -31 -41 vhcurveto
          269 vlineto
          -36 -9 0 -23 hvcurveto
          endchar
        </CharString>
        <CharString name="hacy">
          65 21 -21 500 -20 hstem
          25 397 vstem
          254 266 rmoveto
          152 234 rlineto
          -50 1 0 -8 -5 hvcurveto
          -49 -75 -30 -45 -35 -57 -11 -20 rlinecurve
          -12 20 -35 57 -28 44 -56 84 rcurveline
          -50 -1 -1 -7 5 hvcurveto
          146 -228 -171 -264 rlineto
          44 6 0 10 5 hvcurveto
          50 75 35 54 41 67 16 26 rlinecurve
          15 -24 41 -68 35 -54 57 -86 rcurveline
          55 2 0 13 -8 hvcurveto
          endchar
        </CharString>
        <CharString name="hardsigncy">
          59 0 36 219 36 167 42 hstem
          151 44 184 47 vstem
          195 291 rmoveto
          209 -168 vlineto
          -7 -1 -4 -18 hvcurveto
          -20 132 -458 109 vlineto
          61 1 105 6 155 vvcurveto
          110 -68 19 -89 vhcurveto
          -74 -254 rmoveto
          218 62 vlineto
          73 49 -9 -84 -110 -52 -16 -65 hvcurveto
          endchar
        </CharString>
        <CharString name="hungarumlaut">
          -125 568 152 hstem
          11 235 vstem
          107 720 rmoveto
          -3 -1 -55 -67 -38 -63 rrcurveto
          0 17 -23 7 2 vhcurveto
          46 48 52 67 4 7 -4 8 -14 25 -12 -3 rrcurveto
          109 hmoveto
          -2 -1 -55 -67 -38 -63 rrcurveto
          0 17 -23 6 2 vhcurveto
          46 48 53 67 3 7 -4 8 -14 25 -12 -3 rrcurveto
          endchar
        </CharString>
        <CharString name="hyphen">
          -87 261 41 hstem
          45 204 vstem
          237 261 rmoveto
          12 0 9 32 hvcurveto
          -191 hlineto
          -13 0 -9 -32 hvcurveto
          endchar
        </CharString>
        <CharString name="i">
          -213 21 -21 500 -20 118 80 hstem
          62 45 vstem
          57 635 rmoveto
          -26 9 -11 17 21 8 16 28 24 -7 12 -19 -20 -9 -16 -27 vhcurveto
          50 -135 rmoveto
          -36 -9 0 -23 hvcurveto
          -477 vlineto
          45 0 0 12 hvcurveto
          endchar
        </CharString>
        <CharString name="iacute">
          -213 21 -21 500 -20 hstem
          62 45 vstem
          25 572 rmoveto
          61 40 75 60 6 7 rrcurveto
          9 -2 -8 28 -12 hhcurveto
          -3 -76 -59 -58 -59 hvcurveto
          0 11 -27 7 vhcurveto
          82 -72 rmoveto
          -36 -9 0 -23 hvcurveto
          -477 vlineto
          45 0 0 12 hvcurveto
          endchar
        </CharString>
        <CharString name="iacy">
          4 21 -21 217 38 206 39 hstem
          52 47 179 46 vstem
          211 500 rmoveto
          -103 -56 -48 -92 -85 48 -39 44 -11 hvcurveto
          -34 -17 -22 -29 -14 -48 -38 -133 rcurveline
          -1 11 9 0 10 hhcurveto
          15 1 2 10 2 hvcurveto
          35 119 rlineto
          54 16 28 35 47 hhcurveto
          68 -200 hlineto
          -17 1 0 45 vhcurveto
          490 vlineto
          0 0 10 -12 vhcurveto
          -34 -40 rmoveto
          -205 -84 vlineto
          -53 -42 29 71 73 40 33 58 hvcurveto
          endchar
        </CharString>
        <CharString name="icircumflex">
          -213 21 -21 500 -20 215 8 hstem
          62 45 vstem
          -34 591 rmoveto
          -5 4 9 -12 19 hhcurveto
          11 79 88 0 hvcurveto
          5 -9 75 -80 0 vvcurveto
          19 16 13 6 6 -96 97 0 hvcurveto
          6 -6 -7 2 -5 hhcurveto
          -5 -4 -1 -1 -2 hvcurveto
          29 -201 rmoveto
          -36 -9 0 -23 hvcurveto
          -477 vlineto
          45 0 0 12 hvcurveto
          endchar
        </CharString>
        <CharString name="icy">
          -213 21 -21 500 -20 118 80 hstem
          62 45 vstem
          57 638 rmoveto
          -28 -1 9 -12 18 hhcurveto
          20 8 14 26 1 hvcurveto
          27 1 -7 13 -20 hhcurveto
          -19 -9 -14 -26 -1 hvcurveto
          50 -138 rmoveto
          -36 -9 0 -23 hvcurveto
          -477 vlineto
          45 0 0 12 hvcurveto
          endchar
        </CharString>
        <CharString name="idieresis">
          -213 21 -21 500 -20 119 78 hstem
          62 45 vstem
          33 677 rmoveto
          -19 -9 -14 -25 hvcurveto
          -27 -1 8 -12 18 hhcurveto
          19 9 14 25 1 hvcurveto
          26 -7 13 -19 vhcurveto
          107 hmoveto
          -19 -9 -14 -25 -1 hvcurveto
          -27 8 -12 18 19 9 14 25 vhcurveto
          26 1 -7 13 -19 hhcurveto
          -33 -177 rmoveto
          -36 -9 0 -23 hvcurveto
          -477 vlineto
          45 0 0 12 hvcurveto
          endchar
        </CharString>
        <CharString name="iecy">
          -3 -10 44 185 53 197 41 hstem
          41 45 215 44 vstem
          212 34 rmoveto
          -74 -51 22 163 -1 hvcurveto
          42 -1 119 1 90 17 rrcurveto
          6 32 2 43 41 vvcurveto
          97 -37 61 -88 -81 -98 -28 -260 -202 70 -30 95 72 63 26 21 8 -2 13 -4 11 vhcurveto
          -22 -31 -46 -13 -46 hhcurveto
          5 435 rmoveto
          65 18 -45 -83 1 hvcurveto
          -22 -1 -22 -3 -25 vhcurveto
          -63 -15 -107 0 -40 1 rrcurveto
          192 8 68 19 54 hhcurveto
          endchar
        </CharString>
        <CharString name="iegravecy">
          -3 -10 44 185 53 197 41 hstem
          41 45 215 44 vstem
          254 570 rmoveto
          7 10 26 0 hvcurveto
          59 -58 -76 58 -3 hhcurveto
          -12 -8 -28 -9 -2 hvcurveto
          6 -6 75 -60 61 -40 rrcurveto
          -42 -536 rmoveto
          -74 -51 22 163 -1 hvcurveto
          42 -1 119 1 90 17 rrcurveto
          6 32 2 43 41 vvcurveto
          97 -37 61 -88 -81 -98 -28 -260 -202 70 -30 95 72 63 26 21 8 -2 13 -4 11 vhcurveto
          -22 -31 -46 -13 -46 hhcurveto
          5 435 rmoveto
          65 18 -45 -83 1 hvcurveto
          -22 -1 -22 -3 -25 vhcurveto
          -63 -15 -107 0 -40 1 rrcurveto
          192 8 68 19 54 hhcurveto
          endchar
        </CharString>
        <CharString name="igrave">
          -213 21 -21 500 -20 hstem
          62 45 vstem
          29 713 rmoveto
          -12 -8 -28 -9 -2 hvcurveto
          6 -6 75 -60 61 -40 rrcurveto
          7 11 26 0 hvcurveto
          59 -59 -76 58 -3 hhcurveto
          78 -213 rmoveto
          -36 -9 0 -23 hvcurveto
          -477 vlineto
          45 0 0 12 hvcurveto
          endchar
        </CharString>
        <CharString name="iicy">
          51 21 -21 500 -20 hstem
          62 43 223 43 vstem
          203 265 rmoveto
          -24 -42 -27 -51 -25 -48 -10 -19 -10 -18 -9 -17 1 18 1 19 1 19 rrcurveto
          2 33 2 33 29 vvcurveto
          279 vlineto
          -36 -7 0 -10 hvcurveto
          -490 vlineto
          32 4 0 11 7 hvcurveto
          121 217 24 41 27 52 25 49 rlinecurve
          12 21 11 22 10 20 rrcurveto
          -25 -2 -27 -1 -27 vhcurveto
          -2 -36 -2 -37 -32 vvcurveto
          -249 vlineto
          39 4 0 10 hvcurveto
          490 vlineto
          -33 -5 -2 -9 -5 hvcurveto
          endchar
        </CharString>
        <CharString name="iigravecy">
          51 21 -21 500 -20 hstem
          62 43 223 43 vstem
          162 713 rmoveto
          -12 -8 -28 -9 -2 hvcurveto
          6 -6 75 -60 61 -40 rrcurveto
          7 11 26 0 hvcurveto
          59 -59 -76 58 -3 hhcurveto
          41 -448 rmoveto
          -33 -58 -38 -75 -34 -62 rrcurveto
          2 49 5 56 46 vvcurveto
          279 vlineto
          -36 -7 0 -10 hvcurveto
          -490 vlineto
          32 4 0 11 7 hvcurveto
          121 217 34 60 41 80 34 65 rlinecurve
          -1 -59 -6 -69 -56 vvcurveto
          -249 vlineto
          39 4 0 10 hvcurveto
          490 vlineto
          -33 -5 -2 -9 -5 hvcurveto
          endchar
        </CharString>
        <CharString name="iishortcy">
          51 21 -21 500 -20 100 33 96 -20 hstem
          62 43 223 43 vstem
          122 709 rmoveto
          -19 -4 -16 -6 1 -14 rrcurveto
          -39 4 34 -66 88 hhcurveto
          78 30 42 63 22 hvcurveto
          -3 17 -33 14 -5 -17 rrcurveto
          -56 -16 -16 -30 -55 hhcurveto
          -63 -22 50 46 -9 hvcurveto
          81 -444 rmoveto
          -33 -58 -38 -75 -34 -62 rrcurveto
          2 49 5 56 46 vvcurveto
          279 vlineto
          -36 -7 0 -10 hvcurveto
          -490 vlineto
          32 4 0 11 7 hvcurveto
          121 217 34 60 41 80 34 65 rlinecurve
          -1 -59 -6 -69 -56 vvcurveto
          -249 vlineto
          39 4 0 10 hvcurveto
          490 vlineto
          -33 -5 -2 -9 -5 hvcurveto
          endchar
        </CharString>
        <CharString name="ij">
          -32 -195 43 173 -21 500 -20 118 80 hstem
          62 45 131 45 vstem
          57 638 rmoveto
          -28 -1 9 -12 18 hhcurveto
          20 8 14 26 1 hvcurveto
          27 1 -7 13 -20 hhcurveto
          -19 -9 -14 -26 -1 hvcurveto
          176 hmoveto
          -28 -1 9 -12 17 hhcurveto
          20 9 14 26 1 hvcurveto
          27 1 -8 13 -19 hhcurveto
          -20 -9 -14 -26 hvcurveto
          50 -138 rmoveto
          -36 -9 0 -23 hvcurveto
          -503 vlineto
          -83 -9 -43 -69 -46 -31 13 15 -22 vhcurveto
          -7 -9 -1 -8 -10 vvcurveto
          -21 38 -23 71 101 20 67 91 vhcurveto
          -176 537 rmoveto
          -36 -9 0 -23 hvcurveto
          -477 vlineto
          45 0 0 12 hvcurveto
          endchar
        </CharString>
        <CharString name="imacron">
          -213 21 -21 500 -20 130 44 hstem
          62 45 vstem
          192 610 rmoveto
          12 6 9 14 6 0 7 -3 8 hvcurveto
          -229 hlineto
          -12 -6 -9 -13 -1 hvcurveto
          -7 0 -7 3 -8 vhcurveto
          145 -110 rmoveto
          -36 -9 0 -23 hvcurveto
          -477 vlineto
          45 0 0 12 hvcurveto
          endchar
        </CharString>
        <CharString name="increment">
          54 0 43 661 -20 hstem
          8 420 vstem
          8 2 rmoveto
          -2 12 10 0 6 hhcurveto
          373 hlineto
          14 5 3 6 1 0 2 -1 1 hvcurveto
          -193 689 rlineto
          1 -4 -8 1 -7 hhcurveto
          -9 -5 -2 -4 -1 hvcurveto
          172 -655 rmoveto
          -306 hlineto
          106 399 22 83 20 83 4 31 rlinecurve
          3 -31 19 -84 23 -82 rrcurveto
          endchar
        </CharString>
        <CharString name="infinity">
          247 129 42 194 45 hstem
          56 45 428 44 vstem
          450 410 rmoveto
          -66 -35 -43 -49 -28 hvcurveto
          44 -24 -33 48 -75 hhcurveto
          -107 -26 -79 -62 -75 40 -65 87 59 39 45 49 31 hvcurveto
          20 -47 34 -36 46 -13 rrcurveto
          -2 11 12 -2 12 hhcurveto
          78 48 48 98 93 -49 48 -74 hvcurveto
          -11 -244 rmoveto
          -52 -32 51 50 -18 hvcurveto
          12 22 11 21 10 13 17 24 16 17 39 1 11 1 11 -1 11 -4 rrcurveto
          31 -11 23 -33 -47 vvcurveto
          -70 -37 -34 -53 vhcurveto
          -143 105 rmoveto
          -52 -28 -28 -48 -57 hhcurveto
          -57 -25 49 50 29 10 41 40 17 hvcurveto
          13 5 16 3 20 -1 47 -2 31 -41 17 -46 rrcurveto
          endchar
        </CharString>
        <CharString name="integral">
          98 -195 41 849 42 hstem
          218 45 vstem
          218 -27 rmoveto
          -123 -64 -4 -56 -28 -22 4 8 -25 vhcurveto
          -3 -8 -2 -11 -8 vvcurveto
          -13 32 -13 52 70 91 5 163 vhcurveto
          596 vlineto
          122 64 4 55 29 22 -3 -8 24 vhcurveto
          3 8 3 11 8 vvcurveto
          13 -32 13 -52 -70 -91 -5 -163 vhcurveto
          endchar
        </CharString>
        <CharString name="iocy">
          -3 -10 44 185 53 197 41 hstem
          41 45 215 44 vstem
          212 34 rmoveto
          -74 -51 22 163 -1 hvcurveto
          42 -1 119 1 90 17 rrcurveto
          6 32 2 43 41 vvcurveto
          97 -37 61 -88 -81 -98 -28 -260 -202 70 -30 95 72 63 26 21 8 -2 13 -4 11 vhcurveto
          -22 -31 -46 -13 -46 hhcurveto
          5 435 rmoveto
          65 18 -45 -83 1 hvcurveto
          -22 -1 -22 -3 -25 vhcurveto
          -63 -15 -107 0 -40 1 rrcurveto
          192 8 68 19 54 hhcurveto
          -82 130 rmoveto
          19 9 14 25 1 hvcurveto
          26 -7 13 -19 -19 -9 -14 -25 vhcurveto
          -27 -1 8 -12 18 hhcurveto
          107 hmoveto
          19 9 14 25 hvcurveto
          26 1 -7 13 -19 hhcurveto
          -19 -9 -14 -25 -1 hvcurveto
          -27 8 -12 18 vhcurveto
          endchar
        </CharString>
        <CharString name="iogonek">
          -213 -195 37 658 -20 118 80 hstem
          61 47 vstem
          57 635 rmoveto
          -26 9 -11 17 21 9 16 28 24 -8 12 -19 -20 -9 -16 -27 vhcurveto
          51 -135 rmoveto
          -45 -2 0 -24 hvcurveto
          -467 vlineto
          -34 -32 -32 -41 -54 vvcurveto
          -51 29 -26 47 27 21 8 15 -1 vhcurveto
          6 -3 10 -4 6 vhcurveto
          -5 -11 -8 -3 -13 hhcurveto
          -30 -12 16 27 45 32 42 27 23 hvcurveto
          7 6 5 3 8 vvcurveto
          endchar
        </CharString>
        <CharString name="iucy">
          159 -10 40 200 40 200 40 hstem
          62 44 81 46 223 46 vstem
          106 270 rmoveto
          230 vlineto
          -44 0 0 -12 hvcurveto
          -488 vlineto
          46 -2 0 12 hvcurveto
          218 81 vlineto
          -210 3 57 -30 89 hhcurveto
          107 59 82 178 205 -52 55 -102 -96 -61 -70 -170 -4 hvcurveto
          151 -240 rmoveto
          -67 -38 37 177 172 45 54 68 69 41 -40 -178 -158 -46 -64 -72 hvcurveto
          endchar
        </CharString>
        <CharString name="j">
          -201 -195 43 652 -20 118 80 hstem
          69 44 vstem
          63 638 rmoveto
          -28 8 -12 18 20 9 14 26 1 vhcurveto
          27 -7 13 -20 -19 -9 -14 -26 -1 vhcurveto
          50 -138 rmoveto
          -36 -8 0 -23 hvcurveto
          -503 vlineto
          -83 -9 -43 -69 -47 -30 13 15 -23 vhcurveto
          -6 -9 -2 -8 -10 vvcurveto
          -21 39 -23 71 100 20 67 91 vhcurveto
          endchar
        </CharString>
        <CharString name="jecy">
          -201 -195 43 652 -20 118 80 hstem
          69 44 vstem
          63 638 rmoveto
          -28 8 -12 18 20 9 14 26 1 vhcurveto
          27 -7 13 -20 -19 -9 -14 -26 -1 vhcurveto
          50 -138 rmoveto
          -36 -8 0 -23 hvcurveto
          -503 vlineto
          -83 -9 -43 -69 -47 -30 13 15 -23 vhcurveto
          -6 -9 -2 -8 -10 vvcurveto
          -21 39 -23 71 100 20 67 91 vhcurveto
          endchar
        </CharString>
        <CharString name="k">
          12 21 -21 235 28 205 42 225 -20 hstem
          61 45 208 46 vstem
          61 hmoveto
          47 -2 0 12 hvcurveto
          196 vlineto
          0 45 18 20 6 vhcurveto
          2 7 8 1 9 hhcurveto
          37 48 -19 -68 22 hvcurveto
          8 -22 4 -28 -34 vvcurveto
          -19 -1 -21 -3 -24 vhcurveto
          48 0 0 14 2 hvcurveto
          2 19 1 18 0 17 0 18 -1 17 -2 15 50 flex
          -17 105 -71 38 -43 2 rrcurveto
          27 14 86 52 93 vvcurveto
          55 -24 33 -64 -43 -63 -23 -44 -42 vhcurveto
          292 vlineto
          -36 -9 0 -23 hvcurveto
          45 -315 rmoveto
          51 44 47 20 40 hhcurveto
          39 18 -19 -37 -80 -85 -53 -103 -34 hvcurveto
          endchar
        </CharString>
        <CharString name="kacy">
          -13 21 -21 244 41 215 -20 hstem
          62 44 vstem
          232 344 rmoveto
          -39 -16 -26 -20 -33 hhcurveto
          -51 215 hlineto
          -44 0 0 -10 hvcurveto
          -490 vlineto
          44 0 0 10 hvcurveto
          234 48 vlineto
          46 34 -32 -62 16 hvcurveto
          46 -150 rlineto
          -1 9 9 0 9 hhcurveto
          13 5 3 8 hvcurveto
          2 vlineto
          -45 146 -14 53 -31 39 -37 17 rlinecurve
          24 11 21 24 14 34 61 150 rcurveline
          2 3 0 3 2 vvcurveto
          5 -4 1 -13 -8 -9 0 -2 -10 vhcurveto
          endchar
        </CharString>
        <CharString name="kadescendercy">
          -16 -1 44 210 43 204 -20 hstem
          62 45 224 43 vstem
          374 43 rmoveto
          -40 hlineto
          -15 121 -45 87 -60 27 61 31 26 88 30 88 rrcurveto
          12 3 -2 3 -17 hhcurveto
          -9 -9 0 -2 -10 hvcurveto
          -132 -34 -40 -70 -52 hhcurveto
          -54 204 hlineto
          -45 0 0 -10 hvcurveto
          -490 vlineto
          45 0 0 10 hvcurveto
          243 51 vlineto
          54 62 -59 -194 14 hvcurveto
          43 -1 1 -36 3 -61 11 -61 rlinecurve
          17 11 1 11 hvcurveto
          endchar
        </CharString>
        <CharString name="kcommaaccent">
          12 21 -21 468 42 225 -20 hstem
          61 45 208 49 vstem
          61 hmoveto
          47 -2 0 12 hvcurveto
          196 vlineto
          0 45 18 20 6 vhcurveto
          36 9 68 -9 27 -84 12 -35 4 -48 -8 -65 rrcurveto
          48 0 0 14 2 hvcurveto
          5 40 -1 35 -4 29 -17 105 -71 38 -43 2 rrcurveto
          27 14 86 52 93 vvcurveto
          55 -24 33 -64 -43 -63 -23 -44 -42 vhcurveto
          292 vlineto
          -36 -9 0 -23 hvcurveto
          45 -315 rmoveto
          51 44 47 20 40 hhcurveto
          39 18 -19 -37 -80 -85 -53 -103 -34 hvcurveto
          56 -338 rmoveto
          -16 7 -13 11 -7 vhcurveto
          -31 -8 -29 -22 -37 vhcurveto
          -10 2 9 -6 9 hhcurveto
          16 47 82 61 33 -14 10 -22 -21 -14 -15 -22 hvcurveto
          endchar
        </CharString>
        <CharString name="kjecy">
          -13 21 -21 244 41 215 -20 hstem
          62 44 vstem
          142 572 rmoveto
          61 40 75 60 6 7 rrcurveto
          9 -2 -8 28 -12 hhcurveto
          -3 -76 -59 -58 -58 hvcurveto
          0 10 -27 7 vhcurveto
          90 -228 rmoveto
          -39 -16 -26 -20 -33 hhcurveto
          -51 215 hlineto
          -44 0 0 -10 hvcurveto
          -490 vlineto
          44 0 0 10 hvcurveto
          234 48 vlineto
          46 34 -32 -62 16 hvcurveto
          46 -150 rlineto
          -1 9 9 0 9 hhcurveto
          15 3 3 10 hvcurveto
          -45 146 -14 53 -31 39 -37 17 rlinecurve
          24 11 21 24 14 34 61 150 rcurveline
          11 4 0 3 -19 hhcurveto
          -8 -9 0 -2 -10 hvcurveto
          endchar
        </CharString>
        <CharString name="l">
          -214 21 -21 735 -20 hstem
          61 45 vstem
          106 735 rmoveto
          -35 -10 0 -23 hvcurveto
          -712 vlineto
          44 1 0 12 hvcurveto
          endchar
        </CharString>
        <CharString name="lacute">
          -214 21 -21 735 -20 hstem
          61 45 vstem
          25 807 rmoveto
          61 40 74 60 6 7 rrcurveto
          9 -1 -9 28 -12 hhcurveto
          -2 -76 -59 -58 -59 hvcurveto
          0 11 -27 7 vhcurveto
          81 -72 rmoveto
          -35 -10 0 -23 hvcurveto
          -712 vlineto
          44 1 0 12 hvcurveto
          endchar
        </CharString>
        <CharString name="lcaron">
          -214 21 -21 735 -20 hstem
          61 45 vstem
          106 735 rmoveto
          -35 -10 0 -23 hvcurveto
          -712 vlineto
          44 1 0 12 hvcurveto
          endchar
        </CharString>
        <CharString name="lcommaaccent">
          -214 21 -21 735 -20 hstem
          61 45 vstem
          106 735 rmoveto
          -35 -10 0 -23 hvcurveto
          -712 vlineto
          44 1 0 12 hvcurveto
          -57 -105 rmoveto
          -16 7 -13 12 -7 vhcurveto
          -1 -31 -7 -29 -23 -37 rrcurveto
          -10 3 9 -6 8 hhcurveto
          16 47 82 61 33 -13 10 -23 -21 -14 -15 -22 hvcurveto
          endchar
        </CharString>
        <CharString name="ldot">
          -190 21 -21 229 81 425 -20 hstem
          61 45 vstem
          106 735 rmoveto
          -35 -10 0 -23 hvcurveto
          -712 vlineto
          44 1 0 12 hvcurveto
          33 258 rmoveto
          -25 12 -16 26 23 16 18 23 22 -14 18 -25 -24 -14 -19 -21 vhcurveto
          endchar
        </CharString>
        <CharString name="less">
          18 116 303 hstem
          46 305 vstem
          105 259 rmoveto
          234 115 rlineto
          6 3 3 5 7 vvcurveto
          -1 8 -4 11 -11 11 -270 -133 rcurveline
          -11 -6 -5 -9 -10 vvcurveto
          -9 2 -10 6 -8 vhcurveto
          254 -111 rlineto
          -5 10 8 -2 4 hhcurveto
          9 12 14 23 hvcurveto
          endchar
        </CharString>
        <CharString name="lessequal">
          38 0 42 hstem
          54 311 vstem
          114 276 rmoveto
          233 115 rlineto
          6 3 3 5 7 vvcurveto
          8 -5 12 -11 11 vhcurveto
          -270 -133 rlineto
          -11 -6 -5 -10 -10 vvcurveto
          -9 3 -10 5 -8 vhcurveto
          254 -111 rlineto
          -4 10 8 -2 4 hhcurveto
          9 12 13 23 hvcurveto
          -6 -170 rmoveto
          12 0 9 33 hvcurveto
          -290 hlineto
          -13 0 -10 -32 hvcurveto
          endchar
        </CharString>
        <CharString name="literSign">
          -214 21 -21 735 -20 hstem
          61 45 vstem
          106 735 rmoveto
          -35 -10 0 -23 hvcurveto
          -712 vlineto
          44 1 0 12 hvcurveto
          endchar
        </CharString>
        <CharString name="ljecy">
          192 0 36 219 36 169 40 hstem
          284 46 184 48 vstem
          330 291 rmoveto
          209 -176 vlineto
          -38 -2 -1 -13 hvcurveto
          -24 -321 -13 -130 -78 -2 rrcurveto
          -5 -1 -4 -3 vvcurveto
          -18 11 -6 14 86 25 154 309 22 vhcurveto
          128 -460 107 hlineto
          63 108 6 156 110 -69 19 -89 hvcurveto
          -74 -254 rmoveto
          218 62 vlineto
          73 49 -9 -84 -110 -51 -16 -66 hvcurveto
          endchar
        </CharString>
        <CharString name="logicalnot">
          18 249 44 hstem
          312 44 vstem
          50 293 rmoveto
          -10 -7 -10 -12 -8 1 -5 3 -9 hvcurveto
          275 -124 hlineto
          -11 10 -7 12 7 8 2 2 7 vhcurveto
          182 vlineto
          endchar
        </CharString>
        <CharString name="longs">
          -209 13 -21 705 41 hstem
          64 45 vstem
          64 54 rmoveto
          -34 -7 -19 0 vhcurveto
          0 8 -9 18 20 6 3 18 vhcurveto
          557 vlineto
          97 37 30 79 50 34 -15 -17 21 vhcurveto
          4 4 8 17 11 vvcurveto
          15 -47 26 -69 -101 -61 -37 -114 vhcurveto
          endchar
        </CharString>
        <CharString name="lozenge">
          92 16 -21 709 -20 hstem
          38 401 vstem
          238 -5 rmoveto
          201 355 -201 354 -200 -354 rlineto
          200 266 rmoveto
          151 -266 -151 -265 -151 265 rlineto
          endchar
        </CharString>
        <CharString name="lslash">
          -209 21 -21 501 -20 254 -20 hstem
          64 44 vstem
          108 482 rmoveto
          253 vlineto
          -35 -9 0 -23 hvcurveto
          -246 vlineto
          -54 -19 rlineto
          -5 -2 -3 -3 0 -6 0 -7 3 -10 5 -16 50 flex
          54 19 rlineto
          -422 vlineto
          46 -2 0 12 hvcurveto
          426 vlineto
          55 19 rlineto
          5 2 3 3 0 6 0 7 -3 10 -5 16 50 flex
          endchar
        </CharString>
</ttFont>
